<svg xmlns="http://www.w3.org/2000/svg" xmlns:xlink="http://www.w3.org/1999/xlink" width="308" height="308" viewBox="0 0 308 308" fill="none"><defs><rect id="path_0" x="0" y="0" width="308" height="308" /></defs><g opacity="1" transform="translate(0 0)  rotate(0 154 154)"><mask id="bg-mask-0" fill="white"><use xlink:href="#path_0"></use></mask><g mask="url(#bg-mask-0)" ><path  id="圆形 1" style="stroke:#000000; stroke-width:22; stroke-opacity:1; stroke-dasharray:0 0" transform="translate(72 49)  rotate(0 48.5 48.5)" d="M48.5,0C21.71,0 0,21.71 0,48.5C0,75.29 21.71,97 48.5,97C75.29,97 97,75.29 97,48.5C97,21.71 75.29,0 48.5,0Z " /><path  id="并集" style="stroke:#000000; stroke-width:22; stroke-opacity:1; stroke-dasharray:0 0" transform="translate(31 179)  rotate(0 89.5 40)" d="M0,40Z M179,40Z M44.39,80L134.98,80C166.29,80 179,65.45 179,40C179,14.55 166.29,0 134.98,0L44.39,0C18.42,0 0,11.82 0,40C0,68.18 18.42,80 44.39,80Z " /><path id="路径 1"  style="fill:#000000" transform="translate(200 134.1847826086958)  rotate(0 32.146321364772234 0.00009354252557614018)" opacity="1" d="M-11 -11L0 -11L64.29 -11L64.29 11L0 11L0 0L-3.20089e-05 11L-11 11L-11 -11ZM75.2927 -10.9998L64.2927 -10.9998L64.2926 11.0002L75.2926 11.0002L75.2927 -10.9998Z " /><path  id="路径 1" style="stroke:#000000; stroke-width:22; stroke-opacity:1; stroke-dasharray:0 0" transform="translate(200 134.1847826086958)  rotate(0 32.146321364772234 0.00009354252557614018)" d="" /><path id="路径 1"  style="fill:#000000" transform="translate(231.9565217391306 103.75)  rotate(0 0.00009354252554771847 30.6250000000001)" opacity="1" d="M11.0002 3.35989e-05L11.0002 -11L-10.9998 -11L-10.9998 -3.35989e-05L0.00018692 0L-11 0L-11 61.25L-11 72.25L11 72.25L11 61.25L11 3.35984e-05L11.0002 3.35989e-05Z " /><path  id="路径 1" style="stroke:#000000; stroke-width:22; stroke-opacity:1; stroke-dasharray:0 0" transform="translate(231.9565217391306 103.75)  rotate(0 0.00009354252554771847 30.6250000000001)" d="" /></g></g></svg>