<svg xmlns="http://www.w3.org/2000/svg" xmlns:xlink="http://www.w3.org/1999/xlink" width="308" height="308" viewBox="0 0 308 308" fill="none"><defs><rect id="path_0" x="0" y="0" width="308" height="308" /></defs><g opacity="1" transform="translate(0 0)  rotate(0 154 154)"><mask id="bg-mask-0" fill="white"><use xlink:href="#path_0"></use></mask><g mask="url(#bg-mask-0)" ><path id="并集" fill-rule="evenodd" style="fill:#000000" transform="translate(39.402500000000146 39.402500000000146)  rotate(0 114.59775 114.59775)" opacity="1" d="M156.51,14.45C156.27,14.35 156.02,14.25 155.78,14.15L129.92,3.13C120.13,-1.04 109.07,-1.04 99.28,3.13L73.42,14.15C73.18,14.25 72.93,14.35 72.69,14.45L46.61,24.95C36.74,28.92 28.92,36.74 24.95,46.61L14.45,72.69C14.35,72.93 14.25,73.18 14.15,73.42L3.13,99.28C-1.04,109.07 -1.04,120.13 3.13,129.92L14.15,155.78C14.25,156.02 14.35,156.27 14.45,156.51L24.95,182.59C28.92,192.46 36.74,200.28 46.61,204.25L72.69,214.75C72.93,214.85 73.18,214.95 73.42,215.05L99.28,226.07C109.07,230.24 120.13,230.24 129.92,226.07L155.78,215.05C156.02,214.95 156.27,214.85 156.51,214.75L182.59,204.25C192.46,200.28 200.28,192.46 204.25,182.59L214.75,156.51C214.85,156.27 214.95,156.02 215.05,155.78L226.07,129.92C230.24,120.13 230.24,109.07 226.07,99.28L215.05,73.42C214.95,73.18 214.85,72.93 214.75,72.69L204.25,46.61C200.28,36.74 192.46,28.92 182.59,24.95L156.51,14.45Z M163.155 70.0557L155.721 78.163L171.935 93.0321L179.37 84.9248L163.155 70.0557ZM104.227 134.321L75.5959 104.016L59.6041 119.124L89.347 150.606L89.6979 150.919Q92.624 153.529 96.2481 154.996Q99.9904 156.51 103.96 156.597Q108.242 156.691 112.185 155.113Q116.322 153.457 119.526 150.179L119.649 150.054L171.937 93.0346L155.723 78.1654L104.227 134.321ZM52.0474 111.126L59.6016 119.122L75.5934 104.014L68.0391 96.0179L52.0474 111.126Z " /><path  id="并集" style="stroke:#000000; stroke-width:22; stroke-opacity:1; stroke-dasharray:0 0" transform="translate(39.402500000000146 39.402500000000146)  rotate(0 114.59775 114.59775)" d="" /></g></g></svg>