<svg xmlns="http://www.w3.org/2000/svg" xmlns:xlink="http://www.w3.org/1999/xlink" width="308" height="308" viewBox="0 0 308 308" fill="none"><defs><rect id="path_0" x="0" y="0" width="308" height="308" /></defs><g opacity="1" transform="translate(0 0)  rotate(0 154 154)"><mask id="bg-mask-0" fill="white"><use xlink:href="#path_0"></use></mask><g mask="url(#bg-mask-0)" ><path id="拼合图形" fill-rule="evenodd" style="fill:#000000" transform="translate(25 55)  rotate(0 129 99)" opacity="1" d="M45.25,198L54.87,198L54.87,107.95L45.25,107.95C13.06,107.95 0,122.97 0,149.23L0,156.73C0,182.99 13.06,198 45.25,198Z M212.75,107.95L203.13,107.95L203.13,198L212.75,198C244.94,198 258,182.99 258,156.73L258,149.23C258,122.97 244.94,107.95 212.75,107.95Z M203.121 209L128.411 208.94L128.429 186.94L203.139 187L203.121 209Z M43.87 107.95L43.87 80.03Q43.87 58.2274 49.5174 41.2686Q55.2721 23.9874 66.7151 12.1273Q72.4093 6.22554 79.4132 1.79033Q86.284 -2.56054 94.3291 -5.44404Q109.83 -11 129.32 -11Q173.691 -11 195.081 14.4323Q205.153 26.4078 209.878 43.8309Q214.13 59.5108 214.13 80.03L214.13 107.95L192.13 107.95L192.13 80.03Q192.13 62.441 188.645 49.5891Q185.191 36.8523 178.244 28.5927Q174.754 24.4432 170.299 21.312Q165.663 18.0534 159.892 15.8315Q147.345 11 129.32 11Q113.654 11 101.752 15.2659Q90.2956 19.372 82.5474 27.4027Q74.5688 35.6721 70.3904 48.2195Q65.87 61.7942 65.87 80.03L65.87 107.95L43.87 107.95Z " /><path  id="拼合图形" style="stroke:#000000; stroke-width:22; stroke-opacity:1; stroke-dasharray:0 0" transform="translate(25 55)  rotate(0 129 99)" d="" /></g></g></svg>