<svg xmlns="http://www.w3.org/2000/svg" xmlns:xlink="http://www.w3.org/1999/xlink" width="308" height="308" viewBox="0 0 308 308" fill="none"><defs><rect id="path_0" x="0" y="0" width="308" height="308" /></defs><g opacity="1" transform="translate(0 0)  rotate(0 154 154)"><mask id="bg-mask-0" fill="white"><use xlink:href="#path_0"></use></mask><g mask="url(#bg-mask-0)" ><path  id="圆形 1" style="stroke:#000000; stroke-width:22; stroke-opacity:1; stroke-dasharray:0 0" transform="translate(72 49)  rotate(0 48.5 48.5)" d="M48.5,0C21.71,0 0,21.71 0,48.5C0,75.29 21.71,97 48.5,97C75.29,97 97,75.29 97,48.5C97,21.71 75.29,0 48.5,0Z " /><path  id="并集" style="stroke:#000000; stroke-width:22; stroke-opacity:1; stroke-dasharray:0 0" transform="translate(31 179)  rotate(0 89.5 40)" d="M0,40Z M179,40Z M44.39,80L134.98,80C166.29,80 179,65.45 179,40C179,14.55 166.29,0 134.98,0L44.39,0C18.42,0 0,11.82 0,40C0,68.18 18.42,80 44.39,80Z " /><path id="路径 1"  style="fill:#000000" transform="translate(216 106.5)  rotate(0 25.661310771000416 25.767130609231344)" opacity="1" d="M51.2906 -15.5563L43.5285 -7.76215L59.1168 7.76215L66.8789 -0.0320053L51.2906 -15.5563ZM43.526 -7.76228L-7.79404 43.7677L7.79404 59.2923L59.114 7.76228L43.526 -7.76228ZM-15.5563 51.5663L0.0320053 67.0906L7.79416 59.2964L-7.79416 43.7721L-15.5563 51.5663Z " /><path  id="路径 1" style="stroke:#000000; stroke-width:22; stroke-opacity:1; stroke-dasharray:0 0" transform="translate(216 106.5)  rotate(0 25.661310771000416 25.767130609231344)" d="" /><path id="路径 1"  style="fill:#000000" transform="translate(216.06 106.55)  rotate(0 25.603437731355058 25.714275124131426)" opacity="1" d="M-15.5563 -0.0335989L-7.79496 7.76136L0 0L-7.79483 7.76149L43.4128 59.1891L43.4119 59.1899L51.1733 66.9849L66.7632 51.4622L59.004 43.6694L59.0048 43.6685L7.79496 -7.76136L7.79483 -7.76149L0.0335989 -15.5563L-15.5563 -0.0335989Z " /><path  id="路径 1" style="stroke:#000000; stroke-width:22; stroke-opacity:1; stroke-dasharray:0 0" transform="translate(216.06 106.55)  rotate(0 25.603437731355058 25.714275124131426)" d="" /></g></g></svg>