<svg xmlns="http://www.w3.org/2000/svg" xmlns:xlink="http://www.w3.org/1999/xlink" width="308" height="308" viewBox="0 0 308 308" fill="none"><defs><rect id="path_0" x="0" y="0" width="308" height="308" /></defs><g opacity="1" transform="translate(0 0)  rotate(0 154 154)"><mask id="bg-mask-0" fill="white"><use xlink:href="#path_0"></use></mask><g mask="url(#bg-mask-0)" ><path  id="圆形 1" style="stroke:#000000; stroke-width:22; stroke-opacity:1; stroke-dasharray:0 0" transform="translate(124 77)  rotate(0 30 30)" d="M30,0C13.43,0 0,13.43 0,30C0,46.57 13.43,60 30,60C46.57,60 60,46.57 60,30C60,13.43 46.57,0 30,0Z " /><path  id="并集" style="stroke:#000000; stroke-width:22; stroke-opacity:1; stroke-dasharray:0 0" transform="translate(98 170)  rotate(0 56.00000000000001 24.5)" d="M0,24.5Z M112,24.5Z M27.21,49L85.01,49C104.21,49 112,40.09 112,24.5C112,8.91 104.21,0 85.01,0L27.21,0C11.29,0 0,7.24 0,24.5C0,41.76 11.29,49 27.21,49Z " /><path  id="并集" style="stroke:#000000; stroke-width:22; stroke-opacity:1; stroke-dasharray:0 0" transform="translate(39.402500000000146 39.402500000000146)  rotate(0 114.59775 114.59775)" d="M14.45,72.69C14.35,72.93 14.25,73.18 14.15,73.42L3.13,99.28C-1.04,109.07 -1.04,120.13 3.13,129.92L14.15,155.78C14.25,156.02 14.35,156.27 14.45,156.51L24.95,182.59C28.92,192.46 36.74,200.28 46.61,204.25L72.69,214.75C72.93,214.85 73.18,214.95 73.42,215.05L99.28,226.07C109.07,230.24 120.13,230.24 129.92,226.07L155.78,215.05C156.02,214.95 156.27,214.85 156.51,214.75L182.59,204.25C192.46,200.28 200.28,192.46 204.25,182.59L214.75,156.51C214.85,156.27 214.95,156.02 215.05,155.78L226.07,129.92C230.24,120.13 230.24,109.07 226.07,99.28L215.05,73.42C214.95,73.18 214.85,72.93 214.75,72.69L204.25,46.61C200.28,36.74 192.46,28.92 182.59,24.95L156.51,14.45C156.27,14.35 156.02,14.25 155.78,14.15L129.92,3.13C120.13,-1.04 109.07,-1.04 99.28,3.13L73.42,14.15C73.18,14.25 72.93,14.35 72.69,14.45L46.61,24.95C36.74,28.92 28.92,36.74 24.95,46.61L14.45,72.69Z " /></g></g></svg>