<svg xmlns="http://www.w3.org/2000/svg" xmlns:xlink="http://www.w3.org/1999/xlink" width="308" height="308" viewBox="0 0 308 308" fill="none"><defs><rect id="path_0" x="0" y="0" width="308" height="308" /></defs><g opacity="1" transform="translate(0 0)  rotate(0 154 154)"><mask id="bg-mask-0" fill="white"><use xlink:href="#path_0"></use></mask><g mask="url(#bg-mask-0)" ><path  id="并集" style="stroke:#000000; stroke-width:22; stroke-opacity:1; stroke-dasharray:0 0" transform="translate(37 64.00000137247844)  rotate(0 119.75 100.50099931376108)" d="M171.89,6.92C162.75,-2.22 147.97,-2.32 138.71,6.7L16.08,126.17L7,180L61.72,170.92L180.36,48.25C189.32,38.98 189.19,24.25 180.09,15.13L171.89,6.92Z M0,184.5C9.5,191.5 51.45,201 74.5,201C105.5,201 123.82,176.11 157.5,173C191.18,169.89 239.5,201 239.5,201 M22.15,124.88L61.72,164.85 " /></g></g></svg>