<svg xmlns="http://www.w3.org/2000/svg" xmlns:xlink="http://www.w3.org/1999/xlink" width="308" height="308" viewBox="0 0 308 308" fill="none"><defs><rect id="path_0" x="0" y="0" width="308" height="308" /></defs><g opacity="1" transform="translate(0 0)  rotate(0 154 154)"><mask id="bg-mask-0" fill="white"><use xlink:href="#path_0"></use></mask><g mask="url(#bg-mask-0)" ><path  id="圆形 1" style="stroke:#000000; stroke-width:22; stroke-opacity:1; stroke-dasharray:0 0" transform="translate(101 37)  rotate(0 53 53)" d="M53,0C23.73,0 0,23.73 0,53C0,82.27 23.73,106 53,106C82.27,106 106,82.27 106,53C106,23.73 82.27,0 53,0Z " /><path  id="并集" style="stroke:#000000; stroke-width:22; stroke-opacity:1; stroke-dasharray:0 0" transform="translate(45 179)  rotate(0 108.99999999999999 44)" d="M0,44Z M218,44Z M48.63,88L169.78,88C204.08,88 218,72 218,44C218,16 204.08,0 169.78,0L48.63,0C20.18,0 0,13 0,44C0,75 20.18,88 48.63,88Z " /></g></g></svg>