<svg xmlns="http://www.w3.org/2000/svg" xmlns:xlink="http://www.w3.org/1999/xlink" width="308" height="308" viewBox="0 0 308 308" fill="none"><defs><rect id="path_0" x="0" y="0" width="308" height="308" /></defs><g opacity="1" transform="translate(-0.00002441406240905053 0)  rotate(0 154 154)"><mask id="bg-mask-0" fill="white"><use xlink:href="#path_0"></use></mask><g mask="url(#bg-mask-0)" ><path  id="圆形 1" style="stroke:#000000; stroke-width:22; stroke-opacity:1; stroke-dasharray:0 0" transform="translate(129.5 39)  rotate(0 55 55)" d="M55,0C24.62,0 0,24.62 0,55C0,85.38 24.62,110 55,110C85.38,110 110,85.38 110,55C110,24.62 85.38,0 55,0Z " /><path id="圆形 1"  style="fill:#000000" transform="translate(68.79999999999995 68)  rotate(0 35.0999999999999 39.5)" opacity="1" d="M50.5916 13.1837Q51.7845 13.6708 53.0703 14.3588L57.053 6.91571L53.0759 14.3587L62.7776 19.5428L73.1459 0.139248L63.4441 -5.04488L63.4428 -5.04249Q61.1543 -6.26661 58.9084 -7.18372Q54.3467 -9.0701 49.4611 -10.0396Q44.5613 -11 39.59 -11Q34.4314 -11 29.4124 -9.97541Q24.5122 -8.97504 19.9056 -7.03131Q15.3855 -5.12409 11.3095 -2.37708Q7.27551 0.341574 3.82884 3.77982Q0.381322 7.21892 -2.34522 11.2449Q-5.10147 15.3147 -7.01544 19.8289Q-8.96674 24.4311 -9.97112 29.3277Q-11 34.3437 -11 39.5Q-11 44.6562 -9.97112 49.6723Q-8.96674 54.5688 -7.01544 59.1711Q-5.10147 63.6853 -2.34522 67.7551Q0.381309 71.7811 3.82884 75.2202Q7.2755 78.6584 11.3095 81.3771Q15.3855 84.1241 19.9056 86.0313Q24.5121 87.975 29.4124 88.9754Q34.4314 90 39.59 90Q44.6575 90 49.5969 89.0087Q54.4106 88.0426 58.9514 86.166Q63.5233 84.288 67.7016 81.496Q71.838 78.7384 75.3682 75.2082Q77.091 73.5043 78.7059 71.5349L78.7054 71.5344L85.684 63.0606L68.7017 49.0748L61.7089 57.566L70.518 64.8208L61.694 57.5851Q60.8055 58.6687 59.8118 59.6518Q57.822 61.6416 55.4784 63.204Q53.1291 64.7739 50.5486 65.834Q45.3075 68 39.59 68Q33.7626 68 28.4582 65.7618Q25.9078 64.6857 23.6046 63.1335Q21.3196 61.5935 19.3662 59.6448Q17.4132 57.6967 15.8705 55.4187Q14.3164 53.1238 13.2392 50.5833Q11 45.3021 11 39.5Q11 33.6979 13.2392 28.4167Q14.3164 25.8762 15.8705 23.5813Q17.4133 21.3033 19.3662 19.3552Q21.3196 17.4065 23.6046 15.8665Q25.9078 14.3143 28.4582 13.2382Q33.7626 11 39.59 11Q42.4256 11 45.1789 11.5396Q47.9408 12.0877 50.5916 13.1837Z " /><path  id="圆形 1" style="stroke:#000000; stroke-width:22; stroke-opacity:1; stroke-dasharray:0 0" transform="translate(68.79999999999995 68)  rotate(0 35.0999999999999 39.5)" d="" /><path  id="并集" style="stroke:#000000; stroke-width:22; stroke-opacity:1; stroke-dasharray:0 0" transform="translate(104 181)  rotate(0 81.49999999999999 44)" d="M48.63,88L114.78,88C149.08,88 163,72 163,44C163,16 149.08,0 114.78,0L48.63,0C20.18,0 0,13 0,44C0,75 20.18,88 48.63,88Z " /><path id="并集" fill-rule="evenodd" style="fill:#000000" transform="translate(44.30000000000018 187.5)  rotate(0 35.38849557522125 37.49999999999999)" opacity="1" d="M70.777 86L81.777 86L81.777 64L44.63 64Q39.4201 64 35.3227 63.7092Q31.0533 63.4063 27.7047 62.7709Q21.4482 61.5839 17.9972 59.1436Q16.4414 58.0434 15.3085 56.5843Q14.0671 54.9854 13.1911 52.7872Q11 47.2888 11 38Q11 28.6603 13.2172 22.9906Q14.1214 20.6784 15.4082 18.9689Q16.5865 17.4035 18.1896 16.2172Q21.6838 13.6315 27.8811 12.3504Q34.4133 11 44.63 11L81.777 11L81.777 -11L44.63 -11Q38.6461 -11 33.6712 -10.604Q28.1036 -10.1608 23.4274 -9.19411Q18.2049 -8.1145 13.8453 -6.33301Q9.0058 -4.35539 5.10292 -1.46722Q-3.26123 4.72233 -7.27187 14.9782Q-9.18884 19.8802 -10.1149 25.7535Q-11 31.3664 -11 38Q-11 44.6393 -10.1126 50.2182Q-9.18097 56.0756 -7.24584 60.9315Q-3.19157 71.1052 5.29531 77.1064Q9.20893 79.8738 14.0669 81.7372Q18.3937 83.3968 23.6037 84.3853Q28.2146 85.2601 33.7654 85.654Q38.6406 86 44.63 86L70.777 86Z " /><path  id="并集" style="stroke:#000000; stroke-width:22; stroke-opacity:1; stroke-dasharray:0 0" transform="translate(44.30000000000018 187.5)  rotate(0 35.38849557522125 37.49999999999999)" d="" /></g></g></svg>