<svg xmlns="http://www.w3.org/2000/svg" xmlns:xlink="http://www.w3.org/1999/xlink" width="308" height="308" viewBox="0 0 308 308" fill="none"><defs><rect id="path_0" x="0" y="0" width="308" height="308" /></defs><g opacity="1" transform="translate(0 0)  rotate(0 154 154)"><mask id="bg-mask-0" fill="white"><use xlink:href="#path_0"></use></mask><g mask="url(#bg-mask-0)" ><path  id="圆形 1" style="stroke:#000000; stroke-width:22; stroke-opacity:1; stroke-dasharray:0 0" transform="translate(100 39.5)  rotate(0 54 54)" d="M54,0C24.18,0 0,24.18 0,54C0,83.82 24.18,108 54,108C83.82,108 108,83.82 108,54C108,24.18 83.82,0 54,0Z " /><path id="圆形 1"  style="fill:#000000" transform="translate(40 67.5)  rotate(0 34.5 38.5)" opacity="1" d="M49.5915 13.0789Q50.9473 13.642 52.0971 14.2531L58.4035 2.38873L52.1138 14.2588L61.8336 19.4091L72.1342 -0.0304794L62.4144 -5.18078L62.4131 -5.17832Q60.3444 -6.27727 58.0285 -7.23893Q53.425 -9.11615 48.6427 -10.0613Q43.8319 -11 38.92 -11Q33.8373 -11 28.8924 -9.99903Q24.063 -9.02144 19.5224 -7.12155Q15.0651 -5.25648 11.0447 -2.56938Q7.06363 0.091482 3.66108 3.4578Q0.25561 6.827 -2.43857 10.7725Q-5.16372 14.7634 -7.05668 19.1913Q-8.98747 23.7077 -9.9815 28.5138Q-11 33.4382 -11 38.5Q-11 43.5618 -9.9815 48.4862Q-8.98748 53.2923 -7.05668 57.8087Q-5.16373 62.2366 -2.43857 66.2275Q0.255616 70.173 3.66108 73.5422Q7.06362 76.9085 11.0447 79.5694Q15.0651 82.2565 19.5224 84.1216Q24.063 86.0214 28.8924 86.999Q33.8373 88 38.92 88Q43.9049 88 48.7648 87.0339Q53.5064 86.0913 57.9793 84.2593Q62.4687 82.4218 66.5914 79.7059Q70.682 76.9854 74.1646 73.5415Q75.9461 71.7798 77.4601 69.9505L77.4622 69.9523L84.4901 61.4901L67.5656 47.4344L60.5378 55.8966L67.8756 61.9907L60.5212 55.9121Q59.7029 56.9022 58.6954 57.8985Q56.7263 59.8457 54.4886 61.3341Q52.1539 62.8722 49.6407 63.9007Q44.5154 66 38.92 66Q33.2087 66 28.0144 63.8266Q25.5205 62.7831 23.2697 61.2787Q21.0394 59.788 19.1339 57.9028Q17.2316 56.0207 15.7297 53.8213Q14.2188 51.6087 13.1723 49.1607Q11 44.0793 11 38.5Q11 32.9207 13.1723 27.8393Q14.2188 25.3913 15.7297 23.1787Q17.2316 20.9793 19.1339 19.0972Q21.0394 17.212 23.2697 15.7213Q25.5206 14.2169 28.0144 13.1734Q33.2087 11 38.92 11Q41.7056 11 44.3773 11.5213Q47.081 12.0556 49.5915 13.0789Z " /><path  id="圆形 1" style="stroke:#000000; stroke-width:22; stroke-opacity:1; stroke-dasharray:0 0" transform="translate(40 67.5)  rotate(0 34.5 38.5)" d="" /><path  id="并集" style="stroke:#000000; stroke-width:22; stroke-opacity:1; stroke-dasharray:0 0" transform="translate(75 178.5)  rotate(0 79.5 43)" d="M47.43,86L111.96,86C145.42,86 159,70.36 159,43C159,15.64 145.42,0 111.96,0L47.43,0C19.68,0 0,12.7 0,43C0,73.3 19.68,86 47.43,86Z " /><path id="并集" fill-rule="evenodd" style="fill:#000000" transform="translate(16 184.5)  rotate(0 34.5 36.5)" opacity="1" d="M43.62 84L80 84L80 62L43.62 62Q38.5345 62 34.5365 61.7175Q30.3754 61.4235 27.1142 60.8073Q21.0459 59.6608 17.7146 57.3149Q16.2261 56.2667 15.1442 54.879Q13.9573 53.3565 13.1176 51.258Q11 45.9658 11 36.99Q11 27.9595 13.1441 22.4977Q14.0122 20.2865 15.2447 18.6556Q16.3719 17.1641 17.9074 16.0324Q21.2802 13.5467 27.2896 12.3098Q33.6532 11 43.62 11L80 11L80 -11L43.62 -11Q37.7627 -11 32.8923 -10.6141Q27.4375 -10.1818 22.8545 -9.23853Q17.7306 -8.18392 13.4511 -6.44248Q8.69402 -4.5067 4.85515 -1.67744Q-3.38363 4.39455 -7.33443 14.4585Q-9.22056 19.2631 -10.1311 25.016Q-11 30.5058 -11 36.99Q-11 43.4783 -10.1287 48.9341Q-9.21246 54.6713 -7.30792 59.431Q-3.313 69.4149 5.0479 75.3026Q8.89728 78.0133 13.6721 79.8371Q17.919 81.4593 23.0299 82.4249Q27.5484 83.2786 32.9858 83.6628Q37.7582 84 43.62 84Z " /><path  id="并集" style="stroke:#000000; stroke-width:22; stroke-opacity:1; stroke-dasharray:0 0" transform="translate(16 184.5)  rotate(0 34.5 36.5)" d="" /><path id="圆形 1"  style="fill:#000000" transform="translate(199 67.5)  rotate(0 34.5 38.5)" opacity="1" d="M16.8862 14.2588L7.16643 19.4091L-3.13418 -0.030478L6.58562 -5.18078L6.58692 -5.17833Q8.65561 -6.27727 10.9715 -7.23893Q15.575 -9.11615 20.3573 -10.0613Q25.1681 -11 30.08 -11Q35.1627 -11 40.1076 -9.99903Q44.937 -9.02144 49.4776 -7.12155Q53.9349 -5.25648 57.9553 -2.56938Q61.9364 0.0914873 65.3389 3.4578Q68.7444 6.82699 71.4386 10.7725Q74.1637 14.7634 76.0567 19.1913Q77.9875 23.7077 78.9815 28.5138Q80 33.4382 80 38.5Q80 43.5618 78.9815 48.4862Q77.9875 53.2922 76.0567 57.8087Q74.1637 62.2366 71.4386 66.2275Q68.7444 70.173 65.3389 73.5422Q61.9364 76.9085 57.9553 79.5694Q53.9349 82.2565 49.4776 84.1216Q44.937 86.0214 40.1076 86.999Q35.1627 88 30.08 88Q25.0951 88 20.2352 87.0339Q15.4936 86.0913 11.0207 84.2593Q6.53131 82.4218 2.4086 79.7059Q-1.68208 76.9853 -5.1646 73.5415Q-6.9461 71.7798 -8.46006 69.9505L-8.46223 69.9523L-15.4901 61.4901L1.43437 47.4344L8.46223 55.8966L1.12395 61.991L8.47874 55.9121Q9.29708 56.9022 10.3046 57.8985Q12.2737 59.8457 14.5114 61.3341Q16.8462 62.8722 19.3593 63.9007Q24.4846 66 30.08 66Q35.7913 66 40.9856 63.8266Q43.4795 62.7831 45.7303 61.2787Q47.9606 59.788 49.8661 57.9028Q51.7684 56.0207 53.2703 53.8213Q54.7812 51.6087 55.8277 49.1607Q58 44.0793 58 38.5Q58 32.9207 55.8277 27.8393Q54.7812 25.3913 53.2703 23.1787Q51.7684 20.9793 49.8661 19.0972Q47.9606 17.212 45.7303 15.7213Q43.4794 14.2169 40.9856 13.1734Q35.7913 11 30.08 11Q27.2944 11 24.6227 11.5213Q21.919 12.0556 19.4085 13.0789Q18.0527 13.6419 16.9028 14.2531L10.5958 2.38733L16.8862 14.2588Z " /><path  id="圆形 1" style="stroke:#000000; stroke-width:22; stroke-opacity:1; stroke-dasharray:0 0" transform="translate(199 67.5)  rotate(0 34.5 38.5)" d="" /><path id="并集" fill-rule="evenodd" style="fill:#000000" transform="translate(225 184.5)  rotate(0 33.5 36.5)" opacity="1" d="M-11 -11L-11 11L23.38 11Q33.3468 11 39.7104 12.3098Q45.7198 13.5467 49.0926 16.0324Q50.6281 17.1641 51.7553 18.6556Q52.9878 20.2865 53.8559 22.4977Q56 27.9595 56 36.99Q56 45.9658 53.8824 51.258Q53.0427 53.3565 51.8558 54.879Q50.7739 56.2667 49.2854 57.3149Q45.9541 59.6608 39.8858 60.8073Q36.6246 61.4235 32.4635 61.7175Q28.4655 62 23.38 62L-11 62L-11 84L23.38 84Q29.2418 84 34.0142 83.6628Q39.4516 83.2786 43.9701 82.4249Q49.081 81.4593 53.3279 79.8371Q58.1027 78.0133 61.9521 75.3026Q70.313 69.4149 74.3079 59.431Q76.2125 54.6713 77.1287 48.9341Q78 43.4784 78 36.99Q78 30.5058 77.1311 25.016Q76.2206 19.2631 74.3344 14.4585Q70.3836 4.39455 62.1449 -1.67744Q58.306 -4.5067 53.5489 -6.44248Q49.2694 -8.18392 44.1455 -9.23853Q39.5625 -10.1818 34.1077 -10.6141Q29.2373 -11 23.38 -11L-11 -11Z " /><path  id="并集" style="stroke:#000000; stroke-width:22; stroke-opacity:1; stroke-dasharray:0 0" transform="translate(225 184.5)  rotate(0 33.5 36.5)" d="" /></g></g></svg>