<svg xmlns="http://www.w3.org/2000/svg" xmlns:xlink="http://www.w3.org/1999/xlink" width="308" height="308" viewBox="0 0 308 308" fill="none"><defs><rect id="path_0" x="0" y="0" width="308" height="308" /></defs><g opacity="1" transform="translate(0 0)  rotate(0 154 154)"><mask id="bg-mask-0" fill="white"><use xlink:href="#path_0"></use></mask><g mask="url(#bg-mask-0)" ><path id="并集"  style="fill:#000000" transform="translate(45 44)  rotate(0 80.97752808988761 65.32022471910112)" opacity="1" d="" /><path  id="并集" style="stroke:#000000; stroke-width:22; stroke-opacity:1; stroke-dasharray:0 0" transform="translate(45 44)  rotate(0 80.97752808988761 65.32022471910112)" d="" /><path  id="并集" style="stroke:#000000; stroke-width:22; stroke-opacity:1; stroke-dasharray:0 0" transform="translate(92 127)  rotate(0 85.5 68.99999999999999)" d="M171,63.06L171,40.21C171,11.88 152.57,0 126.58,0L44.05,0C12.72,0 0,14.62 0,40.21L0,63.06L0,97.79C0,123.38 12.72,138 44.05,138L54.9,138L126.58,138L171,138C171,138 171,126.12 171,97.79L171,63.06Z " /><path id="路径 1"  style="fill:#000000" transform="translate(141.5 184.5)  rotate(0 0.00023376471581570968 11.5)" opacity="1" d="M10.9998 -11.0002L11 -0.000223601L0 0L11 0L11 22.9998L11.0005 22.9998L11.0007 33.9998L-10.9993 34.0002L-10.9995 23.0002L0.0004673 23L-11 23L-11 0L-11.0002 -10.9998L10.9998 -11.0002Z " /><path  id="路径 1" style="stroke:#000000; stroke-width:22; stroke-opacity:1; stroke-dasharray:0 0" transform="translate(141.5 184.5)  rotate(0 0.00023376471581570968 11.5)" d="" /><path id="路径 1"  style="fill:#000000" transform="translate(213.49953247056692 184.5)  rotate(0 0.00023376471582992053 11.5)" opacity="1" d="M10.9998 -11.0002L11 -0.000223601L0 0L11 0L11 22.9998L11.0005 22.9998L11.0007 33.9998L-10.9993 34.0002L-10.9995 23.0002L0.0004673 23L-11 23L-11 0L-11.0002 -10.9998L10.9998 -11.0002Z " /><path  id="路径 1" style="stroke:#000000; stroke-width:22; stroke-opacity:1; stroke-dasharray:0 0" transform="translate(213.49953247056692 184.5)  rotate(0 0.00023376471582992053 11.5)" d="" /><path id="路径 1"  style="fill:#000000" transform="translate(177.49953247056692 184.5)  rotate(0 0.00023376471581570968 11.5)" opacity="1" d="M10.9998 -11.0002L11 -0.000223601L0 0L11 0L11 22.9998L11.0005 22.9998L11.0007 33.9998L-10.9993 34.0002L-10.9995 23.0002L0.0004673 23L-11 23L-11 0L-11.0002 -10.9998L10.9998 -11.0002Z " /><path  id="路径 1" style="stroke:#000000; stroke-width:22; stroke-opacity:1; stroke-dasharray:0 0" transform="translate(177.49953247056692 184.5)  rotate(0 0.00023376471581570968 11.5)" d="" /></g></g></svg>