<svg xmlns="http://www.w3.org/2000/svg" xmlns:xlink="http://www.w3.org/1999/xlink" width="308" height="308" viewBox="0 0 308 308" fill="none"><defs><rect id="path_0" x="0" y="0" width="308" height="308" /></defs><g opacity="1" transform="translate(0 0)  rotate(0 154 154)"><mask id="bg-mask-0" fill="white"><use xlink:href="#path_0"></use></mask><g mask="url(#bg-mask-0)" ><path  id="圆形 1" style="stroke:#000000; stroke-width:22; stroke-opacity:1; stroke-dasharray:0 0" transform="translate(40.5 40.5)  rotate(0 113.5 113.5)" d="M113.5,0C50.82,0 0,50.82 0,113.5C0,176.18 50.82,227 113.5,227C176.18,227 227,176.18 227,113.5C227,50.82 176.18,0 113.5,0Z " /><path id="圆形 1"  style="fill:#000000" transform="translate(109.5 189)  rotate(0 44.499999999999915 10.035481316575597)" opacity="1" d="M80.8989 -7.44125L80.8982 -7.44045Q77.3285 -3.55441 73.1676 -0.493622Q68.9982 2.57351 64.3946 4.69376Q59.7361 6.83933 54.7913 7.9411Q49.7248 9.07 44.5 9.07Q39.2752 9.07 34.2087 7.94111Q29.2639 6.83933 24.6054 4.69376Q20.0018 2.57351 15.8323 -0.493621Q11.6715 -3.55441 8.10183 -7.44045L8.1011 -7.44125L0.66138 -15.5423L-15.5423 -0.66138L-8.10183 7.44045L-0.0192574 0.0176853L-8.1011 7.44125Q-3.08602 12.901 2.79608 17.228Q8.76713 21.6204 15.4021 24.6762Q22.1905 27.8028 29.4241 29.4145Q36.8539 31.07 44.5 31.07Q52.1461 31.07 59.5759 29.4145Q66.8095 27.8028 73.5979 24.6762Q80.2329 21.6204 86.2039 17.228Q92.086 12.9011 97.1011 7.44125L89 0L97.1018 7.44045L104.542 -0.661385L88.3386 -15.5423L80.8989 -7.44125Z " /><path  id="圆形 1" style="stroke:#000000; stroke-width:22; stroke-opacity:1; stroke-dasharray:0 0" transform="translate(109.5 189)  rotate(0 44.499999999999915 10.035481316575597)" d="" /><path id="路径 1"  style="fill:#000000" transform="translate(116 98.99999999999933)  rotate(0 0 22.000000000000718)" opacity="1" d="M11 -11L11 55L-11 55L-11 -11L11 -11Z " /><path  id="路径 1" style="stroke:#000000; stroke-width:22; stroke-opacity:1; stroke-dasharray:0 0" transform="translate(116 98.99999999999933)  rotate(0 0 22.000000000000718)" d="" /><path id="路径 1"  style="fill:#000000" transform="translate(192 98.99999999999933)  rotate(0 0 22.000000000000718)" opacity="1" d="M11 -11L11 55L-11 55L-11 -11L11 -11Z " /><path  id="路径 1" style="stroke:#000000; stroke-width:22; stroke-opacity:1; stroke-dasharray:0 0" transform="translate(192 98.99999999999933)  rotate(0 0 22.000000000000718)" d="" /></g></g></svg>