<svg xmlns="http://www.w3.org/2000/svg" xmlns:xlink="http://www.w3.org/1999/xlink" width="308" height="308" viewBox="0 0 308 308" fill="none"><defs><rect id="path_0" x="0" y="0" width="308" height="308" /></defs><g opacity="1" transform="translate(0 0)  rotate(0 154 154)"><mask id="bg-mask-0" fill="white"><use xlink:href="#path_0"></use></mask><g mask="url(#bg-mask-0)" ><path  id="并集" style="stroke:#000000; stroke-width:22; stroke-opacity:1; stroke-dasharray:0 0" transform="translate(41 60)  rotate(0 113 93.99999999999997)" d="M0,144C0,175 20,188 48.2,188L178.2,188C212.2,188 226,172 226,144L226,69L226,44C226,16 212.2,0 178.2,0L48.2,0C20,0 0,13 0,44L0,69L0,144Z " /><path id="路径 1"  style="fill:#000000" transform="translate(48.44 75)  rotate(0 105.55507060194876 38.06527003849324)" opacity="1" d="M218.13 8.46925L226.599 1.44991L212.56 -15.4886L204.091 -8.46928L213.633 3.04397L204.09 -8.46907L122.796 58.914Q118.887 62.0359 114.472 63.618Q110.26 65.1275 105.89 65.1275Q101.525 65.1275 97.3313 63.6209Q92.9418 62.0439 89.0812 58.9442L6.90122 -7.26581L6.89892 -7.26295L-1.66491 -14.1623L-15.467 2.96962L-6.90105 9.87067L-6.89874 9.86781L75.2788 76.0758Q82.0386 81.5036 89.8931 84.3253Q97.6929 87.1275 105.89 87.1275Q114.083 87.1275 121.894 84.3283Q129.754 81.5116 136.524 76.106L218.13 8.46925Z " /><path  id="路径 1" style="stroke:#000000; stroke-width:22; stroke-opacity:1; stroke-dasharray:0 0" transform="translate(48.44 75)  rotate(0 105.55507060194876 38.06527003849324)" d="" /></g></g></svg>