<svg xmlns="http://www.w3.org/2000/svg" xmlns:xlink="http://www.w3.org/1999/xlink" width="308" height="308" viewBox="0 0 308 308" fill="none"><defs><rect id="path_0" x="0" y="0" width="308" height="308" /></defs><g opacity="1" transform="translate(0 0)  rotate(0 154 154)"><mask id="bg-mask-0" fill="white"><use xlink:href="#path_0"></use></mask><g mask="url(#bg-mask-0)" ><path id="拼合图形" fill-rule="evenodd" style="fill:#000000" transform="translate(41 41)  rotate(0 113.5 113.5)" opacity="1" d="M110.5,54.5C78.19,54.5 52,80.92 52,113.5C52,146.08 78.19,172.5 110.5,172.5C142.81,172.5 169,146.08 169,113.5C169,80.92 142.81,54.5 110.5,54.5Z M179.999 113.647Q179.896 121.362 182.021 127.283Q184.044 132.922 188.091 136.795Q192.476 140.994 199.372 143.283Q207.375 145.94 218.39 145.94L218.39 156.94L208.229 152.725Q212.035 143.551 213.992 133.808Q216 123.807 216 113.5Q216 103.009 213.917 92.8325Q211.889 82.9226 207.949 73.6078Q204.079 64.4584 198.5 56.201Q192.971 48.0177 185.977 41.0232Q178.982 34.0287 170.799 28.4999Q162.542 22.9211 153.392 19.0509Q144.077 15.1108 134.167 13.0827Q123.991 11 113.5 11Q103.009 11 92.8325 13.0827Q82.9227 15.1108 73.6078 19.0509Q64.4584 22.9211 56.201 28.4999Q48.0178 34.0286 41.0232 41.0232Q34.0286 48.0177 28.4999 56.201Q22.9211 64.4584 19.0509 73.6078Q15.1108 82.9227 13.0827 92.8325Q11 103.009 11 113.5Q11 123.991 13.0827 134.167Q15.1108 144.077 19.0509 153.392Q22.9211 162.542 28.4999 170.799Q34.0287 178.982 41.0232 185.977Q48.0177 192.971 56.201 198.5Q64.4584 204.079 73.6078 207.949Q82.9226 211.889 92.8325 213.917Q103.009 216 113.5 216Q123.807 216 133.808 213.992Q143.551 212.035 152.725 208.229Q162.071 204.358 170.506 198.702Q178.852 193.105 185.986 185.978L201.534 201.542Q192.885 210.183 182.759 216.973Q172.51 223.847 161.155 228.551Q149.993 233.18 138.14 235.561Q125.994 238 113.5 238Q100.781 238 88.4216 235.471Q76.3676 233.004 65.0372 228.211Q53.9162 223.507 43.8849 216.73Q33.9533 210.02 25.4668 201.533Q16.9803 193.047 10.2704 183.115Q3.49322 173.084 -1.21094 161.963Q-6.00368 150.632 -8.47054 138.578Q-11 126.219 -11 113.5Q-11 100.781 -8.47055 88.4216Q-6.00369 76.3677 -1.21094 65.0372Q3.4932 53.9162 10.2704 43.8849Q16.9803 33.9533 25.4668 25.4668Q33.9533 16.9803 43.8849 10.2704Q53.9162 3.4932 65.0372 -1.21094Q76.3676 -6.00367 88.4216 -8.47054Q100.781 -11 113.5 -11Q126.219 -11 138.578 -8.47055Q150.632 -6.00369 161.963 -1.21094Q173.084 3.49322 183.115 10.2704Q193.047 16.9803 201.533 25.4668Q210.02 33.9533 216.73 43.8849Q223.507 53.9162 228.211 65.0372Q233.004 76.3676 235.471 88.4216Q238 100.781 238 113.5Q238 125.994 235.561 138.14Q233.18 149.993 228.551 161.155L225.736 167.94L218.39 167.94Q203.818 167.94 192.44 164.163Q180.842 160.313 172.877 152.687Q168.941 148.919 166.006 144.32Q163.162 139.864 161.314 134.714Q157.844 125.047 158.001 113.353L179.999 113.647Z M187.536 57.0876Q186.256 62.8188 185.465 66.7224Q184.08 73.5678 183.052 80.0559Q180.208 98.0087 179.999 113.647L158.001 113.353Q158.232 96.1307 161.323 76.6141Q162.424 69.6629 163.903 62.3576Q164.737 58.2386 166.064 52.2924L187.536 57.0876Z " /><path  id="拼合图形" style="stroke:#000000; stroke-width:22; stroke-opacity:1; stroke-dasharray:0 0" transform="translate(41 41)  rotate(0 113.5 113.5)" d="" /></g></g></svg>