<svg xmlns="http://www.w3.org/2000/svg" xmlns:xlink="http://www.w3.org/1999/xlink" width="308" height="308" viewBox="0 0 308 308" fill="none"><defs><rect id="path_0" x="0" y="0" width="308" height="308" /></defs><g opacity="1" transform="translate(0 0)  rotate(0 154 154)"><mask id="bg-mask-0" fill="white"><use xlink:href="#path_0"></use></mask><g mask="url(#bg-mask-0)" ><path  id="并集" style="stroke:#000000; stroke-width:22; stroke-opacity:1; stroke-dasharray:0 0" transform="translate(42.5 46)  rotate(0 44.5 43.5)" d="M45.21,87C76.36,87 89,72.5 89,47.12L89,43.5L89,39.87C89,14.5 76.36,0 45.21,0L44.16,0C18.32,0 0,11.78 0,39.87L0,43.5L0,47.12C0,75.22 18.32,87 44.16,87L45.21,87Z " /><path  id="并集" style="stroke:#000000; stroke-width:22; stroke-opacity:1; stroke-dasharray:0 0" transform="translate(42.5 175)  rotate(0 44.5 43.5)" d="M0,47.12C0,75.22 18.32,87 44.16,87L45.21,87C76.36,87 89,72.5 89,47.12L89,43.5L89,39.87C89,14.5 76.36,0 45.21,0L44.16,0C18.32,0 0,11.78 0,39.87L0,43.5L0,47.12Z " /><path  id="并集" style="stroke:#000000; stroke-width:22; stroke-opacity:1; stroke-dasharray:0 0" transform="translate(176.5 46)  rotate(0 44.5 43.5)" d="M45.21,0L44.16,0C18.32,0 0,11.78 0,39.87L0,43.5L0,47.12C0,75.22 18.32,87 44.16,87L45.21,87C76.36,87 89,72.5 89,47.12L89,43.5L89,39.87C89,14.5 76.36,0 45.21,0Z " /><path id="路径 1"  style="fill:#000000" transform="translate(187 179.79309272530858)  rotate(0 0 41.10345363734565)" opacity="1" d="M11 -11L11 93.2069L-11 93.2069L-11 -11L11 -11Z " /><path  id="路径 1" style="stroke:#000000; stroke-width:22; stroke-opacity:1; stroke-dasharray:0 0" transform="translate(187 179.79309272530858)  rotate(0 0 41.10345363734565)" d="" /><path id="路径 1"  style="fill:#000000" transform="translate(250 179.79309272530858)  rotate(0 0 41.10345363734565)" opacity="1" d="M11 -11L11 93.2069L-11 93.2069L-11 -11L11 -11Z " /><path  id="路径 1" style="stroke:#000000; stroke-width:22; stroke-opacity:1; stroke-dasharray:0 0" transform="translate(250 179.79309272530858)  rotate(0 0 41.10345363734565)" d="" /></g></g></svg>