<svg xmlns="http://www.w3.org/2000/svg" xmlns:xlink="http://www.w3.org/1999/xlink" width="308" height="308" viewBox="0 0 308 308" fill="none"><defs><rect id="path_0" x="0" y="0" width="308" height="308" /></defs><g opacity="1" transform="translate(0 0)  rotate(0 154 154)"><mask id="bg-mask-0" fill="white"><use xlink:href="#path_0"></use></mask><g mask="url(#bg-mask-0)" ><path  id="并集" style="stroke:#000000; stroke-width:22; stroke-opacity:1; stroke-dasharray:0 0" transform="translate(40 53)  rotate(0 114 109.00000000000001)" d="M103.5,213.5C109.5,219.5 118.5,219.5 124.75,213.5L147.5,191L179.78,191C214.08,191 228,175 228,147L228,109L228,44C228,16 214.08,0 179.78,0L48.63,0C20.18,0 0,13 0,44L0,109L0,147C0,178 20.18,191 48.63,191L81,191L103.5,213.5Z " /><path id="拼合图形" fill-rule="evenodd" style="fill:#000000" transform="translate(86 92)  rotate(0 70 60)" opacity="1" d="M14.27 18.65L140 18.65L140 40.65L14.27 40.65L14.27 18.65Z M64.1421 1.91457L42.9321 121.915L21.2679 118.085L42.4779 -1.91457L64.1421 1.91457Z M117.652 1.91457L96.4421 121.915L74.7779 118.085L95.9879 -1.91457L117.652 1.91457Z M0 77.94L125.73 77.94L125.73 99.94L0 99.94L0 77.94Z " /><path  id="拼合图形" style="stroke:#000000; stroke-width:22; stroke-opacity:1; stroke-dasharray:0 0" transform="translate(86 92)  rotate(0 70 60)" d="" /></g></g></svg>