<svg xmlns="http://www.w3.org/2000/svg" xmlns:xlink="http://www.w3.org/1999/xlink" width="308" height="308" viewBox="0 0 308 308" fill="none"><defs><rect id="path_0" x="0" y="0" width="308" height="308" /></defs><g opacity="1" transform="translate(0 0)  rotate(0 154 154)"><mask id="bg-mask-0" fill="white"><use xlink:href="#path_0"></use></mask><g mask="url(#bg-mask-0)" ><path id="路径 1"  style="fill:#000000" transform="translate(268 121)  rotate(0 0.5 33)" opacity="1" d="M10.9998 -11.0002L11 -0.000166667L0 0L11 0L11 65.9998L11.001 65.9998L11.0012 76.9998L-10.9988 77.0002L-10.999 66.0002L0.000999451 66L-11 66L-11 0L-11.0002 -10.9998L10.9998 -11.0002Z " /><path  id="路径 1" style="stroke:#000000; stroke-width:22; stroke-opacity:1; stroke-dasharray:0 0" transform="translate(268 121)  rotate(0 0.5 33)" d="" /><path  id="并集" style="stroke:#000000; stroke-width:22; stroke-opacity:1; stroke-dasharray:0 0" transform="translate(37 85)  rotate(0 93.99999999999999 69)" d="M188,69L188,44C188,16 174.08,0 139.78,0L48.63,0C20.18,0 0,13 0,44L0,69L0,94C0,125 20.18,138 48.63,138L139.78,138C174.08,138 188,122 188,94L188,69Z " /></g></g></svg>