<svg xmlns="http://www.w3.org/2000/svg" xmlns:xlink="http://www.w3.org/1999/xlink" width="308" height="308" viewBox="0 0 308 308" fill="none"><defs><rect id="path_0" x="0" y="0" width="308" height="308" /></defs><g opacity="1" transform="translate(0 0)  rotate(0 154 154)"><mask id="bg-mask-0" fill="white"><use xlink:href="#path_0"></use></mask><g mask="url(#bg-mask-0)" ><path  id="圆形 1" style="stroke:#000000; stroke-width:22; stroke-opacity:1; stroke-dasharray:0 0" transform="translate(44 44)  rotate(0 110 110)" d="M110,0C49.25,0 0,49.25 0,110C0,170.75 49.25,220 110,220C170.75,220 220,170.75 220,110C220,49.25 170.75,0 110,0Z " /><path  id="圆形 1" style="stroke:#000000; stroke-width:22; stroke-opacity:1; stroke-dasharray:0 0" transform="translate(99 99)  rotate(0 55 55)" d="M55,0C24.62,0 0,24.62 0,55C0,85.38 24.62,110 55,110C85.38,110 110,85.38 110,55C110,24.62 85.38,0 55,0Z " /><path id="圆形 2" fill-rule="evenodd" style="fill:#000000" transform="translate(143 143)  rotate(0 11 11)" opacity="1" d="M11,0C4.92,0 0,4.92 0,11C0,17.08 4.92,22 11,22C17.08,22 22,17.08 22,11C22,4.92 17.08,0 11,0Z " /></g></g></svg>