<svg xmlns="http://www.w3.org/2000/svg" xmlns:xlink="http://www.w3.org/1999/xlink" width="308" height="308" viewBox="0 0 308 308" fill="none"><defs><rect id="path_0" x="0" y="0" width="308" height="308" /></defs><g opacity="1" transform="translate(0 0)  rotate(0 154 154)"><mask id="bg-mask-0" fill="white"><use xlink:href="#path_0"></use></mask><g mask="url(#bg-mask-0)" ><path id="并集"  style="fill:#000000" transform="translate(27 47)  rotate(0 104 107.49999999999999)" opacity="1" d="" /><path  id="并集" style="stroke:#000000; stroke-width:22; stroke-opacity:1; stroke-dasharray:0 0" transform="translate(27 47)  rotate(0 104 107.49999999999999)" d="" /><path  id="并集" style="stroke:#000000; stroke-width:22; stroke-opacity:1; stroke-dasharray:0 0" transform="translate(215 151)  rotate(0 35.5 55.5)" d="M0,26.98L0,46.61L0,84.02C0,103.03 12.25,111 29.52,111L38.59,111L41.72,111C62.55,111 71,101.19 71,84.02L71,46.61L71,26.98C71,9.81 62.55,0 41.72,0L29.52,0C12.25,0 0,7.97 0,26.98Z " /></g></g></svg>