<svg xmlns="http://www.w3.org/2000/svg" xmlns:xlink="http://www.w3.org/1999/xlink" width="308" height="308" viewBox="0 0 308 308" fill="none"><defs><rect id="path_0" x="0" y="0" width="308" height="308" /></defs><g opacity="1" transform="translate(0 0)  rotate(0 154 154)"><mask id="bg-mask-0" fill="white"><use xlink:href="#path_0"></use></mask><g mask="url(#bg-mask-0)" ><path id="路径 1"  style="fill:#000000" transform="translate(87.75 88.25)  rotate(0 31.75 31.75)" opacity="1" d="M14.51 11L74.5 11L74.5 -11L14.51 -11Q9.43452 -11 4.74566 -9.05723Q0.0590451 -7.11539 -3.52817 -3.52818Q-7.11539 0.0590427 -9.05723 4.74566Q-11 9.43452 -11 14.51L-11 74.5L11 74.5L11 14.51Q11 13.8118 11.2672 13.1668Q11.5345 12.5219 12.0282 12.0282Q12.5219 11.5345 13.1668 11.2672Q13.8118 11 14.51 11Z " /><path  id="路径 1" style="stroke:#000000; stroke-width:22; stroke-opacity:1; stroke-dasharray:0 0" transform="translate(87.75 88.25)  rotate(0 31.75 31.75)" d="" /><path id="路径 1"  style="fill:#000000" transform="translate(156.75 156.25)  rotate(0 31.75 31.75)" opacity="1" d="M52.5 -11L52.5 48.99Q52.5 49.6882 52.2328 50.3332Q51.9655 50.9781 51.4718 51.4718Q50.9781 51.9655 50.3332 52.2328Q49.6882 52.5 48.99 52.5L-11 52.5L-11 74.5L48.99 74.5Q54.0655 74.5 58.7543 72.5572Q63.441 70.6154 67.0282 67.0282Q70.6154 63.4409 72.5572 58.7543Q74.5 54.0655 74.5 48.99L74.5 -11L52.5 -11Z " /><path  id="路径 1" style="stroke:#000000; stroke-width:22; stroke-opacity:1; stroke-dasharray:0 0" transform="translate(156.75 156.25)  rotate(0 31.75 31.75)" d="" /><path  id="并集" style="stroke:#000000; stroke-width:22; stroke-opacity:1; stroke-dasharray:0 0" transform="translate(40 40)  rotate(0 114 114)" d="M48.63,0C20.18,0 0,13 0,44L0,109L0,184C0,215 20.18,228 48.63,228L179.78,228C214.08,228 228,212 228,184L228,109L228,44C228,16 214.08,0 179.78,0L48.63,0Z " /></g></g></svg>