<svg xmlns="http://www.w3.org/2000/svg" xmlns:xlink="http://www.w3.org/1999/xlink" width="308" height="308" viewBox="0 0 308 308" fill="none"><defs><rect id="path_0" x="0" y="0" width="308" height="308" /></defs><g opacity="1" transform="translate(0 0)  rotate(0 154 154)"><mask id="bg-mask-0" fill="white"><use xlink:href="#path_0"></use></mask><g mask="url(#bg-mask-0)" ><path  id="并集" style="stroke:#000000; stroke-width:22; stroke-opacity:1; stroke-dasharray:0 0" transform="translate(88 40)  rotate(0 66 92.93877551020408)" d="M0,126.61C0,168.37 27.18,185.88 65.5,185.88L67.05,185.88C113.25,185.88 132,164.33 132,126.61L132,92.94L132,59.27C132,21.55 113.25,0 67.05,0L65.5,0C27.18,0 0,17.51 0,59.27L0,92.94L0,126.61Z " /><path id="拼合图形" fill-rule="evenodd" style="fill:#000000" transform="translate(165 89)  rotate(0 27.5 43.50000000000001)" opacity="1" d="M0 -11L55 -11L55 11L0 11L0 -11Z M0 32.5L55 32.5L55 54.5L0 54.5L0 32.5Z M0 76L55 76L55 98L0 98L0 76Z " /><path  id="拼合图形" style="stroke:#000000; stroke-width:22; stroke-opacity:1; stroke-dasharray:0 0" transform="translate(165 89)  rotate(0 27.5 43.50000000000001)" d="" /><path id="路径 1"  style="fill:#000000" transform="translate(154 226)  rotate(0 0.5 29.5)" opacity="1" d="M10.9998 -11.0002L11 -0.000186441L0 0L11 0L11 58.9998L11.001 58.9998L11.0012 69.9998L-10.9988 70.0002L-10.999 59.0002L0.000999451 59L-11 59L-11 0L-11.0002 -10.9998L10.9998 -11.0002Z " /><path  id="路径 1" style="stroke:#000000; stroke-width:22; stroke-opacity:1; stroke-dasharray:0 0" transform="translate(154 226)  rotate(0 0.5 29.5)" d="" /></g></g></svg>