<svg xmlns="http://www.w3.org/2000/svg" xmlns:xlink="http://www.w3.org/1999/xlink" width="308" height="308" viewBox="0 0 308 308" fill="none"><defs><rect id="path_0" x="0" y="0" width="308" height="308" /></defs><g opacity="1" transform="translate(0 0)  rotate(0 154 154)"><mask id="bg-mask-0" fill="white"><use xlink:href="#path_0"></use></mask><g mask="url(#bg-mask-0)" ><path  id="并集" style="stroke:#000000; stroke-width:22; stroke-opacity:1; stroke-dasharray:0 0" transform="translate(41 60.55744125326419)  rotate(0 113.00000000000003 93.44255874673608)" d="M48.2,186.89L178.2,186.89C212.2,186.89 226,170.93 226,143L226,70.69L226,43.89C226,15.96 212.2,0 178.2,0L48.2,0C20,0 0,12.97 0,43.89L0,70.69L0,143C0,173.92 20,186.89 48.2,186.89Z " /><path id="路径 1"  style="fill:#000000" transform="translate(153.5 172.5)  rotate(-90 0.5 33)" opacity="1" d="M11 -11L11 77L-11 77L-11 -11L11 -11Z " /><path  id="路径 1" style="stroke:#000000; stroke-width:22; stroke-opacity:1; stroke-dasharray:0 0" transform="translate(153.5 172.5)  rotate(-90 0.5 33)" d="" /></g></g></svg>