<svg xmlns="http://www.w3.org/2000/svg" xmlns:xlink="http://www.w3.org/1999/xlink" width="308" height="308" viewBox="0 0 308 308" fill="none"><defs><rect id="path_0" x="0" y="0" width="308" height="308" /></defs><g opacity="1" transform="translate(0 0)  rotate(0 154 154)"><mask id="bg-mask-0" fill="white"><use xlink:href="#path_0"></use></mask><g mask="url(#bg-mask-0)" ><path  id="并集" style="stroke:#000000; stroke-width:22; stroke-opacity:1; stroke-dasharray:0 0" transform="translate(86 43.5)  rotate(0 68 110.5)" d="M136,44C136,16 122.2,0 88.2,0L48.2,0C20,0 0,13 0,44L0,76L0,177C0,208 20,221 48.2,221L63,221L88.2,221C122.2,221 136,205 136,177L136,76L136,44Z " /><path id="路径 1"  style="fill:#000000" transform="translate(153.9995 193.9994999999999)  rotate(-90 0.0005 23)" opacity="1" d="M11 -11L11 57L-11 57L-11 -11L11 -11Z " /><path  id="路径 1" style="stroke:#000000; stroke-width:22; stroke-opacity:1; stroke-dasharray:0 0" transform="translate(153.9995 193.9994999999999)  rotate(-90 0.0005 23)" d="" /></g></g></svg>