<svg xmlns="http://www.w3.org/2000/svg" xmlns:xlink="http://www.w3.org/1999/xlink" width="308" height="308" viewBox="0 0 308 308" fill="none"><defs><rect id="path_0" x="0" y="0" width="308" height="308" /></defs><g opacity="1" transform="translate(0 0)  rotate(0 154 154)"><mask id="bg-mask-0" fill="white"><use xlink:href="#path_0"></use></mask><g mask="url(#bg-mask-0)" ><path  id="并集" style="stroke:#000000; stroke-width:22; stroke-opacity:1; stroke-dasharray:0 0" transform="translate(65 40)  rotate(0 89.00000000000001 114)" d="M0,184C0,215 20.18,228 48.63,228L129.78,228C164.08,228 178,212 178,184L178,109L178,44C178,16 164.08,0 129.78,0L48.63,0C20.18,0 0,13 0,44L0,109L0,184Z " /><path id="路径 1"  style="fill:#000000" transform="translate(154.00000000000014 76.99999999999925)  rotate(0 23.33720206022993 23.337202060229927)" opacity="1" d="M0 -15.5563L54.4482 38.8918L38.8918 54.4482L-15.5563 0L0 -15.5563ZM62.2308 46.6744L54.4526 38.8962L38.8962 54.4526L46.6744 62.2308L62.2308 46.6744Z " /><path  id="路径 1" style="stroke:#000000; stroke-width:22; stroke-opacity:1; stroke-dasharray:0 0" transform="translate(154.00000000000014 76.99999999999925)  rotate(0 23.33720206022993 23.337202060229927)" d="" /><path id="路径 1"  style="fill:#000000" transform="translate(110.00000000000014 91.99999999999925)  rotate(0 39.99999999999993 40.00000000000038)" opacity="1" d="M0 -15.5563L95.5564 80L80 95.5564L-15.5563 0L0 -15.5563Z " /><path  id="路径 1" style="stroke:#000000; stroke-width:22; stroke-opacity:1; stroke-dasharray:0 0" transform="translate(110.00000000000014 91.99999999999925)  rotate(0 39.99999999999993 40.00000000000038)" d="" /></g></g></svg>