<svg xmlns="http://www.w3.org/2000/svg" xmlns:xlink="http://www.w3.org/1999/xlink" width="308" height="308" viewBox="0 0 308 308" fill="none"><defs><rect id="path_0" x="0" y="0" width="308" height="308" /></defs><g opacity="1" transform="translate(0 0)  rotate(0 154 154)"><mask id="bg-mask-0" fill="white"><use xlink:href="#path_0"></use></mask><g mask="url(#bg-mask-0)" ><path  id="并集" style="stroke:#000000; stroke-width:22; stroke-opacity:1; stroke-dasharray:0 0" transform="translate(40 77)  rotate(0 114 77)" d="M0,103.83C0,130.65 20.18,154 48.63,154L179.78,154C214.08,154 228,128.05 228,103.83L228,51.04C228,26.82 214.08,0 179.78,0L48.63,0C20.18,0 0,24.22 0,51.04L0,103.83Z " /><path id="路径 1"  style="fill:#000000" transform="translate(83 44)  rotate(0 0.0005000000000023874 11)" opacity="1" d="M10.9995 -11.0005L11 -0.0005L0 0L11 0L11 21.9995L11.001 21.9995L11.0015 32.9995L-10.9985 33.0005L-10.999 22.0005L-0.0199529 22L-11 22L-11 0L-11.0005 -10.9995L10.9995 -11.0005Z " /><path  id="路径 1" style="stroke:#000000; stroke-width:22; stroke-opacity:1; stroke-dasharray:0 0" transform="translate(83 44)  rotate(0 0.0005000000000023874 11)" d="" /><path id="路径 1"  style="fill:#000000" transform="translate(128.6663333333331 44)  rotate(0 0.0005000000000023874 11)" opacity="1" d="M10.9995 -11.0005L11 -0.0005L0 0L11 0L11 21.9995L11.001 21.9995L11.0015 32.9995L-10.9985 33.0005L-10.999 22.0005L-0.0199529 22L-11 22L-11 0L-11.0005 -10.9995L10.9995 -11.0005Z " /><path  id="路径 1" style="stroke:#000000; stroke-width:22; stroke-opacity:1; stroke-dasharray:0 0" transform="translate(128.6663333333331 44)  rotate(0 0.0005000000000023874 11)" d="" /><path id="路径 1"  style="fill:#000000" transform="translate(174.33266666666668 44)  rotate(0 0.0005000000000023874 11)" opacity="1" d="M10.9995 -11.0005L11 -0.0005L0 0L11 0L11 21.9995L11.001 21.9995L11.0015 32.9995L-10.9985 33.0005L-10.999 22.0005L-0.0199529 22L-11 22L-11 0L-11.0005 -10.9995L10.9995 -11.0005Z " /><path  id="路径 1" style="stroke:#000000; stroke-width:22; stroke-opacity:1; stroke-dasharray:0 0" transform="translate(174.33266666666668 44)  rotate(0 0.0005000000000023874 11)" d="" /><path id="路径 1"  style="fill:#000000" transform="translate(219.9989999999998 44)  rotate(0 0.0005000000000023874 11)" opacity="1" d="M10.9995 -11.0005L11 -0.0005L0 0L11 0L11 21.9995L11.001 21.9995L11.0015 32.9995L-10.9985 33.0005L-10.999 22.0005L-0.0199529 22L-11 22L-11 0L-11.0005 -10.9995L10.9995 -11.0005Z " /><path  id="路径 1" style="stroke:#000000; stroke-width:22; stroke-opacity:1; stroke-dasharray:0 0" transform="translate(219.9989999999998 44)  rotate(0 0.0005000000000023874 11)" d="" /><path id="路径 1"  style="fill:#000000" transform="translate(83 242)  rotate(0 0.0005000000000023874 11)" opacity="1" d="M10.9995 -11.0005L11 -0.0005L0 0L11 0L11 21.9995L11.001 21.9995L11.0015 32.9995L-10.9985 33.0005L-10.999 22.0005L-0.0199529 22L-11 22L-11 0L-11.0005 -10.9995L10.9995 -11.0005Z " /><path  id="路径 1" style="stroke:#000000; stroke-width:22; stroke-opacity:1; stroke-dasharray:0 0" transform="translate(83 242)  rotate(0 0.0005000000000023874 11)" d="" /><path id="路径 1"  style="fill:#000000" transform="translate(128.6663333333331 242)  rotate(0 0.0005000000000023874 11)" opacity="1" d="M10.9995 -11.0005L11 -0.0005L0 0L11 0L11 21.9995L11.001 21.9995L11.0015 32.9995L-10.9985 33.0005L-10.999 22.0005L-0.0199529 22L-11 22L-11 0L-11.0005 -10.9995L10.9995 -11.0005Z " /><path  id="路径 1" style="stroke:#000000; stroke-width:22; stroke-opacity:1; stroke-dasharray:0 0" transform="translate(128.6663333333331 242)  rotate(0 0.0005000000000023874 11)" d="" /><path id="路径 1"  style="fill:#000000" transform="translate(174.33266666666668 242)  rotate(0 0.0005000000000023874 11)" opacity="1" d="M10.9995 -11.0005L11 -0.0005L0 0L11 0L11 21.9995L11.001 21.9995L11.0015 32.9995L-10.9985 33.0005L-10.999 22.0005L-0.0199529 22L-11 22L-11 0L-11.0005 -10.9995L10.9995 -11.0005Z " /><path  id="路径 1" style="stroke:#000000; stroke-width:22; stroke-opacity:1; stroke-dasharray:0 0" transform="translate(174.33266666666668 242)  rotate(0 0.0005000000000023874 11)" d="" /><path id="路径 1"  style="fill:#000000" transform="translate(219.9989999999998 242)  rotate(0 0.0005000000000023874 11)" opacity="1" d="M10.9995 -11.0005L11 -0.0005L0 0L11 0L11 21.9995L11.001 21.9995L11.0015 32.9995L-10.9985 33.0005L-10.999 22.0005L-0.0199529 22L-11 22L-11 0L-11.0005 -10.9995L10.9995 -11.0005Z " /><path  id="路径 1" style="stroke:#000000; stroke-width:22; stroke-opacity:1; stroke-dasharray:0 0" transform="translate(219.9989999999998 242)  rotate(0 0.0005000000000023874 11)" d="" /></g></g></svg>