<svg xmlns="http://www.w3.org/2000/svg" xmlns:xlink="http://www.w3.org/1999/xlink" width="308" height="308" viewBox="0 0 308 308" fill="none"><defs><rect id="path_0" x="0" y="0" width="308" height="308" /></defs><g opacity="1" transform="translate(0 0)  rotate(0 154 154)"><mask id="bg-mask-0" fill="white"><use xlink:href="#path_0"></use></mask><g mask="url(#bg-mask-0)" ><path id="路径 1"  style="fill:#000000" transform="translate(107.5 241)  rotate(0 0.0005000000000023874 11)" opacity="1" d="M10.9995 -11.0005L11 -0.0005L0 0L11 0L11 21.9995L11.001 21.9995L11.0015 32.9995L-10.9985 33.0005L-10.999 22.0005L-0.0199529 22L-11 22L-11 0L-11.0005 -10.9995L10.9995 -11.0005Z " /><path  id="路径 1" style="stroke:#000000; stroke-width:22; stroke-opacity:1; stroke-dasharray:0 0" transform="translate(107.5 241)  rotate(0 0.0005000000000023874 11)" d="" /><path id="路径 1"  style="fill:#000000" transform="translate(153.9994999999999 241)  rotate(0 0.0005000000000023874 11)" opacity="1" d="M10.9995 -11.0005L11 -0.0005L0 0L11 0L11 21.9995L11.001 21.9995L11.0015 32.9995L-10.9985 33.0005L-10.999 22.0005L-0.0199529 22L-11 22L-11 0L-11.0005 -10.9995L10.9995 -11.0005Z " /><path  id="路径 1" style="stroke:#000000; stroke-width:22; stroke-opacity:1; stroke-dasharray:0 0" transform="translate(153.9994999999999 241)  rotate(0 0.0005000000000023874 11)" d="" /><path id="路径 1"  style="fill:#000000" transform="translate(200.4989999999998 241)  rotate(0 0.0005000000000023874 11)" opacity="1" d="M10.9995 -11.0005L11 -0.0005L0 0L11 0L11 21.9995L11.001 21.9995L11.0015 32.9995L-10.9985 33.0005L-10.999 22.0005L-0.0199529 22L-11 22L-11 0L-11.0005 -10.9995L10.9995 -11.0005Z " /><path  id="路径 1" style="stroke:#000000; stroke-width:22; stroke-opacity:1; stroke-dasharray:0 0" transform="translate(200.4989999999998 241)  rotate(0 0.0005000000000023874 11)" d="" /><path id="路径 1"  style="fill:#000000" transform="translate(107.5 46)  rotate(0 0.0005000000000023874 11)" opacity="1" d="M-11 0L-11 22L0.0219518 22L-10.999 22.0005L-10.9985 33.0005L11.0015 32.9995L11.001 21.9995L11 21.9995L11 0L0 0L11 -0.0005L10.9995 -11.0005L-11.0005 -10.9995L-11 0Z " /><path  id="路径 1" style="stroke:#000000; stroke-width:22; stroke-opacity:1; stroke-dasharray:0 0" transform="translate(107.5 46)  rotate(0 0.0005000000000023874 11)" d="" /><path id="路径 1"  style="fill:#000000" transform="translate(153.9994999999999 46)  rotate(0 0.0005000000000023874 11)" opacity="1" d="M-11 0L-11 22L0.0219518 22L-10.999 22.0005L-10.9985 33.0005L11.0015 32.9995L11.001 21.9995L11 21.9995L11 0L0 0L11 -0.0005L10.9995 -11.0005L-11.0005 -10.9995L-11 0Z " /><path  id="路径 1" style="stroke:#000000; stroke-width:22; stroke-opacity:1; stroke-dasharray:0 0" transform="translate(153.9994999999999 46)  rotate(0 0.0005000000000023874 11)" d="" /><path id="路径 1"  style="fill:#000000" transform="translate(200.4989999999998 46)  rotate(0 0.0005000000000023874 11)" opacity="1" d="M-11 0L-11 22L0.0219518 22L-10.999 22.0005L-10.9985 33.0005L11.0015 32.9995L11.001 21.9995L11 21.9995L11 0L0 0L11 -0.0005L10.9995 -11.0005L-11.0005 -10.9995L-11 0Z " /><path  id="路径 1" style="stroke:#000000; stroke-width:22; stroke-opacity:1; stroke-dasharray:0 0" transform="translate(200.4989999999998 46)  rotate(0 0.0005000000000023874 11)" d="" /><path id="路径 1"  style="fill:#000000" transform="translate(252.9994999999999 99.0005000000001)  rotate(90 0.0005000000000023874 11)" opacity="1" d="M10.9995 -11.0005L11 -0.0005L0 0L11 0L11 21.9995L11.001 21.9995L11.0015 32.9995L-10.9985 33.0005L-10.999 22.0005L-0.0199529 22L-11 22L-11 0L-11.0005 -10.9995L10.9995 -11.0005Z " /><path  id="路径 1" style="stroke:#000000; stroke-width:22; stroke-opacity:1; stroke-dasharray:0 0" transform="translate(252.9994999999999 99.0005000000001)  rotate(90 0.0005000000000023874 11)" d="" /><path id="路径 1"  style="fill:#000000" transform="translate(252.9994999999999 145.5)  rotate(90 0.0005000000000023874 11)" opacity="1" d="M10.9995 -11.0005L11 -0.0005L0 0L11 0L11 21.9995L11.001 21.9995L11.0015 32.9995L-10.9985 33.0005L-10.999 22.0005L-0.0199529 22L-11 22L-11 0L-11.0005 -10.9995L10.9995 -11.0005Z " /><path  id="路径 1" style="stroke:#000000; stroke-width:22; stroke-opacity:1; stroke-dasharray:0 0" transform="translate(252.9994999999999 145.5)  rotate(90 0.0005000000000023874 11)" d="" /><path id="路径 1"  style="fill:#000000" transform="translate(252.9994999999999 191.9994999999999)  rotate(90 0.0005000000000023874 11)" opacity="1" d="M10.9995 -11.0005L11 -0.0005L0 0L11 0L11 21.9995L11.001 21.9995L11.0015 32.9995L-10.9985 33.0005L-10.999 22.0005L-0.0199529 22L-11 22L-11 0L-11.0005 -10.9995L10.9995 -11.0005Z " /><path  id="路径 1" style="stroke:#000000; stroke-width:22; stroke-opacity:1; stroke-dasharray:0 0" transform="translate(252.9994999999999 191.9994999999999)  rotate(90 0.0005000000000023874 11)" d="" /><path id="路径 1"  style="fill:#000000" transform="translate(54.9994999999999 99.0005000000001)  rotate(90 0.0005000000000023874 11)" opacity="1" d="M-11 0L-11 22L0.0219518 22L-10.999 22.0005L-10.9985 33.0005L11.0015 32.9995L11.001 21.9995L11 21.9995L11 0L0 0L11 -0.0005L10.9995 -11.0005L-11.0005 -10.9995L-11 0Z " /><path  id="路径 1" style="stroke:#000000; stroke-width:22; stroke-opacity:1; stroke-dasharray:0 0" transform="translate(54.9994999999999 99.0005000000001)  rotate(90 0.0005000000000023874 11)" d="" /><path id="路径 1"  style="fill:#000000" transform="translate(54.9994999999999 145.5)  rotate(90 0.0005000000000023874 11)" opacity="1" d="M-11 0L-11 22L0.0219518 22L-10.999 22.0005L-10.9985 33.0005L11.0015 32.9995L11.001 21.9995L11 21.9995L11 0L0 0L11 -0.0005L10.9995 -11.0005L-11.0005 -10.9995L-11 0Z " /><path  id="路径 1" style="stroke:#000000; stroke-width:22; stroke-opacity:1; stroke-dasharray:0 0" transform="translate(54.9994999999999 145.5)  rotate(90 0.0005000000000023874 11)" d="" /><path id="路径 1"  style="fill:#000000" transform="translate(54.9994999999999 191.9994999999999)  rotate(90 0.0005000000000023874 11)" opacity="1" d="M-11 0L-11 22L0.0219518 22L-10.999 22.0005L-10.9985 33.0005L11.0015 32.9995L11.001 21.9995L11 21.9995L11 0L0 0L11 -0.0005L10.9995 -11.0005L-11.0005 -10.9995L-11 0Z " /><path  id="路径 1" style="stroke:#000000; stroke-width:22; stroke-opacity:1; stroke-dasharray:0 0" transform="translate(54.9994999999999 191.9994999999999)  rotate(90 0.0005000000000023874 11)" d="" /><path  id="并集" style="stroke:#000000; stroke-width:22; stroke-opacity:1; stroke-dasharray:0 0" transform="translate(66.71054166070181 71.66347554503591)  rotate(0 87.28945833929815 82.33652445496465)" d="M41.46,0C17.2,0 0,11.08 0,37.51L0,63.21L0,127.16C0,153.59 17.2,164.67 41.46,164.67L133.46,164.67C162.71,164.67 174.58,151.03 174.58,127.16L174.58,63.21L174.58,37.51C174.58,13.64 162.71,0 133.46,0L41.46,0Z " /></g></g></svg>