<svg xmlns="http://www.w3.org/2000/svg" xmlns:xlink="http://www.w3.org/1999/xlink" width="308" height="308" viewBox="0 0 308 308" fill="none"><defs><rect id="path_0" x="0" y="0" width="308" height="308" /></defs><g opacity="1" transform="translate(0 0)  rotate(0 154 154)"><mask id="bg-mask-0" fill="white"><use xlink:href="#path_0"></use></mask><g mask="url(#bg-mask-0)" ><path  id="并集" style="stroke:#000000; stroke-width:22; stroke-opacity:1; stroke-dasharray:0 0" transform="translate(26.71 48.56)  rotate(0 126.61068786525371 107.22582398435607)" d="M234.79,214.44C250.29,214.88 257.79,199.44 250.29,185.66L230.29,156.89L182.49,156.89L72.49,156.89L24.29,156.89L4.29,185.44C-6.21,199.94 4.29,214.44 17.29,214.44L234.79,214.44Z M230.29,113L230.29,70.69L230.29,43.89C230.29,15.96 216.49,0 182.49,0L72.49,0C44.29,0 24.29,12.97 24.29,43.89L24.29,70.69L24.29,113L24.29,156.89L72.49,156.89L182.49,156.89L230.29,156.89L230.29,113Z " /></g></g></svg>