<svg xmlns="http://www.w3.org/2000/svg" xmlns:xlink="http://www.w3.org/1999/xlink" width="308" height="308" viewBox="0 0 308 308" fill="none"><defs><rect id="path_0" x="0" y="0" width="308" height="308" /></defs><g opacity="1" transform="translate(0 0)  rotate(0 154 154)"><mask id="bg-mask-0" fill="white"><use xlink:href="#path_0"></use></mask><g mask="url(#bg-mask-0)" ><path  id="圆形 1" style="stroke:#000000; stroke-width:22; stroke-opacity:1; stroke-dasharray:0 0" transform="translate(40.5 40.5)  rotate(0 113.5 113.5)" d="M113.5,0C50.82,0 0,50.82 0,113.5C0,176.18 50.82,227 113.5,227C176.18,227 227,176.18 227,113.5C227,50.82 176.18,0 113.5,0Z " /><path id="路径 1"  style="fill:#000000" transform="translate(154 87)  rotate(0 0.0005 46.5)" opacity="1" d="M10.9999 -11.0001L11 -0.00011828L0 0L11 0L11 93L11.001 92.9999L11.0011 104L-10.9989 104L-10.999 93.0001L0.355838 93L-11 93L-11 0L-11.0001 -10.9999L10.9999 -11.0001Z " /><path  id="路径 1" style="stroke:#000000; stroke-width:22; stroke-opacity:1; stroke-dasharray:0 0" transform="translate(154 87)  rotate(0 0.0005 46.5)" d="" /><path id="路径 1"  style="fill:#000000" transform="translate(154 219.94)  rotate(0 0.0005 0.03)" opacity="1" d="M-10.999 -11.0072L-10.999 -0.01L-11 -0.01L-11 0.06L-10.999 0.06L-10.999 11.06L11.001 11.06L11.001 0.06L11 0.06L11 -0.0071875L11.001 -0.0071875L11.001 -11.0072L-10.999 -11.0072Z " /><path  id="路径 1" style="stroke:#000000; stroke-width:22; stroke-opacity:1; stroke-dasharray:0 0" transform="translate(154 219.94)  rotate(0 0.0005 0.03)" d="" /></g></g></svg>