<svg xmlns="http://www.w3.org/2000/svg" xmlns:xlink="http://www.w3.org/1999/xlink" width="308" height="308" viewBox="0 0 308 308" fill="none"><defs><rect id="path_0" x="0" y="0" width="308" height="308" /></defs><g opacity="1" transform="translate(0 0)  rotate(0 154 154)"><mask id="bg-mask-0" fill="white"><use xlink:href="#path_0"></use></mask><g mask="url(#bg-mask-0)" ><path id="路径 1"  style="fill:#000000" transform="translate(154 117)  rotate(0 0.0005 31.5)" opacity="1" d="M10.9998 -11.0002L11 -0.000174603L0 0L11 0L11 62.9998L11.001 62.9998L11.0012 73.9998L-10.9988 74.0002L-10.999 63.0002L0.121879 63L-11 63L-11 0L-11.0002 -10.9998L10.9998 -11.0002Z " /><path  id="路径 1" style="stroke:#000000; stroke-width:22; stroke-opacity:1; stroke-dasharray:0 0" transform="translate(154 117)  rotate(0 0.0005 31.5)" d="" /><path id="路径 1"  style="fill:#000000" transform="translate(154 219.94)  rotate(0 0.0005 0.03)" opacity="1" d="M-10.999 -11.0072L-10.999 -0.01L-11 -0.01L-11 0.06L-10.999 0.06L-10.999 11.06L11.001 11.06L11.001 0.06L11 0.06L11 -0.0071875L11.001 -0.0071875L11.001 -11.0072L-10.999 -11.0072Z " /><path  id="路径 1" style="stroke:#000000; stroke-width:22; stroke-opacity:1; stroke-dasharray:0 0" transform="translate(154 219.94)  rotate(0 0.0005 0.03)" d="" /><path  id="路径 1" style="stroke:#000000; stroke-width:22; stroke-opacity:1; stroke-dasharray:0 0" transform="translate(41 38.96396396396398)  rotate(0 114 114)" d="M225.47,204.15L126.42,8.44C120.71,-2.82 106.97,-2.8 101.66,8.44L2.05,203.19C-3.94,214.52 3.68,228 18.52,228L210.01,228C224.68,228 232.3,215.06 225.47,204.15Z " /></g></g></svg>