<svg xmlns="http://www.w3.org/2000/svg" xmlns:xlink="http://www.w3.org/1999/xlink" width="308" height="308" viewBox="0 0 308 308" fill="none"><defs><rect id="path_0" x="0" y="0" width="308" height="308" /></defs><g opacity="1" transform="translate(-0.00001220703143189894 0)  rotate(0 154 154)"><mask id="bg-mask-0" fill="white"><use xlink:href="#path_0"></use></mask><g mask="url(#bg-mask-0)" ><path id="并集" fill-rule="evenodd" style="fill:#000000" transform="translate(32 72)  rotate(0 122.99999999999999 84)" opacity="1" d="M245.643 -15.5523L238.046 -7.59782L81.6615 156.124Q80.8039 157.009 79.8237 156.999Q79.3755 156.995 78.9536 156.818Q78.5371 156.643 78.3431 156.449L7.92308 83.3295L-7.92308 98.5905L62.4969 171.711Q65.9976 175.241 70.4467 177.107Q74.8471 178.952 79.6088 178.998Q84.5286 179.046 89.0751 177.165Q93.8009 175.209 97.4585 171.436L253.954 7.59789L245.062 -0.895746L253.954 7.59782L261.552 -0.356613L245.643 -15.5523ZM-15.5536 90.6657L-7.9229 98.5886L7.92289 83.3272L0.292183 75.4043L-15.5536 90.6657Z " /><path  id="并集" style="stroke:#000000; stroke-width:22; stroke-opacity:1; stroke-dasharray:0 0" transform="translate(32 72)  rotate(0 122.99999999999999 84)" d="" /></g></g></svg>