<svg xmlns="http://www.w3.org/2000/svg" xmlns:xlink="http://www.w3.org/1999/xlink" width="308" height="308" viewBox="0 0 308 308" fill="none"><defs><rect id="path_0" x="0" y="0" width="308" height="308" /></defs><g opacity="1" transform="translate(0 0)  rotate(0 154 154)"><mask id="bg-mask-0" fill="white"><use xlink:href="#path_0"></use></mask><g mask="url(#bg-mask-0)" ><path id="路径 1"  style="fill:#000000" transform="translate(60.38603696098539 60)  rotate(0 93.6139630390146 94.00000000000023)" opacity="1" d="M187.196 -15.5563L179.434 -7.76215L179.435 -7.76111L-7.79412 180.238L0 188L-7.79416 180.238L-15.5563 188.032L0.0320129 203.556L7.79416 195.762L195.024 7.7622L195.023 7.76116L202.784 -0.0320129L187.196 -15.5563Z " /><path  id="路径 1" style="stroke:#000000; stroke-width:22; stroke-opacity:1; stroke-dasharray:0 0" transform="translate(60.38603696098539 60)  rotate(0 93.6139630390146 94.00000000000023)" d="" /><path id="路径 1"  style="fill:#000000" transform="translate(60.59716119554472 60.19281990201934)  rotate(0 93.40283880445516 93.80718009798082)" opacity="1" d="M-15.5563 -0.0335989L-7.79496 7.76136L0 0L-7.79478 7.76154L179.015 195.372L179.011 195.376L186.772 203.171L202.362 187.648L194.601 179.853L185.039 189.374L194.605 179.848L7.79496 -7.76136L7.79478 -7.76154L0.0335989 -15.5563L-15.5563 -0.0335989Z " /><path  id="路径 1" style="stroke:#000000; stroke-width:22; stroke-opacity:1; stroke-dasharray:0 0" transform="translate(60.59716119554472 60.19281990201934)  rotate(0 93.40283880445516 93.80718009798082)" d="" /></g></g></svg>