<svg xmlns="http://www.w3.org/2000/svg" xmlns:xlink="http://www.w3.org/1999/xlink" width="308" height="308" viewBox="0 0 308 308" fill="none"><defs><rect id="path_0" x="0" y="0" width="308" height="308" /></defs><g opacity="1" transform="translate(0 0)  rotate(0 154 154)"><mask id="bg-mask-0" fill="white"><use xlink:href="#path_0"></use></mask><g mask="url(#bg-mask-0)" ><path  id="圆形 1" style="stroke:#000000; stroke-width:22; stroke-opacity:1; stroke-dasharray:0 0" transform="translate(40.5 40.5)  rotate(0 113.5 113.5)" d="M113.5,0C50.82,0 0,50.82 0,113.5C0,176.18 50.82,227 113.5,227C176.18,227 227,176.18 227,113.5C227,50.82 176.18,0 113.5,0Z " /><path id="并集" fill-rule="evenodd" style="fill:#000000" transform="translate(94 120)  rotate(0 59.499999999999986 39)" opacity="1" d="M118.605 -15.5513L111.027 -7.57812L118.758 -0.23035L111.027 -7.57788L41.8575 65.2027L7.91851 30.0047L7.9162 30.007L0.283573 22.0909L-15.5538 37.3611L-7.91867 45.2797L-7.91636 45.2775L29.0115 83.5753Q31.6149 86.2101 34.9122 87.5951Q38.1654 88.9617 41.69 88.9982Q45.3354 89.0358 48.7053 87.6449Q52.1882 86.2073 54.863 83.4516L126.973 7.57814L126.973 7.57788L134.551 -0.395058L118.605 -15.5513Z " /><path  id="并集" style="stroke:#000000; stroke-width:22; stroke-opacity:1; stroke-dasharray:0 0" transform="translate(94 120)  rotate(0 59.499999999999986 39)" d="" /></g></g></svg>