<svg xmlns="http://www.w3.org/2000/svg" xmlns:xlink="http://www.w3.org/1999/xlink" width="308" height="308" viewBox="0 0 308 308" fill="none"><defs><rect id="path_0" x="0" y="0" width="308" height="308" /></defs><g opacity="1" transform="translate(0 0)  rotate(0 154 154)"><mask id="bg-mask-0" fill="white"><use xlink:href="#path_0"></use></mask><g mask="url(#bg-mask-0)" ><path  id="圆形 1" style="stroke:#000000; stroke-width:22; stroke-opacity:1; stroke-dasharray:0 0" transform="translate(40.5 40.5)  rotate(0 113.5 113.5)" d="M113.5,0C50.82,0 0,50.82 0,113.5C0,176.18 50.82,227 113.5,227C176.18,227 227,176.18 227,113.5C227,50.82 176.18,0 113.5,0Z " /><path id="路径 1"  style="fill:#000000" transform="translate(154 136)  rotate(0 0.0005 42)" opacity="1" d="M-10.9989 -11.0001L-10.999 -0.000130952L0.00099796 1.35525e-20L-11 0L-11 84L-11.0001 94.9999L10.9999 95.0001L11 84.0001L0 84L11 84L11 0.00013094L11.001 0.000130952L11.0011 -10.9999L-10.9989 -11.0001Z " /><path  id="路径 1" style="stroke:#000000; stroke-width:22; stroke-opacity:1; stroke-dasharray:0 0" transform="translate(154 136)  rotate(0 0.0005 42)" d="" /><path id="路径 1"  style="fill:#000000" transform="translate(154 94)  rotate(0 0.0005 0.25)" opacity="1" d="M-10.999 -11L-10.999 0L-11 0L-11 0.5L-10.999 0.5L-10.999 11.5L11.001 11.5L11.001 0.5L11 0.5L11 0L11.001 0L11.001 -11L-10.999 -11Z " /><path  id="路径 1" style="stroke:#000000; stroke-width:22; stroke-opacity:1; stroke-dasharray:0 0" transform="translate(154 94)  rotate(0 0.0005 0.25)" d="" /></g></g></svg>