<svg xmlns="http://www.w3.org/2000/svg" xmlns:xlink="http://www.w3.org/1999/xlink" width="16" height="16" viewBox="0 0 16 16" fill="none"><defs><rect id="path_0" x="0" y="0" width="16" height="16" /></defs><g opacity="1" transform="translate(0 0)  rotate(0 8 8)"><mask id="bg-mask-0" fill="white"><use xlink:href="#path_0"></use></mask><g mask="url(#bg-mask-0)" ><path  id="并集" style="stroke:#000000; stroke-width:1.1; stroke-opacity:1; stroke-dasharray:0 0" transform="translate(1.7662337662337664 2.4415584415584415)  rotate(0 6.285714285714286 4.9351168831168835)" d="M9.43,9.87C11.16,9.87 12.57,8.46 12.57,6.73C12.57,5.36 11.7,4.2 10.43,3.76C10.5,3.5 10.55,3.22 10.55,2.94C10.55,1.31 9.25,0 7.66,0C6.39,0 5.31,0.84 4.93,2.01C4.61,1.92 4.29,1.88 3.95,1.88C1.77,1.88 0,3.67 0,5.88C0,8.08 1.77,9.87 3.95,9.87C5.09,9.87 6.65,9.87 6.65,9.87 " /><path  id="并集" style="stroke:#000000; stroke-width:1.1; stroke-opacity:1; stroke-dasharray:0 0" transform="translate(7.22077922077922 10.597402597402597)  rotate(-180 0.8571428571429698 1.7342192691032177)" d="M1.71,0L0.06,1.6C-0.02,1.67 -0.02,1.8 0.06,1.87L1.71,3.47 " /></g></g></svg>