<svg xmlns="http://www.w3.org/2000/svg" xmlns:xlink="http://www.w3.org/1999/xlink" width="16" height="16" viewBox="0 0 16 16" fill="none"><defs><rect id="path_0" x="0" y="0" width="16" height="16" /></defs><g opacity="1" transform="translate(0 0)  rotate(0 8 8)"><mask id="bg-mask-0" fill="white"><use xlink:href="#path_0"></use></mask><g mask="url(#bg-mask-0)" ><path id="路径 1"  style="fill:#000000" transform="translate(9.822857142857144 8.415584415584416)  rotate(0 2.3057380636665727 2.3152462618672605)" opacity="1" d="M4.60988 -0.777816L4.22177 -0.388108L5.00118 0.388108L5.38929 -0.0016005L4.60988 -0.777816ZM4.22025 -0.388066L-0.38975 4.24193L0.38975 5.01807L4.99975 0.388066L4.22025 -0.388066ZM-0.777816 4.63209L0.00160003 5.40831L0.389708 5.0186L-0.389708 4.24238L-0.777816 4.63209Z " /><path  id="路径 1" style="stroke:#000000; stroke-width:1.1; stroke-opacity:1; stroke-dasharray:0 0" transform="translate(9.822857142857144 8.415584415584416)  rotate(0 2.3057380636665727 2.3152462618672605)" d="" /><path id="路径 1"  style="fill:#000000" transform="translate(9.828571428571427 8.420259740259741)  rotate(0 2.3005380147851535 2.3104970538101965)" opacity="1" d="M-0.777816 -0.00167993L-0.389751 0.388064L-0.389748 0.388068L4.21025 5.00806L4.98975 4.23194L0.389751 -0.388064L0 0L0.389748 -0.388068L0.00167993 -0.777816L-0.777816 -0.00167993ZM4.21133 5.00906L4.5994 5.39881L5.37889 4.62267L4.99082 4.23293L4.21133 5.00906Z " /><path  id="路径 1" style="stroke:#000000; stroke-width:1.1; stroke-opacity:1; stroke-dasharray:0 0" transform="translate(9.828571428571427 8.420259740259741)  rotate(0 2.3005380147851535 2.3104970538101965)" d="" /><path id="并集"  style="fill:#000000" transform="translate(1.7142857142857142 2.7012987012987013)  rotate(0 5.467532467532468 4.9350649350649345)" opacity="1" d="" /><path  id="并集" style="stroke:#000000; stroke-width:1.1; stroke-opacity:1; stroke-dasharray:0 0" transform="translate(1.7142857142857142 2.7012987012987013)  rotate(0 5.467532467532468 4.9350649350649345)" d="" /></g></g></svg>