<svg xmlns="http://www.w3.org/2000/svg" xmlns:xlink="http://www.w3.org/1999/xlink" width="16" height="16" viewBox="0 0 16 16" fill="none"><defs><rect id="path_0" x="0" y="0" width="16" height="16" /></defs><g opacity="1" transform="translate(0 0)  rotate(0 8 8)"><mask id="bg-mask-0" fill="white"><use xlink:href="#path_0"></use></mask><g mask="url(#bg-mask-0)" ><path id="并集" fill-rule="evenodd" style="fill:#000000" transform="translate(7.07012987012987 8.916363636363634)  rotate(90 1.137421429970063 2.274842859940126)" opacity="1" d="M-0.0183389 -0.777601L0.379631 -0.39797L0 0L0.379762 -0.397846L2.57596 1.69853Q2.83865 1.9415 2.82458 2.3003Q2.81221 2.6156 2.58891 2.83891L2.58439 2.84343L0.379762 4.94785L0.379604 4.94768L-0.0183389 5.32729L-0.777601 4.53135L-0.379631 4.15172L-0.379474 4.15188L1.58678 2.275L-0.379631 0.39797L-0.379762 0.397846L-0.777601 0.0183389L-0.0183389 -0.777601Z " /><path  id="并集" style="stroke:#000000; stroke-width:1.1; stroke-opacity:1; stroke-dasharray:0 0" transform="translate(7.07012987012987 8.916363636363634)  rotate(90 1.137421429970063 2.274842859940126)" d="" /><path id="并集"  style="fill:#000000" transform="translate(1.7142857142857142 2.753246753246753)  rotate(0 6.285714285714286 4.9350649350649345)" opacity="1" d="" /><path  id="并集" style="stroke:#000000; stroke-width:1.1; stroke-opacity:1; stroke-dasharray:0 0" transform="translate(1.7142857142857142 2.753246753246753)  rotate(0 6.285714285714286 4.9350649350649345)" d="" /><path id="路径 1"  style="fill:#000000" transform="translate(8.207792207792208 6.285714285714286)  rotate(0 0.025974025974025972 2.7272727272727275)" opacity="1" d="" /><path  id="路径 1" style="stroke:#000000; stroke-width:1.1; stroke-opacity:1; stroke-dasharray:0 0" transform="translate(8.207792207792208 6.285714285714286)  rotate(0 0.025974025974025972 2.7272727272727275)" d="" /></g></g></svg>