<svg xmlns="http://www.w3.org/2000/svg" xmlns:xlink="http://www.w3.org/1999/xlink" width="16" height="16" viewBox="0 0 16 16" fill="none"><defs><rect id="path_0" x="0" y="0" width="16" height="16" /></defs><g opacity="1" transform="translate(0 0)  rotate(0 8 8)"><mask id="bg-mask-0" fill="white"><use xlink:href="#path_0"></use></mask><g mask="url(#bg-mask-0)" ><path  id="并集" style="stroke:#000000; stroke-width:1.1; stroke-opacity:1; stroke-dasharray:0 0" transform="translate(1.3506493506493507 2.857142857142857)  rotate(0 5.2727272727272725 4.9351168831168835)" d="M10.43,3.76C10.5,3.5 10.55,3.22 10.55,2.94C10.55,1.31 9.25,0 7.66,0C6.39,0 5.31,0.84 4.93,2.01C4.61,1.92 4.29,1.88 3.95,1.88C1.77,1.88 0,3.67 0,5.88C0,8.08 1.77,9.87 3.95,9.87C5.09,9.87 6.65,9.87 6.65,9.87 " /><path  id="并集" style="stroke:#000000; stroke-width:1.1; stroke-opacity:1; stroke-dasharray:0 0" transform="translate(9.142857142857142 9.974025974025974)  rotate(0 2.7272727272727275 0.005)" d="M0,0.01L5.45,0 " /><path  id="并集" style="stroke:#000000; stroke-width:1.1; stroke-opacity:1; stroke-dasharray:0 0" transform="translate(9.298701298701298 8.311688311688311)  rotate(0 2.7272727272727275 2.5714285714285716)" d="M4.36,0L1.1,0C0.46,0 0,0.29 0,0.99L0,1.68L0.58,1.68L0.57,4.15C0.57,4.85 1.03,5.14 1.67,5.14L3.79,5.14C4.57,5.14 4.88,4.78 4.88,4.15L4.88,1.68L5.45,1.68L5.45,0.99C5.45,0.36 5.14,0 4.36,0Z " /></g></g></svg>