<svg xmlns="http://www.w3.org/2000/svg" xmlns:xlink="http://www.w3.org/1999/xlink" width="22" height="22" viewBox="0 0 22 22" fill="none"><defs><rect id="path_0" x="0" y="0" width="22" height="22" /></defs><g opacity="1" transform="translate(0 0.00008138020848491578)  rotate(0 11 11)"><mask id="bg-mask-0" fill="white"><use xlink:href="#path_0"></use></mask><g mask="url(#bg-mask-0)" ><path id="并集" fill-rule="evenodd" style="fill:#000000" transform="translate(9.72142857142857 12.259999999999998)  rotate(90 1.5639544662088363 3.1279089324176725)" opacity="1" d="M-0.0256744 -1.08864L0.531403 -0.557235L0.531484 -0.557158L3.5514 2.32277Q3.90552 2.65322 3.89867 3.13959Q3.89203 3.61103 3.54395 3.93425L0.532367 6.81631L0.530275 6.81413L-0.0256743 7.34446L-1.08864 6.23014L-0.531484 5.69866L-0.529399 5.70085L2.16181 3.12559L-0.531403 0.557235L0 0L-0.531484 0.557158L-1.08864 0.0256744L-0.0256744 -1.08864ZM2.49605 2.80575Q2.49061 2.81081 2.48537 2.81597L2.49605 2.80575ZM2.4886 3.43724Q2.48496 3.43385 2.48144 3.43041L2.4886 3.43724Z " /><path  id="并集" style="stroke:#000000; stroke-width:1.54; stroke-opacity:1; stroke-dasharray:0 0" transform="translate(9.72142857142857 12.259999999999998)  rotate(90 1.5639544662088363 3.1279089324176725)" d="" /><path id="并集"  style="fill:#000000" transform="translate(2.3571428571428568 3.7857142857142856)  rotate(0 8.642857142857142 6.785714285714286)" opacity="1" d="" /><path  id="并集" style="stroke:#000000; stroke-width:1.54; stroke-opacity:1; stroke-dasharray:0 0" transform="translate(2.3571428571428568 3.7857142857142856)  rotate(0 8.642857142857142 6.785714285714286)" d="" /><path id="路径 1"  style="fill:#000000" transform="translate(11.285714285714285 8.642857142857142)  rotate(0 0.03571428571428571 3.75)" opacity="1" d="" /><path  id="路径 1" style="stroke:#000000; stroke-width:1.54; stroke-opacity:1; stroke-dasharray:0 0" transform="translate(11.285714285714285 8.642857142857142)  rotate(0 0.03571428571428571 3.75)" d="" /></g></g></svg>