<svg xmlns="http://www.w3.org/2000/svg" xmlns:xlink="http://www.w3.org/1999/xlink" width="22" height="22" viewBox="0 0 22 22" fill="none"><defs><rect id="path_0" x="0" y="0" width="22" height="22" /></defs><g opacity="1" transform="translate(0 0)  rotate(0 11 11)"><mask id="bg-mask-0" fill="white"><use xlink:href="#path_0"></use></mask><g mask="url(#bg-mask-0)" ><path id="路径 1"  style="fill:#000000" transform="translate(13.506428571428572 11.571428571428571)  rotate(0 3.170389837541537 3.183463610067483)" opacity="1" d="M6.33854 -1.08894L5.79519 -0.543351L6.88637 0.543351L7.42972 -0.00224066L6.33854 -1.08894ZM0.544219 6.91166L0.00224066 7.45587L-1.08894 6.36917L-0.545592 5.82358L-0.544056 5.82511L5.79424 -0.543186L6.88576 0.543186L0.545756 6.91319L0.544219 6.91166Z " /><path  id="路径 1" style="stroke:#000000; stroke-width:1.54; stroke-opacity:1; stroke-dasharray:0 0" transform="translate(13.506428571428572 11.571428571428571)  rotate(0 3.170389837541537 3.183463610067483)" d="" /><path id="路径 1"  style="fill:#000000" transform="translate(13.514285714285712 11.577857142857143)  rotate(0 3.1632397703295863 3.17693344898902)" opacity="1" d="M-1.08894 -0.00235194L-0.545647 0.543295L0 0L-0.54533 0.543613L5.78453 6.89348L5.78083 6.89716L6.32413 7.44281L7.41542 6.35622L6.87213 5.81057L6.0194 6.65962L6.87533 5.80639L0.545647 -0.543295L0.54533 -0.543613L0.00235194 -1.08894L-1.08894 -0.00235194Z " /><path  id="路径 1" style="stroke:#000000; stroke-width:1.54; stroke-opacity:1; stroke-dasharray:0 0" transform="translate(13.514285714285712 11.577857142857143)  rotate(0 3.1632397703295863 3.17693344898902)" d="" /><path id="并集"  style="fill:#000000" transform="translate(2.3571428571428568 3.714285714285714)  rotate(0 7.517857142857143 6.785714285714286)" opacity="1" d="" /><path  id="并集" style="stroke:#000000; stroke-width:1.54; stroke-opacity:1; stroke-dasharray:0 0" transform="translate(2.3571428571428568 3.714285714285714)  rotate(0 7.517857142857143 6.785714285714286)" d="" /></g></g></svg>