<svg xmlns="http://www.w3.org/2000/svg" xmlns:xlink="http://www.w3.org/1999/xlink" width="22" height="22" viewBox="0 0 22 22" fill="none"><defs><rect id="path_0" x="0" y="0" width="22" height="22" /></defs><g opacity="1" transform="translate(0 0)  rotate(0 11 11)"><mask id="bg-mask-0" fill="white"><use xlink:href="#path_0"></use></mask><g mask="url(#bg-mask-0)" ><path  id="并集" style="stroke:#000000; stroke-width:1.54; stroke-opacity:1; stroke-dasharray:0 0" transform="translate(1.857142857142857 3.9285714285714284)  rotate(0 7.25 6.785785714285714)" d="M14.34,5.18C14.44,4.81 14.5,4.43 14.5,4.04C14.5,1.81 12.73,0 10.54,0C8.79,0 7.3,1.16 6.77,2.76C6.34,2.65 5.89,2.59 5.43,2.59C2.43,2.59 0,5.05 0,8.08C0,11.11 2.43,13.57 5.43,13.57C7,13.57 9.14,13.57 9.14,13.57 " /><path  id="并集" style="stroke:#000000; stroke-width:1.54; stroke-opacity:1; stroke-dasharray:0 0" transform="translate(12.571428571428571 13.714285714285714)  rotate(0 3.75 0.005)" d="M0,0.01L7.5,0 " /><path  id="并集" style="stroke:#000000; stroke-width:1.54; stroke-opacity:1; stroke-dasharray:0 0" transform="translate(12.785714285714285 11.428571428571427)  rotate(0 3.75 3.5357142857142856)" d="M6,0L1.51,0C0.63,0 0,0.4 0,1.37L0,2.31L0.8,2.31L0.79,5.71C0.79,6.67 1.41,7.07 2.3,7.07L5.21,7.07C6.28,7.07 6.71,6.57 6.71,5.71L6.71,2.31L7.5,2.31L7.5,1.37C7.5,0.5 7.07,0 6,0Z " /></g></g></svg>