<svg xmlns="http://www.w3.org/2000/svg" xmlns:xlink="http://www.w3.org/1999/xlink" width="22" height="22" viewBox="0 0 22 22" fill="none"><defs><rect id="path_0" x="0" y="0" width="22" height="22" /></defs><g opacity="1" transform="translate(0 0.00008138020848491578)  rotate(0 11 11)"><mask id="bg-mask-0" fill="white"><use xlink:href="#path_0"></use></mask><g mask="url(#bg-mask-0)" ><path  id="并集" style="stroke:#000000; stroke-width:1.54; stroke-opacity:1; stroke-dasharray:0 0" transform="translate(2.4276 4.284)  rotate(0 8.6394 6.7830714)" d="M5.43,2.59C2.43,2.59 0,5.04 0,8.08C0,11.11 2.43,13.57 5.43,13.57C7,13.57 9.14,13.57 9.14,13.57C9.14,13.57 11.53,13.57 12.96,13.57C15.34,13.57 17.28,11.63 17.28,9.25C17.28,7.37 16.08,5.77 14.33,5.17C14.44,4.81 14.49,4.43 14.49,4.03C14.49,1.81 12.72,0 10.53,0C8.78,0 7.3,1.15 6.77,2.76C6.34,2.65 5.89,2.59 5.43,2.59Z " /><path  id="路径 1" style="stroke:#000000; stroke-width:1.54; stroke-opacity:1; stroke-dasharray:0 0" transform="translate(8.925 10.1388)  rotate(0 2.3869471436188494 2.3967902246234645)" d="M0,4.79L4.77,0 " /><path  id="路径 1" style="stroke:#000000; stroke-width:1.54; stroke-opacity:1; stroke-dasharray:0 0" transform="translate(8.930712 10.143797999999999)  rotate(0 2.3815639467936034 2.391873747429071)" d="M4.76,4.78L0,0 " /></g></g></svg>