<svg xmlns="http://www.w3.org/2000/svg" xmlns:xlink="http://www.w3.org/1999/xlink" width="30" height="30" viewBox="0 0 30 30" fill="none"><defs><rect id="path_0" x="0" y="0" width="30.000000000000004" height="30.000000000000004" /></defs><g opacity="1" transform="translate(0 0)  rotate(0 15.000000000000002 15.000000000000002)"><mask id="bg-mask-0" fill="white"><use xlink:href="#path_0"></use></mask><g mask="url(#bg-mask-0)" ><path id="路径 1"  style="fill:#000000" transform="translate(18.417857142857144 15.779220779220783)  rotate(0 4.323258869374825 4.341086741001114)" opacity="1" d="M8.64332 -1.55563L7.8671 -0.776216L7.86885 -0.774475L-0.779163 7.90353L0.779163 9.45647L9.42916 0.77647L9.42741 0.774729L10.2021 -0.00320053L8.64332 -1.55563ZM-1.55563 8.68537L0.00320005 10.2378L0.779416 9.45839L-0.779417 7.90596L-1.55563 8.68537Z " /><path  id="路径 1" style="stroke:#000000; stroke-width:2.2; stroke-opacity:1; stroke-dasharray:0 0" transform="translate(18.417857142857144 15.779220779220783)  rotate(0 4.323258869374825 4.341086741001114)" d="" /><path id="路径 1"  style="fill:#000000" transform="translate(18.42857142857143 15.787987012987017)  rotate(0 4.313508777722164 4.33218197589412)" opacity="1" d="M-1.55563 -0.00335985L-0.779496 0.776136L0 0L-0.779166 0.776467L7.85083 9.43647L9.40917 7.88353L0.779496 -0.776136L0.779166 -0.776467L0.00335985 -1.55563L-1.55563 -0.00335985ZM7.84752 9.4405L8.62366 10.22L10.1826 8.66772L9.40651 7.88823L7.84752 9.4405Z " /><path  id="路径 1" style="stroke:#000000; stroke-width:2.2; stroke-opacity:1; stroke-dasharray:0 0" transform="translate(18.42857142857143 15.787987012987017)  rotate(0 4.313508777722164 4.33218197589412)" d="" /><path id="并集"  style="fill:#000000" transform="translate(3.2142857142857144 5.0649350649350655)  rotate(0 10.251623376623378 9.253246753246755)" opacity="1" d="" /><path  id="并集" style="stroke:#000000; stroke-width:2.2; stroke-opacity:1; stroke-dasharray:0 0" transform="translate(3.2142857142857144 5.0649350649350655)  rotate(0 10.251623376623378 9.253246753246755)" d="" /></g></g></svg>