<svg xmlns="http://www.w3.org/2000/svg" xmlns:xlink="http://www.w3.org/1999/xlink" width="30" height="30" viewBox="0 0 30 30" fill="none"><defs><rect id="path_0" x="0" y="0" width="30.000000000000004" height="30.000000000000004" /></defs><g opacity="1" transform="translate(0 0)  rotate(0 15.000000000000002 15.000000000000002)"><mask id="bg-mask-0" fill="white"><use xlink:href="#path_0"></use></mask><g mask="url(#bg-mask-0)" ><path  id="并集" style="stroke:#000000; stroke-width:2.2; stroke-opacity:1; stroke-dasharray:0 0" transform="translate(2.5324675324675328 5.357142857142858)  rotate(0 9.886363636363637 9.253344155844157)" d="M19.55,7.06C19.7,6.57 19.77,6.04 19.77,5.5C19.77,2.46 17.35,0 14.37,0C11.98,0 9.95,1.58 9.24,3.76C8.65,3.61 8.04,3.53 7.4,3.53C3.31,3.53 0,6.88 0,11.02C0,15.15 3.31,18.51 7.4,18.51C9.55,18.51 12.47,18.51 12.47,18.51 " /><path  id="并集" style="stroke:#000000; stroke-width:2.2; stroke-opacity:1; stroke-dasharray:0 0" transform="translate(17.142857142857146 18.701298701298704)  rotate(0 5.113636363636364 0.005)" d="M0,0.01L10.23,0 " /><path  id="并集" style="stroke:#000000; stroke-width:2.2; stroke-opacity:1; stroke-dasharray:0 0" transform="translate(17.43506493506494 15.584415584415588)  rotate(0 5.113636363636364 4.821428571428572)" d="M8.18,0L2.06,0C0.86,0 0,0.55 0,1.86L0,3.15L1.09,3.15L1.07,7.78C1.07,9.09 1.93,9.64 3.14,9.64L7.11,9.64C8.56,9.64 9.16,8.97 9.16,7.78L9.15,3.15L10.23,3.15L10.23,1.86C10.23,0.68 9.64,0 8.18,0Z " /></g></g></svg>