<svg xmlns="http://www.w3.org/2000/svg" xmlns:xlink="http://www.w3.org/1999/xlink" width="30" height="30" viewBox="0 0 30 30" fill="none"><defs><rect id="path_0" x="0" y="0" width="30" height="30" /></defs><g opacity="1" transform="translate(0 -0.00008138020803016843)  rotate(0 15 15)"><mask id="bg-mask-0" fill="white"><use xlink:href="#path_0"></use></mask><g mask="url(#bg-mask-0)" ><path  id="并集" style="stroke:#000000; stroke-width:2.2; stroke-opacity:1; stroke-dasharray:0 0" transform="translate(3.311688311688312 4.577922077922078)  rotate(0 11.785714285714285 9.253344155844156)" d="M17.68,18.51C20.93,18.51 23.57,15.87 23.57,12.61C23.57,10.05 21.94,7.87 19.55,7.06C19.7,6.57 19.77,6.04 19.77,5.5C19.77,2.46 17.35,0 14.37,0C11.98,0 9.95,1.58 9.24,3.76C8.65,3.61 8.04,3.53 7.4,3.53C3.31,3.53 0,6.88 0,11.02C0,15.15 3.31,18.51 7.4,18.51C9.55,18.51 12.47,18.51 12.47,18.51 " /><path  id="并集" style="stroke:#000000; stroke-width:2.2; stroke-opacity:1; stroke-dasharray:0 0" transform="translate(13.538961038961038 19.87012987012987)  rotate(-180 1.6071428571430681 3.2516611295685327)" d="M3.21,0L0.11,3C-0.04,3.14 -0.03,3.37 0.11,3.51L3.21,6.5 " /></g></g></svg>