<svg xmlns="http://www.w3.org/2000/svg" xmlns:xlink="http://www.w3.org/1999/xlink" width="30" height="30" viewBox="0 0 30 30" fill="none"><defs><rect id="path_0" x="0" y="0" width="30" height="30" /></defs><g opacity="1" transform="translate(0 -0.00008138020803016843)  rotate(0 15 15)"><mask id="bg-mask-0" fill="white"><use xlink:href="#path_0"></use></mask><g mask="url(#bg-mask-0)" ><path id="并集" fill-rule="evenodd" style="fill:#000000" transform="translate(13.256493506493507 16.71818181818182)  rotate(90 2.132665181193868 4.265330362387736)" opacity="1" d="M-0.0366777 -1.5552L0.759248 -0.795954L0.759262 -0.79594L4.87925 3.13405Q5.12271 3.36533 5.24871 3.67529Q5.36888 3.9709 5.36227 4.29143Q5.34917 4.92646 4.89782 5.37782L4.88864 5.387L0.759248 9.32595L-0.759248 7.73405L2.87751 4.265L-0.759248 0.795954L0 0L-0.759262 0.79594L-1.5552 0.0366777L-0.0366777 -1.5552ZM-0.0366774 10.0859L0.759263 9.3266L-0.759263 7.73472L-1.5552 8.49398L-0.0366774 10.0859Z " /><path  id="并集" style="stroke:#000000; stroke-width:2.2; stroke-opacity:1; stroke-dasharray:0 0" transform="translate(13.256493506493507 16.71818181818182)  rotate(90 2.132665181193868 4.265330362387736)" d="" /><path id="并集"  style="fill:#000000" transform="translate(3.2142857142857144 5.162337662337664)  rotate(0 11.785714285714286 9.253246753246755)" opacity="1" d="" /><path  id="并集" style="stroke:#000000; stroke-width:2.2; stroke-opacity:1; stroke-dasharray:0 0" transform="translate(3.2142857142857144 5.162337662337664)  rotate(0 11.785714285714286 9.253246753246755)" d="" /><path id="路径 1"  style="fill:#000000" transform="translate(15.389610389610391 11.785714285714286)  rotate(0 0.04870129870129871 5.113636363636364)" opacity="1" d="" /><path  id="路径 1" style="stroke:#000000; stroke-width:2.2; stroke-opacity:1; stroke-dasharray:0 0" transform="translate(15.389610389610391 11.785714285714286)  rotate(0 0.04870129870129871 5.113636363636364)" d="" /></g></g></svg>