<svg xmlns="http://www.w3.org/2000/svg" xmlns:xlink="http://www.w3.org/1999/xlink" width="42" height="42" viewBox="0 0 42 42" fill="none"><defs><rect id="path_0" x="0" y="0" width="42" height="42" /></defs><g opacity="1" transform="translate(0 4.547473508864641e-13)  rotate(0 21 21)"><mask id="bg-mask-0" fill="white"><use xlink:href="#path_0"></use></mask><g mask="url(#bg-mask-0)" ><path id="并集" fill-rule="evenodd" style="fill:#000000" transform="translate(18.559090909090905 23.40545454545454)  rotate(90 2.985731253671415 5.97146250734283)" opacity="1" d="M-0.0513488 -2.17728L1.06297 -1.11432L0 0L1.06356 -1.11375L6.82013 4.38343Q7.16789 4.70324 7.34746 5.13969Q7.51839 5.55515 7.50838 6.00896Q7.49903 6.43243 7.33306 6.8246Q7.16412 7.22377 6.85894 7.52894L6.8459 7.54199L1.06255 13.0547L-1.06255 10.8253L4.02646 5.97441L-1.06297 1.11432L-1.06356 1.11375L-2.17728 0.0513488L-0.0513488 -2.17728ZM-0.0513496 14.1202L1.06297 13.0572L-1.06297 10.8286L-2.17728 11.8916L-0.0513496 14.1202Z " /><path  id="并集" style="stroke:#000000; stroke-width:3.08; stroke-opacity:1; stroke-dasharray:0 0" transform="translate(18.559090909090905 23.40545454545454)  rotate(90 2.985731253671415 5.97146250734283)" d="" /><path id="并集"  style="fill:#000000" transform="translate(4.499999999999999 7.227272727272727)  rotate(0 16.499999999999996 12.954545454545453)" opacity="1" d="" /><path  id="并集" style="stroke:#000000; stroke-width:3.08; stroke-opacity:1; stroke-dasharray:0 0" transform="translate(4.499999999999999 7.227272727272727)  rotate(0 16.499999999999996 12.954545454545453)" d="" /><path id="路径 1"  style="fill:#000000" transform="translate(21.545454545454547 16.499999999999996)  rotate(0 0.06818181818181818 7.159090909090909)" opacity="1" d="" /><path  id="路径 1" style="stroke:#000000; stroke-width:3.08; stroke-opacity:1; stroke-dasharray:0 0" transform="translate(21.545454545454547 16.499999999999996)  rotate(0 0.06818181818181818 7.159090909090909)" d="" /></g></g></svg>