<svg xmlns="http://www.w3.org/2000/svg" xmlns:xlink="http://www.w3.org/1999/xlink" width="42" height="42" viewBox="0 0 42 42" fill="none"><defs><rect id="path_0" x="0" y="0" width="42" height="42" /></defs><g opacity="1" transform="translate(0 4.547473508864641e-13)  rotate(0 21 21)"><mask id="bg-mask-0" fill="white"><use xlink:href="#path_0"></use></mask><g mask="url(#bg-mask-0)" ><path  id="并集" style="stroke:#000000; stroke-width:3.08; stroke-opacity:1; stroke-dasharray:0 0" transform="translate(4.636363636363637 6.409090909090909)  rotate(0 16.5 12.954681818181818)" d="M24.75,25.91C29.31,25.91 33,22.22 33,17.66C33,14.07 30.71,11.02 27.38,9.88C27.57,9.19 27.68,8.46 27.68,7.7C27.68,3.45 24.29,0 20.11,0C16.77,0 13.94,2.21 12.93,5.26C12.11,5.05 11.25,4.94 10.36,4.94C4.64,4.94 0,9.63 0,15.42C0,21.21 4.64,25.91 10.36,25.91C13.37,25.91 17.45,25.91 17.45,25.91 " /><path  id="并集" style="stroke:#000000; stroke-width:3.08; stroke-opacity:1; stroke-dasharray:0 0" transform="translate(18.954545454545453 27.81818181818182)  rotate(-180 2.2500000000002958 4.552325581395946)" d="M4.5,0L0.15,4.2C-0.06,4.39 -0.04,4.72 0.15,4.91L4.5,9.1 " /></g></g></svg>