<svg xmlns="http://www.w3.org/2000/svg" xmlns:xlink="http://www.w3.org/1999/xlink" width="42" height="42" viewBox="0 0 42 42" fill="none"><defs><rect id="path_0" x="0" y="0" width="42" height="42" /></defs><g opacity="1" transform="translate(0 0)  rotate(0 21 21)"><mask id="bg-mask-0" fill="white"><use xlink:href="#path_0"></use></mask><g mask="url(#bg-mask-0)" ><path  id="并集" style="stroke:#000000; stroke-width:3.08; stroke-opacity:1; stroke-dasharray:0 0" transform="translate(3.545454545454545 7.499999999999999)  rotate(0 13.84090909090909 12.954681818181818)" d="M27.37,9.88C27.57,9.19 27.68,8.46 27.68,7.7C27.68,3.45 24.29,0 20.11,0C16.77,0 13.94,2.21 12.93,5.26C12.11,5.05 11.25,4.94 10.36,4.94C4.64,4.94 0,9.63 0,15.42C0,21.21 4.64,25.91 10.36,25.91C13.37,25.91 17.45,25.91 17.45,25.91 " /><path  id="并集" style="stroke:#000000; stroke-width:3.08; stroke-opacity:1; stroke-dasharray:0 0" transform="translate(23.999999999999996 26.18181818181818)  rotate(0 7.159090909090909 0.005)" d="M0,0.01L14.32,0 " /><path  id="并集" style="stroke:#000000; stroke-width:3.08; stroke-opacity:1; stroke-dasharray:0 0" transform="translate(24.409090909090907 21.818181818181817)  rotate(0 7.159090909090909 6.749999999999999)" d="M11.45,0L2.89,0C1.2,0 0,0.77 0,2.61L0,4.41L1.53,4.41L1.5,10.89C1.5,12.73 2.7,13.5 4.39,13.5L9.95,13.5C11.99,13.5 12.82,12.55 12.82,10.89L12.82,4.41L14.32,4.41L14.32,2.61C14.32,0.95 13.49,0 11.45,0Z " /></g></g></svg>