<svg xmlns="http://www.w3.org/2000/svg" xmlns:xlink="http://www.w3.org/1999/xlink" width="42" height="42" viewBox="0 0 42 42" fill="none"><defs><rect id="path_0" x="0" y="0" width="42" height="42" /></defs><g opacity="1" transform="translate(0 4.547473508864641e-13)  rotate(0 21 21)"><mask id="bg-mask-0" fill="white"><use xlink:href="#path_0"></use></mask><g mask="url(#bg-mask-0)" ><path  id="并集" style="stroke:#000000; stroke-width:3.08; stroke-opacity:1; stroke-dasharray:0 0" transform="translate(4.636363636363637 8.181818181818182)  rotate(0 16.5 12.954681818181818)" d="M10.36,4.94C4.64,4.94 0,9.63 0,15.42C0,21.21 4.64,25.91 10.36,25.91C13.37,25.91 17.45,25.91 17.45,25.91C17.45,25.91 22.02,25.91 24.75,25.91C29.31,25.91 33,22.22 33,17.66C33,14.07 30.71,11.02 27.38,9.88C27.57,9.19 27.68,8.46 27.68,7.7C27.68,3.45 24.29,0 20.11,0C16.77,0 13.94,2.21 12.93,5.26C12.11,5.05 11.25,4.94 10.36,4.94Z " /><path  id="路径 1" style="stroke:#000000; stroke-width:3.08; stroke-opacity:1; stroke-dasharray:0 0" transform="translate(17.045454545454547 19.363636363636363)  rotate(0 4.558722581395816 4.5775214374015745)" d="M0,9.16L9.12,0 " /><path  id="路径 1" style="stroke:#000000; stroke-width:3.08; stroke-opacity:1; stroke-dasharray:0 0" transform="translate(17.05636363636364 19.373181818181816)  rotate(0 4.5484414568250635 4.568131679581878)" d="M9.1,9.14L0,0 " /></g></g></svg>