<svg xmlns="http://www.w3.org/2000/svg" xmlns:xlink="http://www.w3.org/1999/xlink" width="42" height="42" viewBox="0 0 42 42" fill="none"><defs><rect id="path_0" x="0" y="0" width="42" height="42" /></defs><g opacity="1" transform="translate(0 0)  rotate(0 21 21)"><mask id="bg-mask-0" fill="white"><use xlink:href="#path_0"></use></mask><g mask="url(#bg-mask-0)" ><path id="路径 1"  style="fill:#000000" transform="translate(25.784999999999997 22.09090909090909)  rotate(0 6.052562417124753 6.0775214374015585)" opacity="1" d="M12.1006 -2.17788L11.0139 -1.0867L11.0164 -1.08426L-1.0887 11.0708L-1.09118 11.0683L-2.17788 12.1595L0.00448036 14.3329L1.08871 13.2442L1.09119 13.2467L13.2012 1.0867L13.1987 1.08426L14.283 -0.00448036L12.1006 -2.17788Z " /><path  id="路径 1" style="stroke:#000000; stroke-width:3.08; stroke-opacity:1; stroke-dasharray:0 0" transform="translate(25.784999999999997 22.09090909090909)  rotate(0 6.052562417124753 6.0775214374015585)" d="" /><path id="路径 1"  style="fill:#000000" transform="translate(25.799999999999997 22.103181818181817)  rotate(0 6.038912288811027 6.065054766251766)" opacity="1" d="M-2.17788 -0.00470388L-1.09129 1.08659L0 0L-1.09119 1.08669L10.9877 13.2156L10.9865 13.2167L12.0731 14.308L14.2557 12.1348L13.17 11.0444L13.1712 11.0433L1.09129 -1.08659L1.09119 -1.08669L0.00470388 -2.17788L-2.17788 -0.00470388Z " /><path  id="路径 1" style="stroke:#000000; stroke-width:3.08; stroke-opacity:1; stroke-dasharray:0 0" transform="translate(25.799999999999997 22.103181818181817)  rotate(0 6.038912288811027 6.065054766251766)" d="" /><path id="并集"  style="fill:#000000" transform="translate(4.499999999999999 7.09090909090909)  rotate(0 14.352272727272727 12.954545454545453)" opacity="1" d="" /><path  id="并集" style="stroke:#000000; stroke-width:3.08; stroke-opacity:1; stroke-dasharray:0 0" transform="translate(4.499999999999999 7.09090909090909)  rotate(0 14.352272727272727 12.954545454545453)" d="" /></g></g></svg>