<svg xmlns="http://www.w3.org/2000/svg" xmlns:xlink="http://www.w3.org/1999/xlink" width="308" height="308" viewBox="0 0 308 308" fill="none"><defs><rect id="path_0" x="0" y="0" width="308" height="308" /></defs><g opacity="1" transform="translate(0 0)  rotate(0 154 154)"><mask id="bg-mask-0" fill="white"><use xlink:href="#path_0"></use></mask><g mask="url(#bg-mask-0)" ><path  id="并集" style="stroke:#000000; stroke-width:22; stroke-opacity:1; stroke-dasharray:0 0" transform="translate(34 60)  rotate(0 121 95.001)" d="M76,36.22C34.03,36.22 0,70.64 0,113.11C0,155.57 34.03,190 76,190C98.04,190 128,190 128,190C128,190 161.51,190 181.5,190C214.91,190 242,162.91 242,129.5C242,103.19 225.2,80.8 200.75,72.47C202.21,67.41 203,62.05 203,56.5C203,25.3 178.15,0 147.5,0C122.99,0 102.2,16.17 94.84,38.6C88.82,37.05 82.5,36.22 76,36.22Z " /><path id="路径 1"  style="fill:#000000" transform="translate(127 151)  rotate(0 27.885010266940583 28.000000000000142)" opacity="1" d="M55.738 -15.5563L47.9759 -7.76215L63.5642 7.76215L47.9758 -7.76215L-7.79416 48.2378L-15.5563 56.032L0.0320053 71.5563L7.79416 63.7622L63.5642 7.76215L71.3263 -0.0320091L55.738 -15.5563Z " /><path  id="路径 1" style="stroke:#000000; stroke-width:22; stroke-opacity:1; stroke-dasharray:0 0" transform="translate(127 151)  rotate(0 27.885010266940583 28.000000000000142)" d="" /><path id="路径 1"  style="fill:#000000" transform="translate(127 151)  rotate(0 27.822122197071813 27.942564284504996)" opacity="1" d="M-7.79559 7.76072L-7.79496 7.76136L47.8444 63.6507L51.721 59.7915L47.8493 63.6465L55.6106 71.4414L71.2006 55.9187L63.4392 48.1238L63.4346 48.1283L7.79559 -7.76072L0 0L7.79496 -7.76136L0.0335989 -15.5563L-15.5563 -0.0335989L-7.79559 7.76072Z " /><path  id="路径 1" style="stroke:#000000; stroke-width:22; stroke-opacity:1; stroke-dasharray:0 0" transform="translate(127 151)  rotate(0 27.822122197071813 27.942564284504996)" d="" /></g></g></svg>