<svg xmlns="http://www.w3.org/2000/svg" xmlns:xlink="http://www.w3.org/1999/xlink" width="308" height="308" viewBox="0 0 308 308" fill="none"><defs><rect id="path_0" x="0" y="0" width="308" height="308" /></defs><g opacity="1" transform="translate(0 0)  rotate(0 154 154)"><mask id="bg-mask-0" fill="white"><use xlink:href="#path_0"></use></mask><g mask="url(#bg-mask-0)" ><path id="并集" fill-rule="evenodd" style="fill:#000000" transform="translate(26 55)  rotate(0 101.5 95.001)" opacity="1" d="M192 56.5Q192 63.1169 190.181 69.4205L190.182 69.4207L187.128 79.9862L208.263 86.0949L211.317 75.5274L194.446 70.6511L211.319 75.5195Q214 66.2274 214 56.5Q214 49.6288 212.657 42.9464Q211.345 36.4229 208.796 30.2886Q206.293 24.2646 202.686 18.8296Q199.113 13.4449 194.591 8.84168Q190.064 4.2333 184.764 0.587247Q179.402 -3.10072 173.453 -5.6624Q167.385 -8.27534 160.928 -9.6207Q154.308 -11 147.5 -11Q136.649 -11 126.438 -7.54164Q116.573 -4.20049 108.163 2.07049Q99.8767 8.24951 93.8036 16.6731Q90.5642 21.1661 88.1224 26.0666Q82.1228 25.22 76 25.22Q67.1029 25.22 58.4545 27.0103Q50.0193 28.7565 42.0917 32.1486Q34.3148 35.4762 27.3025 40.2687Q20.3646 45.0104 14.4382 51.0057Q8.51499 56.9978 3.83285 64.009Q-0.894747 71.0882 -4.17574 78.9358Q-7.51766 86.9292 -9.23747 95.4318Q-11 104.146 -11 113.11Q-11 122.073 -9.23741 130.786Q-7.51757 139.287 -4.17567 147.28Q-0.894705 155.127 3.83278 162.206Q8.51488 169.218 14.4379 175.21Q20.3642 181.206 27.3019 185.948Q34.3142 190.741 42.0909 194.07Q50.0188 197.463 58.454 199.209Q67.1028 201 76 201L128 201L128 189.771L128.001 201L139.001 200.999L138.999 178.999L128 179L76 179Q69.3566 179 62.9148 177.666Q56.6432 176.368 50.7469 173.844Q44.9506 171.363 39.7167 167.786Q34.5246 164.237 30.0846 159.745Q25.6414 155.249 22.1284 149.989Q18.5821 144.678 16.1216 138.794Q13.6159 132.801 12.3258 126.423Q11 119.87 11 113.11Q11 106.348 12.3259 99.7934Q13.6159 93.4154 16.1217 87.422Q18.5821 81.5371 22.1283 76.2269Q25.6412 70.9666 30.0843 66.4718Q34.524 61.9804 39.7161 58.432Q44.9498 54.855 50.7461 52.3748Q56.6425 49.8519 62.9142 48.5536Q69.3562 47.22 76 47.22Q84.203 47.22 92.0972 49.2526L102.078 51.8225L105.292 42.0295Q107.503 35.2896 111.649 29.5391Q115.742 23.862 121.314 19.707Q126.931 15.5191 133.495 13.2957Q140.274 11 147.5 11Q152.041 11 156.441 11.9168Q160.724 12.8091 164.752 14.5436Q168.715 16.2504 172.296 18.7135Q175.853 21.16 178.896 24.2583Q181.945 27.3617 184.356 30.9946Q186.791 34.6636 188.48 38.7301Q190.202 42.8729 191.088 47.2825Q192 51.8184 192 56.5Z " /><path  id="并集" style="stroke:#000000; stroke-width:22; stroke-opacity:1; stroke-dasharray:0 0" transform="translate(26 55)  rotate(0 101.5 95.001)" d="" /><path  id="并集" style="stroke:#000000; stroke-width:22; stroke-opacity:1; stroke-dasharray:0 0" transform="translate(179 160)  rotate(0 52.50500000000002 49.5)" d="M83.99,0L21.19,0C8.79,0 0,5.64 0,19.11L0.01,37L11.2,37L94,37L105.01,37L105,19.11C105,6.95 98.93,0 83.99,0Z M32.19,99L72.99,99C87.93,99 94,92.05 94,79.89L94,37L11.2,37L11,79.89C11,93.36 19.79,99 32.19,99Z " /></g></g></svg>