<svg xmlns="http://www.w3.org/2000/svg" xmlns:xlink="http://www.w3.org/1999/xlink" width="308" height="308" viewBox="0 0 308 308" fill="none"><defs><rect id="path_0" x="0" y="0" width="308" height="308" /></defs><g opacity="1" transform="translate(0 0)  rotate(0 154 154)"><mask id="bg-mask-0" fill="white"><use xlink:href="#path_0"></use></mask><g mask="url(#bg-mask-0)" ><path id="路径 1"  style="fill:#000000" transform="translate(189.09 162)  rotate(0 44.38545772558153 44.568490540944765)" opacity="1" d="M88.7389 -15.5563L80.9767 -7.76215L96.5651 7.76216L104.327 -0.0320091L88.7389 -15.5563ZM7.79282 96.9005L0.0320053 104.693L-15.5563 89.169L-7.79417 81.3748L-7.79265 81.3763L80.9757 -7.76198L96.5643 7.76198L7.79433 96.902L7.79282 96.9005Z " /><path  id="路径 1" style="stroke:#000000; stroke-width:22; stroke-opacity:1; stroke-dasharray:0 0" transform="translate(189.09 162)  rotate(0 44.38545772558153 44.568490540944765)" d="" /><path id="路径 1"  style="fill:#000000" transform="translate(189.2 162.09)  rotate(0 44.28535678461421 44.477068285846286)" opacity="1" d="M-15.5563 -0.0335989L-7.79496 7.76136L0 0L-7.79481 7.76151L80.7752 96.7115L96.3648 81.1885L7.79496 -7.76136L7.79481 -7.76151L0.0335989 -15.5563L-15.5563 -0.0335989ZM80.7758 96.7155L88.5371 104.51L104.127 88.9877L96.3657 81.1928L80.7758 96.7155Z " /><path  id="路径 1" style="stroke:#000000; stroke-width:22; stroke-opacity:1; stroke-dasharray:0 0" transform="translate(189.2 162.09)  rotate(0 44.28535678461421 44.477068285846286)" d="" /><path id="并集"  style="fill:#000000" transform="translate(33 52)  rotate(0 105.25000000000001 95)" opacity="1" d="" /><path  id="并集" style="stroke:#000000; stroke-width:22; stroke-opacity:1; stroke-dasharray:0 0" transform="translate(33 52)  rotate(0 105.25000000000001 95)" d="" /></g></g></svg>