<svg xmlns="http://www.w3.org/2000/svg" xmlns:xlink="http://www.w3.org/1999/xlink" width="308" height="308" viewBox="0 0 308 308" fill="none"><defs><rect id="path_0" x="0" y="0" width="308" height="308" /></defs><g opacity="1" transform="translate(0 0)  rotate(0 154 154)"><mask id="bg-mask-0" fill="white"><use xlink:href="#path_0"></use></mask><g mask="url(#bg-mask-0)" ><path  id="并集" style="stroke:#000000; stroke-width:22; stroke-opacity:1; stroke-dasharray:0 0" transform="translate(34 60)  rotate(0 121 95.001)" d="M76,36.22C34.03,36.22 0,70.64 0,113.11C0,155.57 34.03,190 76,190C98.04,190 128,190 128,190C128,190 161.51,190 181.5,190C214.91,190 242,162.91 242,129.5C242,103.19 225.2,80.8 200.75,72.47C202.21,67.41 203,62.05 203,56.5C203,25.3 178.15,0 147.5,0C122.99,0 102.2,16.17 94.84,38.6C88.82,37.05 82.5,36.22 76,36.22Z " /><path id="并集" fill-rule="evenodd" style="fill:#000000" transform="translate(114 153)  rotate(0 42.113207547169814 27.5)" opacity="1" d="M83.4863 -15.5387L76.087 -7.39928L76.0889 -7.3975L29.6306 43.7097L8.06002 20.4843L8.0586 20.4856L0.574104 12.4271L-15.5457 27.3987L-8.05993 35.4587L-8.05851 35.4573L14.712 59.9747L15.0979 60.319Q18.024 62.9289 21.6481 64.3956Q25.3904 65.9102 29.3598 65.9974Q33.6422 66.0914 37.5849 64.5131Q41.7219 62.8571 44.9261 59.5793L45.0654 59.4367L92.3696 7.39917L92.3676 7.39738L99.7651 -0.740154L83.4863 -15.5387Z " /><path  id="并集" style="stroke:#000000; stroke-width:22; stroke-opacity:1; stroke-dasharray:0 0" transform="translate(114 153)  rotate(0 42.113207547169814 27.5)" d="" /></g></g></svg>