<svg xmlns="http://www.w3.org/2000/svg" xmlns:xlink="http://www.w3.org/1999/xlink" width="308" height="308" viewBox="0 0 308 308" fill="none"><defs><rect id="path_0" x="0" y="0" width="308" height="308" /></defs><g opacity="1" transform="translate(0 0)  rotate(0 154 154)"><mask id="bg-mask-0" fill="white"><use xlink:href="#path_0"></use></mask><g mask="url(#bg-mask-0)" ><path id="并集" fill-rule="evenodd" style="fill:#000000" transform="translate(136.1 171.64)  rotate(90 21.89536252692371 43.79072505384742)" opacity="1" d="M-0.366777 -15.552L7.59262 -7.9594L0 0L7.59268 -7.95934L49.9227 32.4207Q52.3292 34.6372 53.6323 37.8147Q54.8555 40.7971 54.7903 44.0423Q54.7284 47.1199 53.5146 49.9617Q52.2799 52.8521 50.0443 55.0515L7.59189 95.5401L7.59262 95.5409L-0.366783 103.133L-15.552 87.2147L-7.59263 79.6221L6.02031 93.8926L-7.5917 79.6197L29.9738 43.7952L-7.59262 7.9594L-7.59268 7.95934L-15.552 0.366777L-0.366777 -15.552ZM34.7373 48.3393Q34.6701 48.2775 34.6048 48.213L34.7373 48.3393Z " /><path  id="并集" style="stroke:#000000; stroke-width:22; stroke-opacity:1; stroke-dasharray:0 0" transform="translate(136.1 171.64)  rotate(90 21.89536252692371 43.79072505384742)" d="" /><path id="并集"  style="fill:#000000" transform="translate(33 53)  rotate(0 121 95)" opacity="1" d="" /><path  id="并集" style="stroke:#000000; stroke-width:22; stroke-opacity:1; stroke-dasharray:0 0" transform="translate(33 53)  rotate(0 121 95)" d="" /><path id="路径 1"  style="fill:#000000" transform="translate(158 121)  rotate(0 0.5 52.5)" opacity="1" d="" /><path  id="路径 1" style="stroke:#000000; stroke-width:22; stroke-opacity:1; stroke-dasharray:0 0" transform="translate(158 121)  rotate(0 0.5 52.5)" d="" /></g></g></svg>