<svg xmlns="http://www.w3.org/2000/svg" xmlns:xlink="http://www.w3.org/1999/xlink" width="308" height="308" viewBox="0 0 308 308" fill="none"><defs><rect id="path_0" x="0" y="0" width="308" height="308" /></defs><g opacity="1" transform="translate(0 0)  rotate(0 154 154)"><mask id="bg-mask-0" fill="white"><use xlink:href="#path_0"></use></mask><g mask="url(#bg-mask-0)" ><path  id="并集" style="stroke:#000000; stroke-width:22; stroke-opacity:1; stroke-dasharray:0 0" transform="translate(40 40)  rotate(0 114 114)" d="M48.63,0C20.18,0 0,13 0,44L0,109L0,184C0,215 20.18,228 48.63,228L179.78,228C214.08,228 228,212 228,184L228,109L228,44C228,16 214.08,0 179.78,0L48.63,0Z " /><path id="并集" fill-rule="evenodd" style="fill:#000000" transform="translate(117.8200811534916 172)  rotate(0 37.293126393678214 23.5)" opacity="1" d="M73.8322 -15.5381L66.4402 -7.392L66.4422 -7.39014L28.3564 34.5759L8.03569 12.8382L-8.03569 27.8618L15.0959 52.6066L15.4575 52.9307Q18.0447 55.25 21.2494 56.5569Q24.5829 57.9163 28.1262 57.9948Q31.9741 58.0801 35.5161 56.6466Q39.2163 55.1491 42.063 52.201L42.1812 52.0785L82.7356 7.39248L82.7336 7.39062L90.1243 -0.754047L73.8322 -15.5381ZM-15.5475 19.822L-8.03546 27.8575L8.03546 12.8333L0.523375 4.79785L-15.5475 19.822Z " /><path  id="并集" style="stroke:#000000; stroke-width:22; stroke-opacity:1; stroke-dasharray:0 0" transform="translate(117.8200811534916 172)  rotate(0 37.293126393678214 23.5)" d="" /><path id="并集"  style="fill:#000000" transform="translate(103 68.5)  rotate(0 48 31.25)" opacity="1" d="" /><path  id="并集" style="stroke:#000000; stroke-width:22; stroke-opacity:1; stroke-dasharray:0 0" transform="translate(103 68.5)  rotate(0 48 31.25)" d="" /></g></g></svg>