<svg xmlns="http://www.w3.org/2000/svg" xmlns:xlink="http://www.w3.org/1999/xlink" width="308" height="308" viewBox="0 0 308 308" fill="none"><defs><rect id="path_0" x="0" y="0" width="308" height="308" /></defs><g opacity="1" transform="translate(0 0)  rotate(0 154 154)"><mask id="bg-mask-0" fill="white"><use xlink:href="#path_0"></use></mask><g mask="url(#bg-mask-0)" ><path id="并集" fill-rule="evenodd" style="fill:#000000" transform="translate(25 50.00000000000005)  rotate(0 119.49999999999999 104.5)" opacity="1" d="M62.46,118.76C65.86,130.84 76.89,139.18 89.45,139.18L197.04,139.18C209.92,139.18 221.16,130.4 224.25,117.91L238.22,63.73C240.81,52.5 238.22,29 211,29L36.55,29L62.46,118.76Z M215.28,174C205.6,174 197.75,181.84 197.75,191.5C197.75,201.16 205.6,209 215.28,209C224.95,209 232.8,201.16 232.8,191.5C232.8,181.84 224.95,174 215.28,174Z M79.6,191.5C79.6,181.84 71.75,174 62.08,174C52.41,174 44.56,181.84 44.56,191.5C44.56,201.16 52.41,209 62.08,209C71.75,209 79.6,201.16 79.6,191.5Z M26.0976 32.4274L18.8476 10.3174Q18.9494 10.6275 19.2079 10.8145Q19.4641 11 19.78 11L0 11L0 -11L19.78 -11Q23.1434 -11 26.3338 -9.95314Q29.4491 -8.93096 32.1071 -7.00703Q34.7656 -5.08284 36.7096 -2.44284Q38.701 0.261611 39.7524 3.46259L47.0024 25.5726L26.0976 32.4274Z " /><path  id="并集" style="stroke:#000000; stroke-width:22; stroke-opacity:1; stroke-dasharray:0 0" transform="translate(25 50.00000000000005)  rotate(0 119.49999999999999 104.5)" d="" /></g></g></svg>