<svg xmlns="http://www.w3.org/2000/svg" xmlns:xlink="http://www.w3.org/1999/xlink" width="16" height="16" viewBox="0 0 16 16" fill="none"><defs><rect id="path_0" x="0" y="0" width="16" height="16" /></defs><g opacity="1" transform="translate(0 0)  rotate(0 8 8)"><mask id="bg-mask-0" fill="white"><use xlink:href="#path_0"></use></mask><g mask="url(#bg-mask-0)" ><path  id="并集" style="stroke:#000000; stroke-width:1.1; stroke-opacity:1; stroke-dasharray:0 0" transform="translate(2.0779220779220777 2.0779220779220777)  rotate(0 5.922077922077921 5.922077922077921)" d="M2.53,0C1.05,0 0,0.68 0,2.29L0,5.66L0,9.56C0,11.17 1.05,11.84 2.53,11.84L9.34,11.84C11.12,11.84 11.84,11.01 11.84,9.56L11.84,5.66L11.84,2.29C11.84,0.83 11.12,0 9.34,0L2.53,0Z " /><path  id="路径 1" style="stroke:#000000; stroke-width:1.1; stroke-opacity:1; stroke-dasharray:0 0" transform="translate(4.1558441558441555 4)  rotate(0 3.844155844155844 3.844155844155844)" d="M7.6,6.88L4.26,0.28C4.07,-0.1 3.61,-0.09 3.43,0.28L0.07,6.85C-0.13,7.23 0.12,7.69 0.62,7.69L7.08,7.69C7.58,7.69 7.83,7.25 7.6,6.88Z " /></g></g></svg>