<svg xmlns="http://www.w3.org/2000/svg" xmlns:xlink="http://www.w3.org/1999/xlink" width="22" height="22" viewBox="0 0 22 22" fill="none"><defs><rect id="path_0" x="0" y="0" width="22" height="22" /></defs><g opacity="1" transform="translate(0 0)  rotate(0 11 11)"><mask id="bg-mask-0" fill="white"><use xlink:href="#path_0"></use></mask><g mask="url(#bg-mask-0)" ><path  id="并集" style="stroke:#000000; stroke-width:1.54; stroke-opacity:1; stroke-dasharray:0 0" transform="translate(2.857142857142857 2.857142857142857)  rotate(0 8.142857142857144 8.142857142857144)" d="M3.47,0C1.44,0 0,0.93 0,3.14L0,7.79L0,13.14C0,15.36 1.44,16.29 3.47,16.29L12.84,16.29C15.29,16.29 16.29,15.14 16.29,13.14L16.29,7.79L16.29,3.14C16.29,1.14 15.29,0 12.84,0L3.47,0Z " /><path  id="路径 1" style="stroke:#000000; stroke-width:1.54; stroke-opacity:1; stroke-dasharray:0 0" transform="translate(5.714285714285714 5.5)  rotate(0 5.285714285714286 5.285714285714286)" d="M10.45,9.47L5.86,0.39C5.6,-0.13 4.96,-0.13 4.71,0.39L0.1,9.42C-0.18,9.95 0.17,10.57 0.86,10.57L9.74,10.57C10.42,10.57 10.77,9.97 10.45,9.47Z " /></g></g></svg>