<svg xmlns="http://www.w3.org/2000/svg" xmlns:xlink="http://www.w3.org/1999/xlink" width="30" height="30" viewBox="0 0 30 30" fill="none"><defs><rect id="path_0" x="0" y="0" width="30" height="30" /></defs><g opacity="1" transform="translate(0 0)  rotate(0 15 15)"><mask id="bg-mask-0" fill="white"><use xlink:href="#path_0"></use></mask><g mask="url(#bg-mask-0)" ><path  id="并集" style="stroke:#000000; stroke-width:1.9799999999999998; stroke-opacity:1; stroke-dasharray:0 0" transform="translate(3.8961038961038965 3.8961038961038965)  rotate(0 11.103896103896105 11.103896103896105)" d="M4.74,0C1.97,0 0,1.27 0,4.29L0,10.62L0,17.92C0,20.94 1.97,22.21 4.74,22.21L17.51,22.21C20.85,22.21 22.21,20.65 22.21,17.92L22.21,10.62L22.21,4.29C22.21,1.56 20.85,0 17.51,0L4.74,0Z " /><path  id="路径 1" style="stroke:#000000; stroke-width:1.9799999999999998; stroke-opacity:1; stroke-dasharray:0 0" transform="translate(7.792207792207793 7.5)  rotate(0 7.207792207792207 7.207792207792207)" d="M14.26,12.91L7.99,0.53C7.63,-0.18 6.76,-0.18 6.43,0.53L0.13,12.85C-0.25,13.56 0.23,14.42 1.17,14.42L13.28,14.42C14.21,14.42 14.69,13.6 14.26,12.91Z " /></g></g></svg>