<svg xmlns="http://www.w3.org/2000/svg" xmlns:xlink="http://www.w3.org/1999/xlink" width="42" height="42" viewBox="0 0 42 42" fill="none"><defs><rect id="path_0" x="0" y="0" width="42" height="42" /></defs><g opacity="1" transform="translate(0 0)  rotate(0 21 21)"><mask id="bg-mask-0" fill="white"><use xlink:href="#path_0"></use></mask><g mask="url(#bg-mask-0)" ><path  id="并集" style="stroke:#000000; stroke-width:3.08; stroke-opacity:1; stroke-dasharray:0 0" transform="translate(5.454545454545455 5.454545454545455)  rotate(0 15.545454545454545 15.545454545454545)" d="M6.63,0C2.75,0 0,1.77 0,6L0,14.86L0,25.09C0,29.32 2.75,31.09 6.63,31.09L24.52,31.09C29.19,31.09 31.09,28.91 31.09,25.09L31.09,14.86L31.09,6C31.09,2.18 29.19,0 24.52,0L6.63,0Z " /><path  id="路径 1" style="stroke:#000000; stroke-width:3.08; stroke-opacity:1; stroke-dasharray:0 0" transform="translate(10.90909090909091 10.5)  rotate(0 10.090909090909092 10.090909090909092)" d="M19.96,18.07L11.19,0.75C10.69,-0.25 9.47,-0.25 9,0.75L0.18,17.99C-0.35,18.99 0.33,20.18 1.64,20.18L18.59,20.18C19.89,20.18 20.56,19.04 19.96,18.07Z " /></g></g></svg>