<svg xmlns="http://www.w3.org/2000/svg" xmlns:xlink="http://www.w3.org/1999/xlink" width="308" height="308" viewBox="0 0 308 308" fill="none"><defs><rect id="path_0" x="0" y="0" width="308" height="308" /></defs><g opacity="1" transform="translate(0 0)  rotate(0 154 154)"><mask id="bg-mask-0" fill="white"><use xlink:href="#path_0"></use></mask><g mask="url(#bg-mask-0)" ><path id="拼合图形" fill-rule="evenodd" style="fill:#000000" transform="translate(40 42)  rotate(0 92.36929460580912 112)" opacity="1" d="M103.49,172.24C103.49,143.65 80.32,120.48 51.74,120.48C23.16,120.48 0,143.65 0,172.24C0,200.83 23.16,224 51.74,224C80.32,224 103.49,200.83 103.49,172.24Z M92.49 172.24L92.49 82.59L92.49 -11L115.673 -11L117.994 -3.10092Q118.026 -2.99145 118.133 -2.65954Q118.389 -1.86967 118.729 -0.919699Q119.863 2.24628 121.384 5.67676Q123.53 10.5176 126.127 15.1276Q129.354 20.8583 133.081 25.8762Q137.425 31.7249 142.305 36.4083Q147.775 41.6586 153.817 45.3415Q167.808 53.87 184.74 53.87L184.74 75.87Q172.707 75.87 161.623 72.6444Q151.513 69.702 142.367 64.1266Q134.274 59.1939 127.071 52.2811Q120.862 46.3218 115.419 38.9938Q110.865 32.8622 106.957 25.9229Q103.845 20.397 101.272 14.5951Q99.4227 10.4237 98.0162 6.49446Q97.2738 4.42045 96.8861 3.10092L107.44 0L107.44 11L103.49 11L103.49 0L114.49 0L114.49 82.59L114.49 172.24L92.49 172.24Z " /><path  id="拼合图形" style="stroke:#000000; stroke-width:22; stroke-opacity:1; stroke-dasharray:0 0" transform="translate(40 42)  rotate(0 92.36929460580912 112)" d="" /><path id="路径 1"  style="fill:#000000" transform="translate(230.5 136)  rotate(-90 0.5 55.00000000000001)" opacity="1" d="M-11 -11L-11 121L11 121L11 -11L-11 -11Z " /><path  id="路径 1" style="stroke:#000000; stroke-width:22; stroke-opacity:1; stroke-dasharray:0 0" transform="translate(230.5 136)  rotate(-90 0.5 55.00000000000001)" d="" /><path id="路径 1"  style="fill:#000000" transform="translate(230.5 91.5)  rotate(-90 0.5 55.00000000000001)" opacity="1" d="M-11 -11L-11 121L11 121L11 -11L-11 -11Z " /><path  id="路径 1" style="stroke:#000000; stroke-width:22; stroke-opacity:1; stroke-dasharray:0 0" transform="translate(230.5 91.5)  rotate(-90 0.5 55.00000000000001)" d="" /><path id="路径 1"  style="fill:#000000" transform="translate(208.5 202.5)  rotate(-90 0.5 33)" opacity="1" d="M-11 -11L-11 77L11 77L11 -11L-11 -11Z " /><path  id="路径 1" style="stroke:#000000; stroke-width:22; stroke-opacity:1; stroke-dasharray:0 0" transform="translate(208.5 202.5)  rotate(-90 0.5 33)" d="" /></g></g></svg>