<svg xmlns="http://www.w3.org/2000/svg" xmlns:xlink="http://www.w3.org/1999/xlink" width="308" height="308" viewBox="0 0 308 308" fill="none"><defs><rect id="path_0" x="0" y="0" width="308" height="308" /></defs><g opacity="1" transform="translate(0 0)  rotate(0 154 154)"><mask id="bg-mask-0" fill="white"><use xlink:href="#path_0"></use></mask><g mask="url(#bg-mask-0)" ><path  id="并集" style="stroke:#000000; stroke-width:22; stroke-opacity:1; stroke-dasharray:0 0" transform="translate(40 55)  rotate(0 114 99)" d="M228,99L228,44C228,16 214.08,0 179.78,0L48.63,0C20.18,0 0,13 0,44L0,99L0,154C0,185 20.18,198 48.63,198L179.78,198C214.08,198 228,182 228,154L228,99Z " /><path  id="路径 1" style="stroke:#000000; stroke-width:22; stroke-opacity:1; stroke-dasharray:0 0" transform="translate(103 104)  rotate(90 59.000000000000014 50)" d="M116.69,89.54L65.43,3.7C62.47,-1.24 55.36,-1.23 52.61,3.7L1.06,89.12C-2.04,94.09 1.91,100 9.59,100L108.69,100C116.28,100 120.23,94.32 116.69,89.54Z " /></g></g></svg>