<svg xmlns="http://www.w3.org/2000/svg" xmlns:xlink="http://www.w3.org/1999/xlink" width="308" height="308" viewBox="0 0 308 308" fill="none"><defs><rect id="path_0" x="0" y="0" width="308" height="308" /></defs><g opacity="1" transform="translate(0 0)  rotate(0 154 154)"><mask id="bg-mask-0" fill="white"><use xlink:href="#path_0"></use></mask><g mask="url(#bg-mask-0)" ><path id="并集" fill-rule="evenodd" style="fill:#000000" transform="translate(111.5 125.5)  rotate(90 42.5 86)" opacity="1" d="M-0.275901 -15.5539L7.6387 -7.91519L7.639 -7.9149L89.7987 71.3748Q92.9002 74.2799 94.5396 78.3282Q96.0793 82.1303 95.9966 86.2759Q95.9174 90.2377 94.3673 93.9075Q92.7882 97.6461 89.9273 100.499L7.639 179.915L7.6387 179.915L-0.275902 187.554L-15.5539 171.724L-7.63901 164.085L0.0498933 172.052L-7.6387 164.085L73.2735 86.001L-7.6387 7.91519L0 0L-7.639 7.9149L-15.5539 0.275901L-0.275901 -15.5539ZM74.5213 87.2052Q74.5111 87.1957 74.501 87.1856L74.5213 87.2052Z " /><path  id="并集" style="stroke:#000000; stroke-width:22; stroke-opacity:1; stroke-dasharray:0 0" transform="translate(111.5 125.5)  rotate(90 42.5 86)" d="" /><path id="路径 1"  style="fill:#000000" transform="translate(154 48)  rotate(0 0.5 100.5)" opacity="1" d="M11 -11L11 212L-11 212L-11 -11L11 -11Z " /><path  id="路径 1" style="stroke:#000000; stroke-width:22; stroke-opacity:1; stroke-dasharray:0 0" transform="translate(154 48)  rotate(0 0.5 100.5)" d="" /></g></g></svg>