<svg xmlns="http://www.w3.org/2000/svg" xmlns:xlink="http://www.w3.org/1999/xlink" width="308" height="308" viewBox="0 0 308 308" fill="none"><defs><rect id="path_0" x="0" y="0" width="308" height="308" /></defs><g opacity="1" transform="translate(0 0)  rotate(0 154 154)"><mask id="bg-mask-0" fill="white"><use xlink:href="#path_0"></use></mask><g mask="url(#bg-mask-0)" ><path id="并集" fill-rule="evenodd" style="fill:#000000" transform="translate(164.94 -10.82)  rotate(-45 49.56106572370665 104.46695226075424)" opacity="1" d="M-15.5563 -0.0415463L-7.79892 7.75737L0 0L-7.79879 7.7575L87.8871 103.951Q87.9694 104.036 88.0352 104.198Q88.1192 104.405 88.1234 104.615Q88.1258 104.734 88.1077 104.781Q88.1107 104.773 88.1086 104.771Q88.1004 104.764 88.0112 104.853L-7.79879 201.172L7.79879 216.688L103.609 120.368Q106.891 117.18 108.611 112.756Q110.208 108.651 110.119 104.18Q110.034 99.9007 108.419 95.923Q106.758 91.8301 103.733 88.6892L7.79892 -7.75737L7.79879 -7.7575L0.0415463 -15.5563L-15.5563 -0.0415463ZM-15.5563 208.975L0.0415497 224.49L7.79892 216.691L-7.79892 201.177L-15.5563 208.975Z " /><path  id="并集" style="stroke:#000000; stroke-width:22; stroke-opacity:1; stroke-dasharray:0 0" transform="translate(164.94 -10.82)  rotate(-45 49.56106572370665 104.46695226075424)" d="" /><path id="路径 1"  style="fill:#000000" transform="translate(55.5 64.00000000000023)  rotate(0 94.25 94.5)" opacity="1" d="M196.288 7.76787L204.056 -0.0205994L188.479 -15.5563L180.712 -7.76787L-7.78847 181.232L7.78847 196.768L196.288 7.76787ZM0.0205994 204.556L7.78846 196.768L-7.78848 181.232L-15.5564 189.021L0.0205994 204.556Z " /><path  id="路径 1" style="stroke:#000000; stroke-width:22; stroke-opacity:1; stroke-dasharray:0 0" transform="translate(55.5 64.00000000000023)  rotate(0 94.25 94.5)" d="" /></g></g></svg>