<svg xmlns="http://www.w3.org/2000/svg" xmlns:xlink="http://www.w3.org/1999/xlink" width="308" height="308" viewBox="0 0 308 308" fill="none"><defs><rect id="path_0" x="0" y="0" width="308" height="308" /></defs><g opacity="1" transform="translate(-0.000024414062522737368 0)  rotate(0 154 154)"><mask id="bg-mask-0" fill="white"><use xlink:href="#path_0"></use></mask><g mask="url(#bg-mask-0)" ><path id="并集" fill-rule="evenodd" style="fill:#000000" transform="translate(48.539999999999964 48)  rotate(0 51 107.5)" opacity="1" d="M109.799 7.75737L117.556 -0.0415497L101.958 -15.5563L94.2011 -7.75737L102 0L94.201 -7.7573L-4.389 91.3627Q-7.71762 94.5987 -9.46283 99.0801Q-11.0841 103.243 -10.9967 107.779Q-10.913 112.126 -9.27258 116.167Q-7.58458 120.325 -4.5086 123.515L94.201 222.757L101.218 215.778L94.2011 222.757L101.958 230.556L117.556 215.042L109.799 207.243L11.3286 108.245Q11.2015 108.113 11.1116 107.892Q11.0044 107.628 10.9992 107.356Q10.9941 107.088 11.209 106.877L109.799 7.75737Z " /><path  id="并集" style="stroke:#000000; stroke-width:22; stroke-opacity:1; stroke-dasharray:0 0" transform="translate(48.539999999999964 48)  rotate(0 51 107.5)" d="" /><path id="路径 1"  style="fill:#000000" transform="translate(52 153.5)  rotate(0 111.5 0.5)" opacity="1" d="M-10.9753 -11.0246L0.0246636 -11L223.025 -10.5L234.025 -10.4753L233.975 11.5246L222.975 11.5L-0.0246636 11L-11.0246 10.9753L-10.9753 -11.0246Z " /><path  id="路径 1" style="stroke:#000000; stroke-width:22; stroke-opacity:1; stroke-dasharray:0 0" transform="translate(52 153.5)  rotate(0 111.5 0.5)" d="" /></g></g></svg>