<svg xmlns="http://www.w3.org/2000/svg" xmlns:xlink="http://www.w3.org/1999/xlink" width="308" height="308" viewBox="0 0 308 308" fill="none"><defs><rect id="path_0" x="0" y="0" width="308" height="308" /></defs><g opacity="1" transform="translate(0 0)  rotate(0 154 154)"><mask id="bg-mask-0" fill="white"><use xlink:href="#path_0"></use></mask><g mask="url(#bg-mask-0)" ><path id="并集" fill-rule="evenodd" style="fill:#000000" transform="translate(43.85 109.62)  rotate(-45 49.56106572370665 104.46695226075424)" opacity="1" d="M106.921 7.75737L114.678 -0.0415497L99.0806 -15.5563L91.3232 -7.75737L106.921 7.75737ZM11.1192 104.077L106.919 7.75709L91.3208 -7.75709L-4.4792 88.5629Q-7.75895 91.7488 -9.48084 96.1694Q-11.0797 100.274 -10.9929 104.746Q-10.9099 109.029 -9.29249 113.01Q-7.62753 117.108 -4.59373 120.25L91.3208 216.687L106.919 201.173L11.2337 104.97Q11.1536 104.887 11.0894 104.729Q11.0069 104.526 11.0029 104.319Q11.0006 104.201 11.019 104.154Q11.0164 104.161 11.0182 104.163Q11.0261 104.169 11.1192 104.077ZM114.678 208.975L106.921 201.177L91.3232 216.691L99.0806 224.49L114.678 208.975Z " /><path  id="并集" style="stroke:#000000; stroke-width:22; stroke-opacity:1; stroke-dasharray:0 0" transform="translate(43.85 109.62)  rotate(-45 49.56106572370665 104.46695226075424)" d="" /><path id="路径 1"  style="fill:#000000" transform="translate(63.92 54.73)  rotate(0 94.25 94.5)" opacity="1" d="M188.479 -15.5564L180.712 -7.76787L196.288 7.76787L180.712 -7.76787L-7.78847 181.232L-15.5563 189.021L0.0206146 204.556L7.78848 196.768L196.288 7.76787L204.056 -0.0206146L188.479 -15.5564Z " /><path  id="路径 1" style="stroke:#000000; stroke-width:22; stroke-opacity:1; stroke-dasharray:0 0" transform="translate(63.92 54.73)  rotate(0 94.25 94.5)" d="" /></g></g></svg>