<svg xmlns="http://www.w3.org/2000/svg" xmlns:xlink="http://www.w3.org/1999/xlink" width="308" height="308" viewBox="0 0 308 308" fill="none"><defs><rect id="path_0" x="0" y="0" width="308" height="308" /></defs><g opacity="1" transform="translate(0 0)  rotate(0 154 154)"><mask id="bg-mask-0" fill="white"><use xlink:href="#path_0"></use></mask><g mask="url(#bg-mask-0)" ><path id="并集" fill-rule="evenodd" style="fill:#000000" transform="translate(158 48)  rotate(0 50.999999999999986 107.5)" opacity="1" d="M0.0415463 -15.5563L7.79892 -7.75737L0 0L7.799 -7.7573L106.389 91.3627Q109.718 94.5987 111.463 99.0801Q113.084 103.243 112.997 107.779Q112.913 112.126 111.273 116.167Q109.585 120.325 106.509 123.515L7.799 222.757L-0.774739 214.229L7.79892 222.757L0.0415497 230.556L-15.5563 215.042L-7.79892 207.243L90.6714 108.245Q90.7985 108.113 90.8884 107.892Q90.9956 107.628 91.0008 107.356Q91.0059 107.088 90.791 106.877L-7.79892 7.75737L-7.799 7.7573L-15.5563 -0.0415463L0.0415463 -15.5563Z " /><path  id="并集" style="stroke:#000000; stroke-width:22; stroke-opacity:1; stroke-dasharray:0 0" transform="translate(158 48)  rotate(0 50.999999999999986 107.5)" d="" /><path id="路径 1"  style="fill:#000000" transform="translate(33.54 153.5)  rotate(0 111.5 0.5)" opacity="1" d="M223.025 11L234.025 10.9753L233.975 -11.0246L222.975 -11L-0.0246636 -10.5L-11.0246 -10.4753L-10.9753 11.5246L0.0246636 11.5L223.025 11Z " /><path  id="路径 1" style="stroke:#000000; stroke-width:22; stroke-opacity:1; stroke-dasharray:0 0" transform="translate(33.54 153.5)  rotate(0 111.5 0.5)" d="" /></g></g></svg>