<svg xmlns="http://www.w3.org/2000/svg" xmlns:xlink="http://www.w3.org/1999/xlink" width="308" height="308" viewBox="0 0 308 308" fill="none"><defs><rect id="path_0" x="0" y="0" width="308" height="308" /></defs><g opacity="1" transform="translate(0 0)  rotate(0 154 154)"><mask id="bg-mask-0" fill="white"><use xlink:href="#path_0"></use></mask><g mask="url(#bg-mask-0)" ><path id="并集" fill-rule="evenodd" style="fill:#000000" transform="translate(163.94 109.62)  rotate(45 49.56106572370665 104.46695226075424)" opacity="1" d="M0.0415463 -15.5563L7.79879 -7.7575L7.79892 -7.75737L103.609 88.5625Q106.891 91.7504 108.611 96.1744Q110.208 100.279 110.119 104.75Q110.034 109.029 108.419 113.007Q106.758 117.1 103.733 120.241L7.79879 216.688L-7.79879 201.172L87.8871 104.979Q87.9694 104.894 88.0352 104.732Q88.1192 104.525 88.1234 104.315Q88.1258 104.196 88.1077 104.149Q88.1107 104.157 88.1086 104.159Q88.1004 104.166 88.0112 104.077L-7.79879 7.7575L0 0L-7.79892 7.75737L-15.5563 -0.0415463L0.0415463 -15.5563ZM0.0415497 224.49L7.79892 216.691L-7.79892 201.177L-15.5563 208.975L0.0415497 224.49Z " /><path  id="并集" style="stroke:#000000; stroke-width:22; stroke-opacity:1; stroke-dasharray:0 0" transform="translate(163.94 109.62)  rotate(45 49.56106572370665 104.46695226075424)" d="" /><path id="路径 1"  style="fill:#000000" transform="translate(54.5 54.73)  rotate(0 94.25 94.5)" opacity="1" d="M-15.5563 -0.0206046L-7.78847 7.76787L180.712 196.768L188.479 204.556L204.056 189.021L196.288 181.232L7.78847 -7.76787L0.0206046 -15.5563L-15.5563 -0.0206046Z " /><path  id="路径 1" style="stroke:#000000; stroke-width:22; stroke-opacity:1; stroke-dasharray:0 0" transform="translate(54.5 54.73)  rotate(0 94.25 94.5)" d="" /></g></g></svg>