<svg xmlns="http://www.w3.org/2000/svg" xmlns:xlink="http://www.w3.org/1999/xlink" width="308" height="308" viewBox="0 0 308 308" fill="none"><defs><rect id="path_0" x="0" y="0" width="308" height="308" /></defs><g opacity="1" transform="translate(0.00004882812481810106 0)  rotate(0 154 154)"><mask id="bg-mask-0" fill="white"><use xlink:href="#path_0"></use></mask><g mask="url(#bg-mask-0)" ><path id="并集" fill-rule="evenodd" style="fill:#000000" transform="translate(38.809999999999945 120)  rotate(0 115.18991646004906 48.49999999999999)" opacity="1" d="M231.317 -15.5281L223.084 -8.23269L223.084 -8.23244L118.336 84.5923Q117.322 85.4978 116.517 85.8505Q116.187 85.995 116.013 85.9969Q115.853 85.9985 115.547 85.8719Q114.786 85.5569 113.868 84.7694L7.218 -7.97063L-7.218 8.63063L99.432 101.371Q103.123 104.54 107.134 106.2Q111.591 108.045 116.245 107.996Q120.905 107.947 125.344 106.002Q129.356 104.244 132.984 101.008L237.676 8.2326L245.908 0.936966L231.317 -15.5281ZM-15.5186 1.41087L-7.21808 8.62895L7.21808 -7.97218L-1.08249 -15.1903L-15.5186 1.41087Z " /><path  id="并集" style="stroke:#000000; stroke-width:22; stroke-opacity:1; stroke-dasharray:0 0" transform="translate(38.809999999999945 120)  rotate(0 115.18991646004906 48.49999999999999)" d="" /></g></g></svg>