<svg xmlns="http://www.w3.org/2000/svg" xmlns:xlink="http://www.w3.org/1999/xlink" width="308" height="308" viewBox="0 0 308 308" fill="none"><defs><rect id="path_0" x="0" y="0" width="308" height="308" /></defs><g opacity="1" transform="translate(0 0)  rotate(0 154 154)"><mask id="bg-mask-0" fill="white"><use xlink:href="#path_0"></use></mask><g mask="url(#bg-mask-0)" ><path id="并集" fill-rule="evenodd" style="fill:#000000" transform="translate(111.5 16.5)  rotate(-90 42.5 86)" opacity="1" d="M-15.5539 0.275901L-7.639 7.9149L0 0L-7.6387 7.91519L73.2735 85.999L-7.6387 164.085L-0.0806444 171.916L-7.639 164.085L-15.5539 171.724L-0.275894 187.554L7.6387 179.915L7.63901 179.915L89.7987 100.625Q92.9002 97.7201 94.5396 93.6718Q96.0793 89.8697 95.9966 85.7241Q95.9174 81.7623 94.3673 78.0925Q92.7882 74.3539 89.9273 71.501L7.639 -7.9149L7.6387 -7.91519L-0.275901 -15.5539L-15.5539 0.275901Z " /><path  id="并集" style="stroke:#000000; stroke-width:22; stroke-opacity:1; stroke-dasharray:0 0" transform="translate(111.5 16.5)  rotate(-90 42.5 86)" d="" /><path id="路径 1"  style="fill:#000000" transform="translate(154 65)  rotate(0 0.5 100.5)" opacity="1" d="M-11 -11L-11 212L11 212L11 -11L-11 -11Z " /><path  id="路径 1" style="stroke:#000000; stroke-width:22; stroke-opacity:1; stroke-dasharray:0 0" transform="translate(154 65)  rotate(0 0.5 100.5)" d="" /></g></g></svg>