<svg xmlns="http://www.w3.org/2000/svg" xmlns:xlink="http://www.w3.org/1999/xlink" width="308" height="308" viewBox="0 0 308 308" fill="none"><defs><rect id="path_0" x="0" y="0" width="308" height="308" /></defs><g opacity="1" transform="translate(0 0)  rotate(0 154 154)"><mask id="bg-mask-0" fill="white"><use xlink:href="#path_0"></use></mask><g mask="url(#bg-mask-0)" ><path id="并集" fill-rule="evenodd" style="fill:#000000" transform="translate(43.85 -10.82)  rotate(45 49.56106572370665 104.46695226075424)" opacity="1" d="M99.0806 -15.5563L91.3232 -7.75737L106.921 7.75737L114.678 -0.0415497L99.0806 -15.5563ZM-4.4792 120.367L91.3208 216.687L106.919 201.173L11.1192 104.853Q11.0261 104.761 11.0182 104.767Q11.0164 104.769 11.019 104.776Q11.0006 104.729 11.0029 104.611Q11.0069 104.404 11.0894 104.201Q11.1536 104.043 11.2337 103.96L106.919 7.75709L91.3208 -7.75709L-4.59373 88.6798Q-7.62754 91.8222 -9.29249 95.92Q-10.9099 99.9006 -10.9929 104.184Q-11.0797 108.656 -9.48084 112.761Q-7.75895 117.181 -4.4792 120.367ZM91.3232 216.691L99.0806 224.49L114.678 208.975L106.921 201.177L91.3232 216.691Z " /><path  id="并集" style="stroke:#000000; stroke-width:22; stroke-opacity:1; stroke-dasharray:0 0" transform="translate(43.85 -10.82)  rotate(45 49.56106572370665 104.46695226075424)" d="" /><path id="路径 1"  style="fill:#000000" transform="translate(63.92 64)  rotate(0 94.25 94.5)" opacity="1" d="M0.0206046 -15.5563L196.288 181.232L204.056 189.021L188.479 204.556L180.712 196.768L-7.78847 7.76787L-15.5563 -0.0206046L0.0206046 -15.5563Z " /><path  id="路径 1" style="stroke:#000000; stroke-width:22; stroke-opacity:1; stroke-dasharray:0 0" transform="translate(63.92 64)  rotate(0 94.25 94.5)" d="" /></g></g></svg>