<svg xmlns="http://www.w3.org/2000/svg" xmlns:xlink="http://www.w3.org/1999/xlink" width="308" height="308" viewBox="0 0 308 308" fill="none"><defs><rect id="path_0" x="0" y="0" width="308" height="308" /></defs><g opacity="1" transform="translate(0 0)  rotate(0 154 154)"><mask id="bg-mask-0" fill="white"><use xlink:href="#path_0"></use></mask><g mask="url(#bg-mask-0)" ><path id="圆形 1"  style="fill:#000000" transform="translate(95 201)  rotate(0 59 11.999999999999995)" opacity="1" d="M-0.140854 -15.5557L7.70743 -7.84828L0 0L7.70769 -7.84802Q12.6478 -2.99621 18.4304 0.840324Q24.2695 4.71437 30.7419 7.40267Q37.3349 10.1411 44.3517 11.551Q51.5627 13 59 13Q66.4373 13 73.6483 11.551Q80.6651 10.1411 87.2581 7.40267Q93.7304 4.71438 99.5696 0.840327Q105.352 -2.99619 110.292 -7.84802L118.083 0.0846788L110.293 -7.84828L118.141 -15.5557L133.556 0.140854L125.708 7.84802L125.707 7.84828Q119.267 14.1735 111.732 19.1725Q104.127 24.2184 95.6969 27.7198Q87.1128 31.2852 77.9823 33.1199Q68.6257 35 59 35Q49.3743 35 40.0177 33.1199Q30.8872 31.2852 22.3031 27.7198Q13.8732 24.2184 6.2677 19.1725Q-1.26705 14.1735 -7.70743 7.84828L-7.70769 7.84802L-15.5557 0.140854L-0.140854 -15.5557Z " /><path  id="圆形 1" style="stroke:#000000; stroke-width:22; stroke-opacity:1; stroke-dasharray:0 0" transform="translate(95 201)  rotate(0 59 11.999999999999995)" d="" /><path  id="圆形 1" style="stroke:#000000; stroke-width:22; stroke-opacity:1; stroke-dasharray:0 0" transform="translate(40.5 40.5)  rotate(0 113.5 113.5)" d="M113.5,0C50.82,0 0,50.82 0,113.5C0,176.18 50.82,227 113.5,227C176.18,227 227,176.18 227,113.5C227,50.82 176.18,0 113.5,0Z " /></g></g></svg>