<svg xmlns="http://www.w3.org/2000/svg" xmlns:xlink="http://www.w3.org/1999/xlink" width="308" height="308" viewBox="0 0 308 308" fill="none"><defs><rect id="path_0" x="0" y="0" width="308" height="308" /></defs><g opacity="1" transform="translate(0 0)  rotate(0 154 154)"><mask id="bg-mask-0" fill="white"><use xlink:href="#path_0"></use></mask><g mask="url(#bg-mask-0)" ><path  id="圆形 1" style="stroke:#000000; stroke-width:22; stroke-opacity:1; stroke-dasharray:0 0" transform="translate(71 71)  rotate(0 83 83)" d="M83,0C37.16,0 0,37.16 0,83C0,128.84 37.16,166 83,166C128.84,166 166,128.84 166,83C166,37.16 128.84,0 83,0Z " /><path id="路径 1"  style="fill:#000000" transform="translate(49 60)  rotate(0 0.0005 11.5)" opacity="1" d="M10.9995 -11.0005L11 -0.000478261L0 0L11 0L11 22.9995L11.001 22.9995L11.0015 33.9995L-10.9985 34.0005L-10.999 23.0005L-0.0209566 23L-11 23L-11 0L-11.0005 -10.9995L10.9995 -11.0005Z " /><path  id="路径 1" style="stroke:#000000; stroke-width:22; stroke-opacity:1; stroke-dasharray:0 0" transform="translate(49 60)  rotate(0 0.0005 11.5)" d="" /><path id="路径 1"  style="fill:#000000" transform="translate(154 17)  rotate(0 0.0005 11.5)" opacity="1" d="M10.9995 -11.0005L11 -0.000478261L0 0L11 0L11 22.9995L11.001 22.9995L11.0015 33.9995L-10.9985 34.0005L-10.999 23.0005L-0.0209566 23L-11 23L-11 0L-11.0005 -10.9995L10.9995 -11.0005Z " /><path  id="路径 1" style="stroke:#000000; stroke-width:22; stroke-opacity:1; stroke-dasharray:0 0" transform="translate(154 17)  rotate(0 0.0005 11.5)" d="" /><path id="路径 1"  style="fill:#000000" transform="translate(154 266)  rotate(0 0.0005 11.5)" opacity="1" d="M10.9995 -11.0005L11 -0.000478261L0 0L11 0L11 22.9995L11.001 22.9995L11.0015 33.9995L-10.9985 34.0005L-10.999 23.0005L-0.0209566 23L-11 23L-11 0L-11.0005 -10.9995L10.9995 -11.0005Z " /><path  id="路径 1" style="stroke:#000000; stroke-width:22; stroke-opacity:1; stroke-dasharray:0 0" transform="translate(154 266)  rotate(0 0.0005 11.5)" d="" /><path id="路径 1"  style="fill:#000000" transform="translate(286 142.5)  rotate(0 0.0005 11.5)" opacity="1" d="M10.9995 -11.0005L11 -0.000478261L0 0L11 0L11 22.9995L11.001 22.9995L11.0015 33.9995L-10.9985 34.0005L-10.999 23.0005L-0.0209566 23L-11 23L-11 0L-11.0005 -10.9995L10.9995 -11.0005Z " /><path  id="路径 1" style="stroke:#000000; stroke-width:22; stroke-opacity:1; stroke-dasharray:0 0" transform="translate(286 142.5)  rotate(0 0.0005 11.5)" d="" /><path id="路径 1"  style="fill:#000000" transform="translate(21 142.5)  rotate(0 0.0005 11.5)" opacity="1" d="M10.9995 -11.0005L11 -0.000478261L0 0L11 0L11 22.9995L11.001 22.9995L11.0015 33.9995L-10.9985 34.0005L-10.999 23.0005L-0.0209566 23L-11 23L-11 0L-11.0005 -10.9995L10.9995 -11.0005Z " /><path  id="路径 1" style="stroke:#000000; stroke-width:22; stroke-opacity:1; stroke-dasharray:0 0" transform="translate(21 142.5)  rotate(0 0.0005 11.5)" d="" /><path id="路径 1"  style="fill:#000000" transform="translate(259 60)  rotate(0 0.0005 11.5)" opacity="1" d="M10.9995 -11.0005L11 -0.000478261L0 0L11 0L11 22.9995L11.001 22.9995L11.0015 33.9995L-10.9985 34.0005L-10.999 23.0005L-0.0209566 23L-11 23L-11 0L-11.0005 -10.9995L10.9995 -11.0005Z " /><path  id="路径 1" style="stroke:#000000; stroke-width:22; stroke-opacity:1; stroke-dasharray:0 0" transform="translate(259 60)  rotate(0 0.0005 11.5)" d="" /><path id="路径 1"  style="fill:#000000" transform="translate(49 223)  rotate(0 0.0005 11.5)" opacity="1" d="M10.9995 -11.0005L11 -0.000478261L0 0L11 0L11 22.9995L11.001 22.9995L11.0015 33.9995L-10.9985 34.0005L-10.999 23.0005L-0.0209566 23L-11 23L-11 0L-11.0005 -10.9995L10.9995 -11.0005Z " /><path  id="路径 1" style="stroke:#000000; stroke-width:22; stroke-opacity:1; stroke-dasharray:0 0" transform="translate(49 223)  rotate(0 0.0005 11.5)" d="" /><path id="路径 1"  style="fill:#000000" transform="translate(259 224)  rotate(0 0.0005 11.5)" opacity="1" d="M10.9995 -11.0005L11 -0.000478261L0 0L11 0L11 22.9995L11.001 22.9995L11.0015 33.9995L-10.9985 34.0005L-10.999 23.0005L-0.0209566 23L-11 23L-11 0L-11.0005 -10.9995L10.9995 -11.0005Z " /><path  id="路径 1" style="stroke:#000000; stroke-width:22; stroke-opacity:1; stroke-dasharray:0 0" transform="translate(259 224)  rotate(0 0.0005 11.5)" d="" /></g></g></svg>