<svg xmlns="http://www.w3.org/2000/svg" xmlns:xlink="http://www.w3.org/1999/xlink" width="308" height="308" viewBox="0 0 308 308" fill="none"><defs><rect id="path_0" x="0" y="0" width="308" height="308" /></defs><g opacity="1" transform="translate(0 0)  rotate(0 154 154)"><mask id="bg-mask-0" fill="white"><use xlink:href="#path_0"></use></mask><g mask="url(#bg-mask-0)" ><path  id="圆形 1" style="stroke:#000000; stroke-width:22; stroke-opacity:1; stroke-dasharray:0 0" transform="translate(54 33)  rotate(0 100 100)" d="M100,0C44.77,0 0,44.77 0,100C0,155.23 44.77,200 100,200C155.23,200 200,155.23 200,100C200,44.77 155.23,0 100,0Z " /><path id="圆形 1"  style="fill:#000000" transform="translate(69 243)  rotate(0 85 16)" opacity="1" d="M170.742 -15.5387L162.602 -8.1402L170 0L162.601 -8.13985Q155.169 -1.38393 146.455 3.96644Q137.633 9.38289 127.843 13.1462Q117.852 16.9868 107.213 18.9656Q96.2754 21 85 21Q73.7246 21 62.7868 18.9656Q52.1479 16.9869 42.1569 13.1462Q32.3669 9.38288 23.5453 3.96644Q14.8314 -1.38392 7.39885 -8.13985L-0.0812511 0.0893969L7.39846 -8.14019L-0.741731 -15.5387L-15.5387 0.741731L-7.39884 8.13985L-7.39846 8.14019Q1.56131 16.2843 12.034 22.7145Q22.5821 29.191 34.2631 33.6813Q46.1393 38.2466 58.7639 40.5947Q71.696 43 85 43Q98.304 43 111.236 40.5947Q123.861 38.2466 135.737 33.6813Q147.418 29.191 157.966 22.7145Q168.439 16.2843 177.398 8.14019L177.399 8.13986L185.539 0.74173L170.742 -15.5387Z " /><path  id="圆形 1" style="stroke:#000000; stroke-width:22; stroke-opacity:1; stroke-dasharray:0 0" transform="translate(69 243)  rotate(0 85 16)" d="" /></g></g></svg>