<svg xmlns="http://www.w3.org/2000/svg" xmlns:xlink="http://www.w3.org/1999/xlink" width="308" height="308" viewBox="0 0 308 308" fill="none"><defs><rect id="path_0" x="0" y="0" width="308" height="308" /></defs><g opacity="1" transform="translate(0 0)  rotate(0 154 154)"><mask id="bg-mask-0" fill="white"><use xlink:href="#path_0"></use></mask><g mask="url(#bg-mask-0)" ><path  id="圆形 1" style="stroke:#000000; stroke-width:22; stroke-opacity:1; stroke-dasharray:0 0" transform="translate(54 75)  rotate(0 100 100)" d="M100,0C44.77,0 0,44.77 0,100C0,155.23 44.77,200 100,200C155.23,200 200,155.23 200,100C200,44.77 155.23,0 100,0Z " /><path id="圆形 1"  style="fill:#000000" transform="translate(69 33)  rotate(0 85 16)" opacity="1" d="M12.034 9.2855Q1.56131 15.7157 -7.39846 23.8598L-7.39884 23.8602L-15.5387 31.2583L-0.741732 47.5387L7.39846 40.1402L-0.00875244 31.9904L7.39884 40.1398Q14.8314 33.3839 23.5453 28.0336Q32.3669 22.6171 42.1569 18.8538Q52.1479 15.0132 62.7868 13.0344Q73.7246 11 85 11Q96.2754 11 107.213 13.0344Q117.852 15.0132 127.843 18.8538Q137.633 22.6171 146.455 28.0336Q155.169 33.3839 162.601 40.1398L170.009 31.9896L162.602 40.1402L170.742 47.5387L185.539 31.2583L177.399 23.8601L177.398 23.8598Q168.439 15.7157 157.966 9.2855Q147.418 2.80899 135.737 -1.68126Q123.861 -6.24658 111.236 -8.59469Q98.304 -11 85 -11Q71.696 -11 58.7639 -8.59469Q46.1393 -6.24658 34.2631 -1.68126Q22.5821 2.80902 12.034 9.2855Z " /><path  id="圆形 1" style="stroke:#000000; stroke-width:22; stroke-opacity:1; stroke-dasharray:0 0" transform="translate(69 33)  rotate(0 85 16)" d="" /></g></g></svg>