<svg xmlns="http://www.w3.org/2000/svg" xmlns:xlink="http://www.w3.org/1999/xlink" width="308" height="308" viewBox="0 0 308 308" fill="none"><defs><rect id="path_0" x="0" y="0" width="308" height="308" /></defs><g opacity="1" transform="translate(0 0)  rotate(0 154 154)"><mask id="bg-mask-0" fill="white"><use xlink:href="#path_0"></use></mask><g mask="url(#bg-mask-0)" ><path id="圆形 1"  style="fill:#000000" transform="translate(95 83)  rotate(0 59 11.999999999999995)" opacity="1" d="M6.2677 4.82751Q-1.26704 9.82654 -7.70743 16.1517L-7.70769 16.152L-15.5557 23.8591L-0.140856 39.5557L7.70743 31.8483L-0.0105674 23.9892L7.70769 31.848Q12.6478 26.9962 18.4304 23.1597Q24.2696 19.2856 30.7419 16.5973Q37.3349 13.8589 44.3517 12.449Q51.5627 11 59 11Q66.4373 11 73.6483 12.449Q80.6651 13.8589 87.2581 16.5973Q93.7305 19.2856 99.5696 23.1597Q105.352 26.9962 110.292 31.848L118 24L110.293 31.8483L118.141 39.5557L133.556 23.8591L125.708 16.152L125.707 16.1517Q119.267 9.82655 111.732 4.82751Q104.127 -0.218437 95.6969 -3.71983Q87.1128 -7.28525 77.9823 -9.11991Q68.6257 -11 59 -11Q49.3743 -11 40.0177 -9.11991Q30.8872 -7.28525 22.3031 -3.71983Q13.8732 -0.218436 6.2677 4.82751Z " /><path  id="圆形 1" style="stroke:#000000; stroke-width:22; stroke-opacity:1; stroke-dasharray:0 0" transform="translate(95 83)  rotate(0 59 11.999999999999995)" d="" /><path  id="圆形 1" style="stroke:#000000; stroke-width:22; stroke-opacity:1; stroke-dasharray:0 0" transform="translate(40.5 40.5)  rotate(0 113.5 113.5)" d="M113.5,0C50.82,0 0,50.82 0,113.5C0,176.18 50.82,227 113.5,227C176.18,227 227,176.18 227,113.5C227,50.82 176.18,0 113.5,0Z " /></g></g></svg>