<svg xmlns="http://www.w3.org/2000/svg" xmlns:xlink="http://www.w3.org/1999/xlink" width="308" height="308" viewBox="0 0 308 308" fill="none"><defs><rect id="path_0" x="0" y="0" width="308" height="308" /></defs><g opacity="1" transform="translate(0 0)  rotate(0 154 154)"><rect fill="#FFFFFF" opacity="1" transform="translate(0 0)  rotate(0 154 154)" x="0" y="0" width="308" height="308" /><mask id="bg-mask-0" fill="white"><use xlink:href="#path_0"></use></mask><g mask="url(#bg-mask-0)" ><path  id="圆形 1" style="stroke:#000000; stroke-width:22; stroke-opacity:1; stroke-dasharray:0 0" transform="translate(48 48)  rotate(0 106 106)" d="M106,0C47.46,0 0,47.46 0,106C0,164.54 47.46,212 106,212C164.54,212 212,164.54 212,106C212,47.46 164.54,0 106,0Z " /><path id="圆形 1"  style="fill:#000000" transform="translate(25.556103710517164 131.01331282923638)  rotate(-11.356106367207701 133 42.77974621477164)" opacity="1" d="M33.2294 -14.758L23.3906 -9.8387Q15.8172 -6.05195 9.53689 -1.16431Q3.38087 3.62664 -1.12134 9.15007Q-5.73359 14.8085 -8.24767 20.7868Q-11 27.3315 -11 33.67Q-11 41.4024 -7.68448 48.7029Q-4.59097 55.5146 1.25147 61.5892Q6.71146 67.2662 14.4481 72.1607Q21.9194 76.8873 31.3619 80.7889Q40.7269 84.6584 51.8174 87.6286Q63.006 90.625 75.6914 92.6365Q88.6273 94.6876 102.84 95.6697Q117.434 96.6782 133.096 96.5396Q164.234 96.2678 190.353 92.0177Q203.038 89.9534 214.162 86.9967Q225.253 84.0489 234.569 80.2733Q244.017 76.4443 251.461 71.835Q259.217 67.0329 264.679 61.4573Q270.557 55.4564 273.666 48.6847Q277 41.4223 277 33.67Q277 27.4397 274.648 21.3315Q272.344 15.3477 267.961 9.97477Q263.602 4.63281 257.433 0.20969Q251.18 -4.27401 243.316 -7.62801L243.316 -7.62958L233.199 -11.9469L224.564 8.2878L234.682 12.6051L242.307 -5.26404L234.685 12.6082Q240.325 15.0137 244.614 18.0887Q248.405 20.8073 250.914 23.8827Q253.076 26.5324 254.117 29.2363Q255 31.5286 255 33.67Q255 39.8986 248.962 46.063Q245.368 49.7324 239.88 53.13Q234.023 56.7565 226.306 59.8842Q218.269 63.1415 208.511 65.7349Q198.435 68.4131 186.819 70.3033Q174.844 72.2519 161.527 73.3144Q147.788 74.4105 132.904 74.5404Q118.096 74.6714 104.357 73.7221Q91.1131 72.8069 79.1368 70.9079Q67.5869 69.0765 57.5087 66.3775Q47.8031 63.7782 39.7631 60.4561Q32.0761 57.28 26.2101 53.5689Q20.7228 50.0974 17.1079 46.3389Q11 39.9882 11 33.67Q11 31.7692 12.032 29.3151Q13.319 26.2548 15.9313 23.0499Q18.8592 19.458 23.0487 16.1974Q27.6073 12.6497 33.2293 9.8387L43.0681 4.91935L33.2294 -14.758Z " /><path  id="圆形 1" style="stroke:#000000; stroke-width:22; stroke-opacity:1; stroke-dasharray:0 0" transform="translate(25.556103710517164 131.01331282923638)  rotate(-11.356106367207701 133 42.77974621477164)" d="" /></g></g></svg>