<svg xmlns="http://www.w3.org/2000/svg" xmlns:xlink="http://www.w3.org/1999/xlink" width="308" height="308" viewBox="0 0 308 308" fill="none"><defs><rect id="path_0" x="0" y="0" width="308" height="308" /></defs><g opacity="1" transform="translate(0 0)  rotate(0 154 154)"><mask id="bg-mask-0" fill="white"><use xlink:href="#path_0"></use></mask><g mask="url(#bg-mask-0)" ><path  id="并集" style="stroke:#000000; stroke-width:22; stroke-opacity:1; stroke-dasharray:0 0" transform="translate(40 40)  rotate(0 114 114)" d="M48.63,0C20.18,0 0,13 0,44L0,109L0,184C0,215 20.18,228 48.63,228L179.78,228C214.08,228 228,212 228,184L228,109L228,44C228,16 214.08,0 179.78,0L48.63,0Z " /><path  id="路径 1" style="stroke:#000000; stroke-width:22; stroke-opacity:1; stroke-dasharray:0 0" transform="translate(80 77)  rotate(0 74 74)" d="M146.36,132.52L82.06,5.48C78.36,-1.83 69.44,-1.82 65.99,5.48L1.33,131.9C-2.56,139.25 2.39,148 12.02,148L136.32,148C145.85,148 150.79,139.6 146.36,132.52Z " /></g></g></svg>