<svg xmlns="http://www.w3.org/2000/svg" xmlns:xlink="http://www.w3.org/1999/xlink" width="308" height="308" viewBox="0 0 308 308" fill="none"><defs><rect id="path_0" x="0" y="0" width="308" height="308" /></defs><g opacity="1" transform="translate(0 0)  rotate(0 154 154)"><mask id="bg-mask-0" fill="white"><use xlink:href="#path_0"></use></mask><g mask="url(#bg-mask-0)" ><path  id="并集" style="stroke:#000000; stroke-width:22; stroke-opacity:1; stroke-dasharray:0 0" transform="translate(60 36.5)  rotate(0 94 117.49999999999997)" d="M188,164L188,109L188,44C188,16 174.08,0 139.78,0L48.63,0C20.18,0 0,13 0,44L0,109L0,164L0,209C0,188 29.5,188 29.5,188L188,188L188,164Z M29.5,188C29.5,188 0,188 0,209C0,226.5 12.5,235 29.5,235L168.5,235C182,235 188,224.5 188,217.5L188,188L29.5,188Z " /><path id="路径 1"  style="fill:#000000" transform="translate(150.5 35.5)  rotate(-90 0.5 52)" opacity="1" d="M-11 -11L-11 115L11 115L11 -11L-11 -11Z " /><path  id="路径 1" style="stroke:#000000; stroke-width:22; stroke-opacity:1; stroke-dasharray:0 0" transform="translate(150.5 35.5)  rotate(-90 0.5 52)" d="" /><path id="路径 1"  style="fill:#000000" transform="translate(135.5 93.5)  rotate(-90 0.5 37)" opacity="1" d="M-11 -11L-11 85L11 85L11 -11L-11 -11Z " /><path  id="路径 1" style="stroke:#000000; stroke-width:22; stroke-opacity:1; stroke-dasharray:0 0" transform="translate(135.5 93.5)  rotate(-90 0.5 37)" d="" /></g></g></svg>