<svg xmlns="http://www.w3.org/2000/svg" xmlns:xlink="http://www.w3.org/1999/xlink" width="308" height="308" viewBox="0 0 308 308" fill="none"><defs><rect id="path_0" x="0" y="0" width="308" height="308" /></defs><g opacity="1" transform="translate(0.00007812500007275958 0)  rotate(0 154 154)"><mask id="bg-mask-0" fill="white"><use xlink:href="#path_0"></use></mask><g mask="url(#bg-mask-0)" ><path  id="并集" style="stroke:#000000; stroke-width:22; stroke-opacity:1; stroke-dasharray:0 0" transform="translate(35 152)  rotate(0 76 59.501)" d="M114,119C134.98,119 152,102.03 152,81.11C152,64.63 141.45,50.61 126.09,45.39C127.01,42.22 127.5,38.86 127.5,35.39C127.5,15.85 111.9,0 92.64,0C77.25,0 64.19,10.13 59.57,24.18C55.79,23.2 51.82,22.69 47.74,22.69C21.37,22.69 0,44.24 0,70.84C0,97.44 21.37,119 47.74,119C61.58,119 80.4,119 80.4,119C80.4,119 101.44,119 114,119Z " /><path id="并集" fill-rule="evenodd" style="fill:#000000" transform="translate(50 40)  rotate(0 104 114)" opacity="1" d="M135,0Z M135 -11Q136.376 -11 138.264 -10.7953Q141.725 -10.42 145.144 -9.4874Q150.019 -8.15788 154.231 -5.83735Q159.715 -2.81527 163.721 1.692L155.5 9L162.954 0.910196L207.742 42.1757L208.01 42.461Q211.867 46.5585 214.464 51.7525Q216.485 55.7948 217.651 60.3138Q218.479 63.5236 218.815 66.7078Q219 68.4695 219 69.75L219 119L219 184Q219 210.309 204.393 224.413Q196.635 231.904 185.101 235.551Q174.191 239 159.78 239L157.83 239L157.83 217L159.78 217Q170.796 217 178.469 214.574Q185.073 212.486 189.112 208.587Q192.925 204.905 194.87 199.16Q197 192.869 197 184L197 119L197 69.75Q197 69.833 197.001 69.8758Q197 69.8446 196.997 69.7795Q196.981 69.4428 196.935 69.0109Q196.771 67.4451 196.349 65.8112Q195.765 63.5489 194.786 61.5912Q193.633 59.2852 191.99 57.539L200 50L192.546 58.0898L147.643 16.7181L147.279 16.308Q145.785 14.6278 143.613 13.4311Q141.7 12.3766 139.356 11.7374Q137.619 11.2638 135.892 11.0765Q135.404 11.0235 135.012 11.0043Q134.93 11.0002 134.884 10.9992Q134.92 11 135 11L135 -11Z M141.33 0L141.33 62.5Q141.33 62.3536 141.326 62.2604Q141.326 62.2458 141.326 62.2419Q141.327 62.2577 141.329 62.2818Q141.35 62.5504 141.414 62.8877Q141.624 64.0054 142.097 64.8425Q142.562 65.6669 143.306 66.1061Q143.893 66.4526 144.752 66.6701Q146.056 67 147.83 67L208 67L208 89L147.83 89Q143.315 89 139.355 87.9978Q135.43 87.0044 132.12 85.0501Q129.03 83.2256 126.591 80.6334Q124.482 78.3917 122.938 75.6575Q120.677 71.6509 119.793 66.9561Q119.515 65.477 119.4 64.0502Q119.33 63.185 119.33 62.5L119.33 0L141.33 0Z M-11 109L-11 44Q-11 30.4256 -6.5483 19.7972Q-4.30337 14.4375 -0.959249 9.91499Q2.33301 5.46264 6.62908 1.90392Q14.721 -4.79917 25.975 -8.05185Q36.1753 -11 48.63 -11L135 -11L135 11L48.63 11Q39.2908 11 32.0835 13.0831Q25.2288 15.0643 20.6634 18.8461Q16.1285 22.6027 13.7436 28.2965Q11 34.8469 11 44L11 109L-11 109Z " /><path  id="并集" style="stroke:#000000; stroke-width:22; stroke-opacity:1; stroke-dasharray:0 0" transform="translate(50 40)  rotate(0 104 114)" d="" /></g></g></svg>