<svg xmlns="http://www.w3.org/2000/svg" xmlns:xlink="http://www.w3.org/1999/xlink" width="308" height="308" viewBox="0 0 308 308" fill="none"><defs><rect id="path_0" x="0" y="0" width="308" height="308" /></defs><g opacity="1" transform="translate(0 0)  rotate(0 154 154)"><mask id="bg-mask-0" fill="white"><use xlink:href="#path_0"></use></mask><g mask="url(#bg-mask-0)" ><path id="路径 1"  style="fill:#000000" transform="translate(123.53865484281687 165)  rotate(0 30.46134515718343 30.58695895164604)" opacity="1" d="M60.8907 -15.5563L53.1285 -7.76215L68.7169 7.76215L76.479 -0.0320091L60.8907 -15.5563ZM53.1259 -7.76223L-7.79409 53.4078L7.79409 68.9322L68.7141 7.76223L53.1259 -7.76223ZM-15.5563 61.2059L0.0320091 76.7302L7.79416 68.9361L-7.79416 53.4118L-15.5563 61.2059Z " /><path  id="路径 1" style="stroke:#000000; stroke-width:22; stroke-opacity:1; stroke-dasharray:0 0" transform="translate(123.53865484281687 165)  rotate(0 30.46134515718343 30.58695895164604)" d="" /><path id="路径 1"  style="fill:#000000" transform="translate(123.60735322894627 165.0627422811503)  rotate(0 30.392646771054004 30.524216670495747)" opacity="1" d="M-15.5563 -0.0335989L-7.79496 7.76136L0 0L-7.79475 7.76156L52.9919 68.8082L52.9903 68.8098L60.7517 76.6047L76.3416 61.082L68.5832 53.29L68.5848 53.2884L7.79496 -7.76136L7.79475 -7.76156L0.0335989 -15.5563L-15.5563 -0.0335989Z " /><path  id="路径 1" style="stroke:#000000; stroke-width:22; stroke-opacity:1; stroke-dasharray:0 0" transform="translate(123.60735322894627 165.0627422811503)  rotate(0 30.392646771054004 30.524216670495747)" d="" /><path  id="并集" style="stroke:#000000; stroke-width:22; stroke-opacity:1; stroke-dasharray:0 0" transform="translate(50 40)  rotate(0 104 114)" d="M135,0Z M0,184C0,215 20.18,228 48.63,228L159.78,228C194.08,228 208,212 208,184L208,119L208,69.75C208,69.75 208,58.5 200,50L155.5,9C147.5,0 135,0 135,0L48.63,0C20.18,0 0,13 0,44L0,119L0,184Z M130.33,0L130.33,62.5C130.33,62.5 130.33,78 147.83,78L208,78 " /></g></g></svg>