<svg xmlns="http://www.w3.org/2000/svg" xmlns:xlink="http://www.w3.org/1999/xlink" width="308" height="308" viewBox="0 0 308 308" fill="none"><defs><rect id="path_0" x="0" y="0" width="308" height="308" /></defs><g opacity="1" transform="translate(0 0)  rotate(0 154 154)"><mask id="bg-mask-0" fill="white"><use xlink:href="#path_0"></use></mask><g mask="url(#bg-mask-0)" ><path id="路径 1"  style="fill:#000000" transform="translate(116.21 194.84)  rotate(0 37.78832878797707 0.00010996019329923001)" opacity="1" d="M-11 -11L0 -11L75.58 -11L75.58 -10.9998L86.5767 -10.9997L86.5766 11.0003L75.5766 11.0002L75.5766 11L0 11L0 0L-3.20089e-05 11L-11 11L-11 -11Z " /><path  id="路径 1" style="stroke:#000000; stroke-width:22; stroke-opacity:1; stroke-dasharray:0 0" transform="translate(116.21 194.84)  rotate(0 37.78832878797707 0.00010996019329923001)" d="" /><path id="路径 1"  style="fill:#000000" transform="translate(153.95 159)  rotate(0 0.00010996019329923001 36.000000000000014)" opacity="1" d="M11.0002 3.35989e-05L11.0003 -11L-10.9997 -11L-10.9998 -3.35989e-05L0.000220299 0L-11 0L-11 72L-11 83L11 83L11 72L11 3.35983e-05L11.0002 3.35989e-05Z " /><path  id="路径 1" style="stroke:#000000; stroke-width:22; stroke-opacity:1; stroke-dasharray:0 0" transform="translate(153.95 159)  rotate(0 0.00010996019329923001 36.000000000000014)" d="" /><path  id="并集" style="stroke:#000000; stroke-width:22; stroke-opacity:1; stroke-dasharray:0 0" transform="translate(50 40)  rotate(0 104 114)" d="M135,0Z M208,119L208,69.75C208,69.75 208,58.5 200,50L155.5,9C147.5,0 135,0 135,0L48.63,0C20.18,0 0,13 0,44L0,119L0,184C0,215 20.18,228 48.63,228L159.78,228C194.08,228 208,212 208,184L208,119Z M130.33,0L130.33,62.5C130.33,62.5 130.33,78 147.83,78L208,78 " /></g></g></svg>