<svg xmlns="http://www.w3.org/2000/svg" xmlns:xlink="http://www.w3.org/1999/xlink" width="308" height="308" viewBox="0 0 308 308" fill="none"><defs><rect id="path_0" x="0" y="0" width="308" height="308" /></defs><g opacity="1" transform="translate(0 0)  rotate(0 154 154)"><mask id="bg-mask-0" fill="white"><use xlink:href="#path_0"></use></mask><g mask="url(#bg-mask-0)" ><path id="并集" fill-rule="evenodd" style="fill:#000000" transform="translate(138.5 137.81)  rotate(-90 16.50000000000071 33.687500000001435)" opacity="1" d="M-15.555 0.206538L-7.67422 7.88076L0 0L-7.67372 7.88125L18.8297 33.6849L-7.67172 59.4968L-7.67422 59.4942L-15.555 67.1685L-0.206535 82.93L7.67249 75.2574L7.67498 75.26L39.575 44.19Q41.7687 42.1266 42.9547 39.1693Q44.055 36.4258 43.9966 33.4506Q43.9414 30.6359 42.8548 28.0314Q41.7392 25.3576 39.706 23.3097L7.67422 -7.88076L7.67372 -7.88125L-0.206538 -15.555L-15.555 0.206538ZM24.0665 28.5844L24.225 28.43Q24.1445 28.5057 24.0665 28.5844Z " /><path  id="并集" style="stroke:#000000; stroke-width:22; stroke-opacity:1; stroke-dasharray:0 0" transform="translate(138.5 137.81)  rotate(-90 16.50000000000071 33.687500000001435)" d="" /><path id="路径 1"  style="fill:#000000" transform="translate(154.5 160.2)  rotate(0 0.0005 35.499999999999986)" opacity="1" d="M-11 -11L-11 82L11 82L11 -11L-11 -11Z " /><path  id="路径 1" style="stroke:#000000; stroke-width:22; stroke-opacity:1; stroke-dasharray:0 0" transform="translate(154.5 160.2)  rotate(0 0.0005 35.499999999999986)" d="" /><path  id="并集" style="stroke:#000000; stroke-width:22; stroke-opacity:1; stroke-dasharray:0 0" transform="translate(50 40)  rotate(0 104 114)" d="M135,0Z M155.5,9C147.5,0 135,0 135,0L48.63,0C20.18,0 0,13 0,44L0,119L0,184C0,215 20.18,228 48.63,228L159.78,228C194.08,228 208,212 208,184L208,119L208,69.75C208,69.75 208,58.5 200,50L155.5,9Z M130.33,0L130.33,62.5C130.33,62.5 130.33,78 147.83,78L208,78 " /></g></g></svg>