<svg xmlns="http://www.w3.org/2000/svg" xmlns:xlink="http://www.w3.org/1999/xlink" width="308" height="308" viewBox="0 0 308 308" fill="none"><defs><rect id="path_0" x="0" y="0" width="308" height="308" /></defs><g opacity="1" transform="translate(0 0)  rotate(0 154 154)"><mask id="bg-mask-0" fill="white"><use xlink:href="#path_0"></use></mask><g mask="url(#bg-mask-0)" ><path  id="并集" style="stroke:#000000; stroke-width:22; stroke-opacity:1; stroke-dasharray:0 0" transform="translate(40 47)  rotate(0 114 104)" d="M228,70C228,42 214.08,26 179.78,26L114.21,26L95.82,42.81C95.82,42.81 85.11,55.62 65.03,55.62L0,55.62L0,109L0,164C0,195 20.18,208 48.63,208L179.78,208C214.08,208 228,192 228,164L228,109L228,70Z M95.82,11C95.82,11 85.27,0 65.03,0L48.63,0C20.18,0 0,13 0,44L0,55.62L65.03,55.62C85.11,55.62 95.82,42.81 95.82,42.81L114.21,26L95.82,11Z " /></g></g></svg>