<svg xmlns="http://www.w3.org/2000/svg" xmlns:xlink="http://www.w3.org/1999/xlink" width="308" height="308" viewBox="0 0 308 308" fill="none"><defs><rect id="path_0" x="0" y="0" width="308" height="308" /></defs><g opacity="1" transform="translate(0 0)  rotate(0 154 154)"><mask id="bg-mask-0" fill="white"><use xlink:href="#path_0"></use></mask><g mask="url(#bg-mask-0)" ><path  id="圆形 1" style="stroke:#000000; stroke-width:22; stroke-opacity:1; stroke-dasharray:0 0" transform="translate(98 124)  rotate(0 22.5 22.5)" d="M22.5,0C10.07,0 0,10.07 0,22.5C0,34.93 10.07,45 22.5,45C34.93,45 45,34.93 45,22.5C45,10.07 34.93,0 22.5,0Z " /><path id="交集"  style="fill:#000000" transform="translate(59 165.87205543155642)  rotate(0 98.50000000000004 43.61990169284084)" opacity="1" d="" /><path  id="交集" style="stroke:#000000; stroke-width:22; stroke-opacity:1; stroke-dasharray:0 0" transform="translate(59 165.87205543155642)  rotate(0 98.50000000000004 43.61990169284084)" d="" /><path  id="并集" style="stroke:#000000; stroke-width:22; stroke-opacity:1; stroke-dasharray:0 0" transform="translate(50 40)  rotate(0 104 114)" d="M135,0Z M0,44L0,119L0,184C0,215 20.18,228 48.63,228L159.78,228C194.08,228 208,212 208,184L208,119L208,69.75C208,69.75 208,58.5 200,50L155.5,9C147.5,0 135,0 135,0L48.63,0C20.18,0 0,13 0,44Z M130.33,0L130.33,62.5C130.33,62.5 130.33,78 147.83,78L208,78 " /></g></g></svg>