<svg xmlns="http://www.w3.org/2000/svg" xmlns:xlink="http://www.w3.org/1999/xlink" width="308" height="308" viewBox="0 0 308 308" fill="none"><defs><rect id="path_0" x="0" y="0" width="308" height="308" /></defs><g opacity="1" transform="translate(0.00007812500007275958 0)  rotate(0 154 154)"><mask id="bg-mask-0" fill="white"><use xlink:href="#path_0"></use></mask><g mask="url(#bg-mask-0)" ><path  id="拼合图形" style="stroke:#000000; stroke-width:22; stroke-opacity:1; stroke-dasharray:0 0" transform="translate(40.5 37)  rotate(0 120.75 115.25)" d="M33.5 25.5C33.5 11.42 44.92 0 59 0C73.08 0 84.5 11.42 84.5 25.5C84.5 39.58 73.08 51 59 51C44.92 51 33.5 39.58 33.5 25.5Z M205 51C184.84 51 168.5 67.34 168.5 87.5C168.5 107.66 184.84 124 205 124C225.16 124 241.5 107.66 241.5 87.5C241.5 67.34 225.16 51 205 51Z M51.25 128C22.95 128 0 150.95 0 179.25C0 207.55 22.95 230.5 51.25 230.5C79.55 230.5 102.5 207.55 102.5 179.25C102.5 150.95 79.55 128 51.25 128Z M51.5 129L58.5 46 M104.5 170.5L185.5 117.5 M82.5 29L174 72.5 " /></g></g></svg>