<svg xmlns="http://www.w3.org/2000/svg" xmlns:xlink="http://www.w3.org/1999/xlink" width="308" height="308" viewBox="0 0 308 308" fill="none"><defs><rect id="path_0" x="0" y="0" width="308" height="308" /></defs><g opacity="1" transform="translate(0 0)  rotate(0 154 154)"><mask id="bg-mask-0" fill="white"><use xlink:href="#path_0"></use></mask><g mask="url(#bg-mask-0)" ><path id="拼合图形" fill-rule="evenodd" style="fill:#000000" transform="translate(92 132)  rotate(0 41 49.5)" opacity="1" d="M45.93,76.13C45.93,63.49 35.65,53.25 22.97,53.25C10.28,53.25 0,63.49 0,76.13C0,88.76 10.28,99 22.97,99C35.65,99 45.93,88.76 45.93,76.13Z M34.93 76.13L34.93 36.5L34.93 -11L55.913 -11L58.2403 -3.11319Q58.2277 -3.15562 58.2229 -3.17124Q58.2336 -3.13662 58.2523 -3.07926Q58.3365 -2.82014 58.4555 -2.48928Q58.8816 -1.30394 59.4643 0.0045228Q61.3598 4.26072 63.9686 7.75815Q67.3667 12.3138 71.4411 14.7869Q73.7009 16.1585 76.1656 16.8728Q78.9168 17.67 82 17.67L82 39.67Q75.7934 39.67 70.0423 38.0034Q64.7777 36.4778 60.0261 33.5937Q52.2918 28.8993 46.3339 20.9118Q42.2599 15.4499 39.3673 8.95485Q38.4537 6.90362 37.7525 4.95311Q37.3625 3.86803 37.1397 3.11319L47.69 0L47.69 11L45.93 11L45.93 0L56.93 0L56.93 36.5L56.93 76.13L34.93 76.13Z " /><path  id="拼合图形" style="stroke:#000000; stroke-width:22; stroke-opacity:1; stroke-dasharray:0 0" transform="translate(92 132)  rotate(0 41 49.5)" d="" /><path  id="并集" style="stroke:#000000; stroke-width:22; stroke-opacity:1; stroke-dasharray:0 0" transform="translate(50 40)  rotate(0 104 114)" d="M135,0Z M135,0L48.63,0C20.18,0 0,13 0,44L0,119L0,184C0,215 20.18,228 48.63,228L159.78,228C194.08,228 208,212 208,184L208,119L208,69.75C208,69.75 208,58.5 200,50L155.5,9C147.5,0 135,0 135,0Z M130.33,0L130.33,62.5C130.33,62.5 130.33,78 147.83,78L208,78 " /></g></g></svg>