<svg xmlns="http://www.w3.org/2000/svg" xmlns:xlink="http://www.w3.org/1999/xlink" width="308" height="308" viewBox="0 0 308 308" fill="none"><defs><rect id="path_0" x="0" y="0" width="308" height="308" /></defs><g opacity="1" transform="translate(0.00007812500007275958 0)  rotate(0 154 154)"><mask id="bg-mask-0" fill="white"><use xlink:href="#path_0"></use></mask><g mask="url(#bg-mask-0)" ><path id="路径 1"  style="fill:#000000" transform="translate(151.95499999999993 50.04500000000007)  rotate(-90 0.125 37.75)" opacity="1" d="M-11 -11L-11 86.5L11 86.5L11 -11L-11 -11Z " /><path  id="路径 1" style="stroke:#000000; stroke-width:22; stroke-opacity:1; stroke-dasharray:0 0" transform="translate(151.95499999999993 50.04500000000007)  rotate(-90 0.125 37.75)" d="" /><path id="路径 1"  style="fill:#000000" transform="translate(139.7874999999999 105.62750000000005)  rotate(-90 0.04250000000001844 25.500000000000004)" opacity="1" d="M11 51.0194L11.09 0.0194117L0.175002 0.000150003L11.085 0.0183333L11.1033 -10.9817L-10.8967 -11.0183L-10.915 -0.0183333L-10.91 -0.018325L-11 50.9806L6.47823e-05 51L-11 50.9817L-11.0183 61.9817L10.9816 62.0183L11 51.0194L11 51.0194Z " /><path  id="路径 1" style="stroke:#000000; stroke-width:22; stroke-opacity:1; stroke-dasharray:0 0" transform="translate(139.7874999999999 105.62750000000005)  rotate(-90 0.04250000000001844 25.500000000000004)" d="" /><path  id="并集" style="stroke:#000000; stroke-width:22; stroke-opacity:1; stroke-dasharray:0 0" transform="translate(70 40)  rotate(0 84 114)" d="M95,228Z M0,44L0,109L0,184C0,215 20.18,228 48.63,228L95,228C95,228 107.5,228 115.5,219L160,178C168,169.5 168,158.25 168,158.25L168,109L168,44C168,16 154.08,0 119.78,0L48.63,0C20.18,0 0,13 0,44Z M90.33,228L90.33,165.5C90.33,165.5 90.33,150 107.83,150L168,150 " /></g></g></svg>