<svg xmlns="http://www.w3.org/2000/svg" xmlns:xlink="http://www.w3.org/1999/xlink" width="308" height="308" viewBox="0 0 308 308" fill="none"><defs><rect id="path_0" x="0" y="0" width="308" height="308" /></defs><g opacity="1" transform="translate(0 0)  rotate(0 154 154)"><mask id="bg-mask-0" fill="white"><use xlink:href="#path_0"></use></mask><g mask="url(#bg-mask-0)" ><path id="圆形 1" fill-rule="evenodd" style="fill:#000000" transform="translate(91 143)  rotate(0 44 44)" opacity="1" d="M44,0C19.7,0 0,19.7 0,44C0,68.3 19.7,88 44,88C68.3,88 88,68.3 88,44C88,19.7 68.3,0 44,0Z M33 -10L33 55L98 55L98 33L55 33L55 -10L33 -10Z " /><path  id="圆形 1" style="stroke:#000000; stroke-width:22; stroke-opacity:1; stroke-dasharray:0 0" transform="translate(91 143)  rotate(0 44 44)" d="" /><path  id="并集" style="stroke:#000000; stroke-width:22; stroke-opacity:1; stroke-dasharray:0 0" transform="translate(50 40)  rotate(0 104 114)" d="M135,0Z M208,69.75C208,69.75 208,58.5 200,50L155.5,9C147.5,0 135,0 135,0L48.63,0C20.18,0 0,13 0,44L0,119L0,184C0,215 20.18,228 48.63,228L159.78,228C194.08,228 208,212 208,184L208,119L208,69.75Z M130.33,0L130.33,62.5C130.33,62.5 130.33,78 147.83,78L208,78 " /></g></g></svg>