<svg xmlns="http://www.w3.org/2000/svg" xmlns:xlink="http://www.w3.org/1999/xlink" width="308" height="308" viewBox="0 0 308 308" fill="none"><defs><rect id="path_0" x="0" y="0" width="308" height="308" /></defs><g opacity="1" transform="translate(0 0)  rotate(0 154 154)"><mask id="bg-mask-0" fill="white"><use xlink:href="#path_0"></use></mask><g mask="url(#bg-mask-0)" ><path id="路径 1"  style="fill:#000000" transform="translate(120 114)  rotate(0 32 40.54656245077964)" opacity="1" d="M-10.3468 24.5651Q-11 28.1169 -11 31.53L11 31.53Q11 30.1231 11.2903 28.5444Q11.6102 26.8051 12.2469 25.0669Q13.6534 21.2268 16.2455 18.2241Q19.0768 14.9443 22.9841 13.14Q27.5842 11.0158 33.5608 11.0001L33.5628 11.0002Q33.7491 11.0071 34.0067 11.0274Q35.0047 11.1063 36.1326 11.3128Q39.8138 11.9868 42.8787 13.6325Q46.8637 15.7723 49.253 19.3779Q52.4494 24.2016 52.9971 31.8544Q52.9536 34.2872 52.2557 36.4216Q51.5861 38.4692 50.2825 40.3431Q47.8152 43.8899 43.1555 46.8124Q39.4841 49.115 34.9886 50.7201Q33.5938 51.2181 32.3243 51.5734Q31.7924 51.7223 31.616 51.7614L23 53.6742L23 81.09L45 81.09L45 70.4463Q50.2615 68.3244 54.8445 65.4501Q63.3098 60.141 68.3425 52.9066Q71.492 48.3791 73.1662 43.2592Q75 37.651 75 31.53L75 31.185L74.9784 30.8406Q74.5371 23.813 72.6045 17.7713Q70.7607 12.0075 67.592 7.22554Q64.696 2.85523 60.7717 -0.579564Q57.3689 -3.55782 53.2863 -5.75002Q49.9027 -7.56686 46.1457 -8.7938Q43.1783 -9.76289 40.0949 -10.3275Q37.8595 -10.7368 35.7391 -10.9043Q34.5271 -11 33.65 -11Q28.1575 -11 23.093 -9.9209Q18.181 -8.87432 13.7612 -6.83343Q9.54727 -4.8876 5.88441 -2.08689Q2.44602 0.542186 -0.407972 3.84837Q-3.07084 6.93314 -5.13657 10.5038Q-7.07649 13.8571 -8.41095 17.5003Q-9.68941 20.9906 -10.3468 24.5651ZM-11 31.5319L-11 42.5319L11 42.5319L11 31.5319L-11 31.5319ZM45 92.0931L45 81.0931L23 81.0931L23 92.0931L45 92.0931Z " /><path  id="路径 1" style="stroke:#000000; stroke-width:22; stroke-opacity:1; stroke-dasharray:0 0" transform="translate(120 114)  rotate(0 32 40.54656245077964)" d="" /><path id="路径 1"  style="fill:#000000" transform="translate(154 230.5)  rotate(0 0.0005 0.25)" opacity="1" d="M-10.999 -11L-10.999 0L-11 0L-11 0.5L-10.999 0.5L-10.999 11.5L11.001 11.5L11.001 0.5L11 0.5L11 0L11.001 0L11.001 -11L-10.999 -11Z " /><path  id="路径 1" style="stroke:#000000; stroke-width:22; stroke-opacity:1; stroke-dasharray:0 0" transform="translate(154 230.5)  rotate(0 0.0005 0.25)" d="" /><path  id="并集" style="stroke:#000000; stroke-width:22; stroke-opacity:1; stroke-dasharray:0 0" transform="translate(50 40)  rotate(0 104 114)" d="M135,0Z M0,184C0,215 20.18,228 48.63,228L159.78,228C194.08,228 208,212 208,184L208,119L208,69.75C208,69.75 208,58.5 200,50L155.5,9C147.5,0 135,0 135,0L48.63,0C20.18,0 0,13 0,44L0,119L0,184Z " /></g></g></svg>