<svg xmlns="http://www.w3.org/2000/svg" xmlns:xlink="http://www.w3.org/1999/xlink" width="308" height="308" viewBox="0 0 308 308" fill="none"><defs><rect id="path_0" x="0" y="0" width="308" height="308" /></defs><g opacity="1" transform="translate(0 0)  rotate(0 154 154)"><mask id="bg-mask-0" fill="white"><use xlink:href="#path_0"></use></mask><g mask="url(#bg-mask-0)" ><path  id="并集" style="stroke:#000000; stroke-width:22; stroke-opacity:1; stroke-dasharray:0 0" transform="translate(35 40)  rotate(0 120.5 114)" d="M0,109L0,184C0,215 20.18,228 48.63,228L192.78,228C227.08,228 241,212 241,184L241,109L241,44C241,16 227.08,0 192.78,0L48.63,0C20.18,0 0,13 0,44L0,109Z " /><path id="并集" fill-rule="evenodd" style="fill:#000000" transform="translate(43 99)  rotate(0 116 58)" opacity="1" d="M0 -11L232 -11L232 11L0 11L0 -11Z M0 47L232 47L232 69L0 69L0 47Z M0 105L232 105L232 127L0 127L0 105Z " /><path  id="并集" style="stroke:#000000; stroke-width:22; stroke-opacity:1; stroke-dasharray:0 0" transform="translate(43 99)  rotate(0 116 58)" d="" /><path id="并集" fill-rule="evenodd" style="fill:#000000" transform="translate(68.50000000000017 139.49999999999994)  rotate(90 86 44.500000000000085)" opacity="1" d="M0 -11L172 -11L172 11L0 11L0 -11Z M0 78L172 78L172 100L0 100L0 78Z " /><path  id="并集" style="stroke:#000000; stroke-width:22; stroke-opacity:1; stroke-dasharray:0 0" transform="translate(68.50000000000017 139.49999999999994)  rotate(90 86 44.500000000000085)" d="" /></g></g></svg>