<svg xmlns="http://www.w3.org/2000/svg" xmlns:xlink="http://www.w3.org/1999/xlink" width="308" height="308" viewBox="0 0 308 308" fill="none"><defs><rect id="path_0" x="0" y="0" width="308" height="308" /></defs><g opacity="1" transform="translate(0 0)  rotate(0 154 154)"><mask id="bg-mask-0" fill="white"><use xlink:href="#path_0"></use></mask><g mask="url(#bg-mask-0)" ><path  id="路径 1" style="stroke:#000000; stroke-width:22; stroke-opacity:1; stroke-dasharray:0 0" transform="translate(89.17 143.83)  rotate(90 42.5 36.666666666666664)" d="M84.06,65.66L47.13,2.71C45,-0.91 39.88,-0.9 37.9,2.71L0.76,65.35C-1.47,69 1.37,73.33 6.91,73.33L78.29,73.33C83.76,73.33 86.6,69.17 84.06,65.66Z " /><path  id="并集" style="stroke:#000000; stroke-width:22; stroke-opacity:1; stroke-dasharray:0 0" transform="translate(50 40)  rotate(0 104 114)" d="M135,0Z M200,50L155.5,9C147.5,0 135,0 135,0L48.63,0C20.18,0 0,13 0,44L0,119L0,184C0,215 20.18,228 48.63,228L159.78,228C194.08,228 208,212 208,184L208,119L208,69.75C208,69.75 208,58.5 200,50Z M130.33,0L130.33,62.5C130.33,62.5 130.33,78 147.83,78L208,78 " /></g></g></svg>