<svg xmlns="http://www.w3.org/2000/svg" xmlns:xlink="http://www.w3.org/1999/xlink" width="308" height="308" viewBox="0 0 308 308" fill="none"><defs><rect id="path_0" x="0" y="0" width="308" height="308" /></defs><g opacity="1" transform="translate(0 0)  rotate(0 154 154)"><mask id="bg-mask-0" fill="white"><use xlink:href="#path_0"></use></mask><g mask="url(#bg-mask-0)" ><path id="圆形 1" fill-rule="evenodd" style="fill:#000000" transform="translate(60.49999999999999 74.33495934958886)  rotate(0 78.2 99.4983739837399)" opacity="1" d="M100.45,0C69.55,0 44.5,25.05 44.5,55.95C44.5,79.82 59.46,100.21 80.52,108.24C86.71,110.6 93.43,111.9 100.45,111.9C131.35,111.9 156.4,86.85 156.4,55.95C156.4,25.05 131.35,0 100.45,0Z M91.1536 111.055Q90.8435 112.227 90.2177 114.076Q89.0699 117.467 87.4473 121.277Q85.2211 126.504 82.3602 131.89Q78.8141 138.565 74.4734 145.137Q69.3672 152.867 63.3074 160.228Q56.4051 168.612 48.3927 176.361Q29.6331 194.504 5.52627 208.511L-5.52627 189.489Q16.2644 176.828 33.0985 160.547Q46.4693 147.616 56.1166 133.011Q59.878 127.317 62.9312 121.569Q65.3498 117.016 67.2065 112.656Q68.5003 109.618 69.379 107.022Q69.6343 106.268 69.8134 105.671Q69.8602 105.515 69.8916 105.404Q69.897 105.385 69.899 105.377Q69.8943 105.395 69.8864 105.425L91.1536 111.055Z " /><path  id="圆形 1" style="stroke:#000000; stroke-width:22; stroke-opacity:1; stroke-dasharray:0 0" transform="translate(60.49999999999999 74.33495934958886)  rotate(0 78.2 99.4983739837399)" d="" /><path  id="并集" style="stroke:#000000; stroke-width:22; stroke-opacity:1; stroke-dasharray:0 0" transform="translate(64.9 35.67)  rotate(0 91.80000000000004 93.50000000000006)" d="M35.25,19.54C22.46,29.9 20.49,48.68 30.85,61.48C31.53,62.32 33.24,63.43 32.99,63.85C32.73,64.27 30.87,63.68 29.8,63.68C13.34,63.68 0,77.03 0,93.5C0,109.97 13.34,123.32 29.8,123.32C30.87,123.32 32.59,122.46 32.99,123.15C33.39,123.83 31.53,124.69 30.85,125.52C20.49,138.32 22.46,157.1 35.25,167.46C48.04,177.82 66.8,175.85 77.16,163.05C78.26,161.7 78.68,158.45 80.04,158.8C81.4,159.16 80.37,162.18 80.76,163.88C84.46,179.93 100.46,189.93 116.49,186.23C132.53,182.52 142.53,166.52 138.82,150.47C138.58,149.42 137.34,148.05 137.94,147.39C138.54,146.74 139.77,148.47 140.74,148.95C155.53,156.17 173.36,150.02 180.58,135.22C187.79,120.42 181.65,102.57 166.86,95.35C165.29,94.59 162.07,94.5 162.07,93.5C162.07,92.5 165.29,92.42 166.86,91.65C181.65,84.43 187.79,66.58 180.58,51.78C173.36,36.98 155.53,30.83 140.74,38.05C139.77,38.53 138.19,39.81 137.94,39.6C137.69,39.4 138.58,37.58 138.82,36.53C142.53,20.48 132.53,4.48 116.49,0.77C100.46,-2.93 84.46,7.07 80.76,23.12C80.37,24.82 80.44,28.07 80.04,28.2C79.63,28.33 78.26,25.3 77.16,23.95C66.8,11.15 48.04,9.18 35.25,19.54Z " /></g></g></svg>