<svg xmlns="http://www.w3.org/2000/svg" xmlns:xlink="http://www.w3.org/1999/xlink" width="308" height="308" viewBox="0 0 308 308" fill="none"><defs><rect id="path_0" x="0" y="0" width="308" height="308" /></defs><g opacity="1" transform="translate(0 0)  rotate(0 154 154)"><mask id="bg-mask-0" fill="white"><use xlink:href="#path_0"></use></mask><g mask="url(#bg-mask-0)" ><path id="圆形 1"  style="fill:#000000" transform="translate(84 34)  rotate(0 76.99192931656756 121.69853368901789)" opacity="1" d="M93.731 88.51Q93.6231 89.4692 93.3952 91.1454Q92.9538 94.3912 92.3451 98.1207Q90.4127 109.96 87.5219 122.341Q83.473 139.682 78.0689 155.698Q71.2722 175.842 62.692 192.772L43.0681 182.828Q50.9328 167.308 57.2236 148.664Q62.2896 133.65 66.0981 117.339Q68.8198 105.682 70.6324 94.5768Q71.1939 91.1364 71.5958 88.1812Q71.7895 86.7567 71.869 86.0499L93.731 88.51Z M-1.45822 234.326Q12.6808 224.637 24.5026 210.483Q34.8391 198.108 43.194 182.586L62.566 193.014Q53.1539 210.499 41.3874 224.587Q27.6203 241.069 10.9782 252.474L-1.45822 234.326Z M51.0716 176.95Q51.5898 176.863 52.5896 176.697Q56.056 176.122 57.9262 175.799Q61.0645 175.257 63.7383 174.748Q70.5832 173.444 76.4331 171.959Q91.6672 168.091 103.193 162.241Q117.271 155.095 126.297 144.802Q136.777 132.851 140.708 116.307Q144.734 99.3786 141.641 82.083Q140.209 74.079 137.274 66.1702Q134.472 58.6219 130.371 51.3442Q126.456 44.3973 121.49 37.9286Q116.744 31.747 111.251 26.2748Q105.987 21.0307 100.337 16.7345Q94.9083 12.607 89.5079 9.64331L94.8 0L104.033 5.97911Q98.711 14.1977 92.1664 21.157Q86.3806 27.3095 79.3753 32.7445Q73.6735 37.1683 66.4611 41.6321Q63.657 43.3676 60.1866 45.3828Q58.1437 46.5691 54.1383 48.8436Q49.4772 51.4905 47.2353 52.8073Q43.608 54.9378 40.8641 56.7194Q37.6849 58.7837 35.1012 60.7543Q32.3005 62.8904 29.9794 65.0809Q24.9676 69.8108 21.5483 75.462Q17.6637 81.8822 15.3627 90.2096Q11.1115 105.598 11.0012 117.819Q10.9101 127.919 13.6809 136.13Q14.8739 139.665 16.6436 143.009Q18.2333 146.014 20.3868 149.043Q22.234 151.641 24.7522 154.603Q26.3228 156.45 29.537 160Q31.0365 161.656 31.776 162.485L15.364 177.135Q14.6756 176.364 13.2285 174.766Q9.78388 170.962 7.99127 168.853Q4.85589 165.165 2.45638 161.79Q-0.53528 157.582 -2.80169 153.299Q-5.40283 148.384 -7.16418 143.164Q-11.1225 131.435 -10.9979 117.621Q-10.8616 102.518 -5.8427 84.3504Q-2.73233 73.0936 2.72561 64.0731Q7.69293 55.8635 14.8795 49.0812Q18.0405 46.0979 21.7595 43.2614Q25.0055 40.7857 28.8834 38.2678Q32.0409 36.2176 36.0933 33.8374Q38.4735 32.4394 43.2746 29.713Q47.1877 27.4909 49.1391 26.3577Q52.3421 24.4978 54.8832 22.9251Q61.1066 19.0734 65.8895 15.3626Q71.5339 10.9833 76.1398 6.08556Q81.3241 0.572783 85.5669 -5.97911L91.1261 -14.5638L100.092 -9.6433Q106.924 -5.89389 113.653 -0.777863Q120.472 4.40761 126.777 10.6886Q133.305 17.1916 138.941 24.5318Q144.856 32.2376 149.537 40.5433Q154.492 49.3361 157.899 58.5148Q161.519 68.2685 163.297 78.2098Q165.185 88.7658 164.955 99.3149Q164.713 110.457 162.112 121.393Q159.437 132.648 154.381 142.402Q149.638 151.552 142.838 159.307Q131.013 172.792 113.15 181.859Q99.4473 188.814 81.8462 193.282Q75.3528 194.931 67.8563 196.359Q64.9957 196.904 61.6695 197.479Q59.727 197.814 56.191 198.401Q55.172 198.57 54.6884 198.65L51.0716 176.95Z " /><path  id="圆形 1" style="stroke:#000000; stroke-width:22; stroke-opacity:1; stroke-dasharray:0 0" transform="translate(84 34)  rotate(0 76.99192931656756 121.69853368901789)" d="" /></g></g></svg>