<svg xmlns="http://www.w3.org/2000/svg" xmlns:xlink="http://www.w3.org/1999/xlink" width="308" height="308" viewBox="0 0 308 308" fill="none"><defs><rect id="path_0" x="0" y="0" width="308" height="308" /></defs><g opacity="1" transform="translate(0 0)  rotate(0 154 154)"><mask id="bg-mask-0" fill="white"><use xlink:href="#path_0"></use></mask><g mask="url(#bg-mask-0)" ><path id="圆形 1"  style="fill:#000000" transform="translate(68 167.8496237520776)  rotate(0 20.5 53.57518812396157)" opacity="1" d="M30 -11L30 41.0286Q29.9907 41.2354 29.9636 41.5387Q29.8512 42.7958 29.5505 44.3878Q29.0974 46.7867 28.3029 49.4314Q27.2776 52.8447 25.7556 56.4163Q21.7687 65.7718 14.8315 75.2352Q5.94229 87.3614 -7.23382 98.8632L4.84417 112.699L-7.2341 98.8638L-15.5207 106.098L-1.05251 122.671L7.23409 115.437L7.23391 115.437Q22.2452 102.333 32.5747 88.242Q41.0125 76.7316 45.9944 65.0412Q47.9958 60.3448 49.3729 55.7606Q50.5003 52.0074 51.1682 48.4713Q51.6683 45.824 51.8762 43.4972Q52 42.1126 52 41.15L52 -11L30 -11Z " /><path  id="圆形 1" style="stroke:#000000; stroke-width:22; stroke-opacity:1; stroke-dasharray:0 0" transform="translate(68 167.8496237520776)  rotate(0 20.5 53.57518812396157)" d="" /><path id="圆形 1"  style="fill:#000000" transform="translate(124 206.59766192017196)  rotate(0 15 34.20135716387431)" opacity="1" d="M19 -11L19 19.9426Q18.9952 20.0185 18.9851 20.1313Q18.9157 20.9073 18.7225 21.9303Q18.0065 25.7197 16.1307 30.1209Q13.347 36.6525 8.47222 43.3023Q2.16096 51.9115 -7.23416 60.1134L7.23416 76.6866Q18.4641 66.8829 26.2153 56.3093Q32.5905 47.6128 36.3693 38.7466Q39.181 32.1494 40.34 26.0144Q40.7327 23.936 40.8977 22.0902Q41 20.946 41 20.11L41 -11L19 -11ZM-15.5207 67.3502L-1.0525 83.9234L7.2341 76.6893L-7.2341 60.1161L-15.5207 67.3502Z " /><path  id="圆形 1" style="stroke:#000000; stroke-width:22; stroke-opacity:1; stroke-dasharray:0 0" transform="translate(124 206.59766192017196)  rotate(0 15 34.20135716387431)" d="" /><path id="圆形 1"  style="fill:#000000" transform="translate(182.5835428593448 261.4606084672232)  rotate(0 5.708228570327553 6.771052930262371)" opacity="1" d="M-15.2004 -3.30871L-9.25456 5.94585L-0.00412188 0.00264822L-9.25164 5.95039Q-6.36372 10.4405 -3.2229 14.2955Q0.989563 19.4658 4.81492 22.3362L4.81264 22.3392L13.6098 28.9431L26.8174 11.3488L18.0203 4.74497L13.5873 10.6502L18.02 4.74Q17.2654 4.17402 16.2308 3.114Q15.1036 1.95919 13.8329 0.399487Q11.4734 -2.4966 9.25456 -5.94585L9.25164 -5.9504L3.30871 -15.2004L-15.2004 -3.30871Z " /><path  id="圆形 1" style="stroke:#000000; stroke-width:22; stroke-opacity:1; stroke-dasharray:0 0" transform="translate(182.5835428593448 261.4606084672232)  rotate(0 5.708228570327553 6.771052930262371)" d="" /><path id="圆形 1"  style="fill:#000000" transform="translate(201 167.85)  rotate(0 20.5 53.57518812396157)" opacity="1" d="M-11 -11L-11 41.15Q-11 42.1126 -10.8762 43.4972Q-10.6683 45.824 -10.1682 48.4713Q-9.50027 52.0074 -8.37285 55.7606Q-6.99582 60.3448 -4.99444 65.0412Q-0.0125357 76.7316 8.42526 88.242Q18.7548 102.333 33.7661 115.437L33.7659 115.437L42.0525 122.671L56.5207 106.098L48.2341 98.8638L36.2807 112.556L48.2338 98.8632Q35.0577 87.3614 26.1685 75.2352Q19.2313 65.7718 15.2444 56.4163Q13.7224 52.8447 12.6971 49.4314Q11.9026 46.7867 11.4495 44.3878Q11.1488 42.7958 11.0364 41.5387Q11.0093 41.2354 11 41.0286L11 -11L-11 -11Z " /><path  id="圆形 1" style="stroke:#000000; stroke-width:22; stroke-opacity:1; stroke-dasharray:0 0" transform="translate(201 167.85)  rotate(0 20.5 53.57518812396157)" d="" /><path  id="并集" style="stroke:#000000; stroke-width:22; stroke-opacity:1; stroke-dasharray:0 0" transform="translate(45.50597514972378 16.500000000001503)  rotate(0 106.12051863770712 76.24701242513987)" d="M36 48.75C36 21.82 57.82 0 84.75 0C95.4692 0 105.38 3.4596 113.426 9.32385C118.739 7.33841 124.491 6.25299 130.497 6.25299C156.432 6.25299 177.633 26.5051 179.15 52.0676C198.391 58.5879 212.237 76.7977 212.237 98.25C212.237 125.17 190.417 146.99 163.497 146.99C156.501 146.99 149.849 145.517 143.836 142.865C135.717 148.911 125.652 152.49 114.75 152.49C101.613 152.49 89.6929 147.298 80.9278 138.854C72.3437 146.405 61.082 150.984 48.75 150.984C21.82 150.984 0 129.164 0 102.244C0 79.579 15.4559 60.5336 36.4059 55.0695C36.1381 53.0009 36 50.8916 36 48.75Z null " /></g></g></svg>